<svg xmlns="http://www.w3.org/2000/svg" xmlns:xlink="http://www.w3.org/1999/xlink" width="695" zoomAndPan="magnify" viewBox="0 0 521.25 107.999999" height="144" preserveAspectRatio="xMidYMid meet" version="1.0"><defs><g/><clipPath id="f617a34f27"><path d="M 73 71.5625 L 145 71.5625 L 145 72.945312 L 73 72.945312 Z M 73 71.5625 " clip-rule="nonzero"/></clipPath><clipPath id="2ce92262a0"><path d="M 1 37 L 39 37 L 39 74 L 1 74 Z M 1 37 " clip-rule="nonzero"/></clipPath><clipPath id="c25fb31c58"><path d="M 2.335938 36.640625 L 39.59375 72.277344 L 37.363281 74.605469 L 0.109375 38.96875 Z M 2.335938 36.640625 " clip-rule="nonzero"/></clipPath><clipPath id="38b9659289"><path d="M 2.335938 36.640625 L 39.59375 72.277344 L 37.363281 74.605469 L 0.109375 38.96875 Z M 2.335938 36.640625 " clip-rule="nonzero"/></clipPath><clipPath id="92abd79fee"><path d="M 2.335938 36.640625 L 39.59375 72.277344 L 37.363281 74.605469 L 0.109375 38.96875 Z M 2.335938 36.640625 " clip-rule="nonzero"/></clipPath><clipPath id="c8a2615f76"><path d="M 57.132812 64.085938 L 130.785156 64.085938 L 130.785156 68.6875 L 57.132812 68.6875 Z M 57.132812 64.085938 " clip-rule="nonzero"/></clipPath><clipPath id="61c7ca1e4e"><path d="M 86 1 L 132 1 L 132 61 L 86 61 Z M 86 1 " clip-rule="nonzero"/></clipPath><clipPath id="052974d50c"><path d="M 133.15625 2.980469 L 88.691406 61.695312 L 85.019531 58.917969 L 129.484375 0.199219 Z M 133.15625 2.980469 " clip-rule="nonzero"/></clipPath><clipPath id="445a69d3a4"><path d="M 133.15625 2.980469 L 88.691406 61.695312 L 85.019531 58.917969 L 129.484375 0.199219 Z M 133.15625 2.980469 " clip-rule="nonzero"/></clipPath><clipPath id="61c6c28b29"><path d="M 133.15625 2.980469 L 88.691406 61.695312 L 85.019531 58.917969 L 129.484375 0.199219 Z M 133.15625 2.980469 " clip-rule="nonzero"/></clipPath><clipPath id="c2f11bd3f4"><path d="M 131 64.085938 L 204 64.085938 L 204 68.6875 L 131 68.6875 Z M 131 64.085938 " clip-rule="nonzero"/></clipPath><clipPath id="67da4fb347"><path d="M 121 36 L 141 36 L 141 107.921875 L 121 107.921875 Z M 121 36 " clip-rule="nonzero"/></clipPath><clipPath id="90d7b4fa43"><path d="M 141.082031 36.25 L 125.085938 108.144531 L 120.589844 107.144531 L 136.585938 35.25 Z M 141.082031 36.25 " clip-rule="nonzero"/></clipPath><clipPath id="7dec0b137a"><path d="M 141.082031 36.25 L 125.085938 108.144531 L 120.589844 107.144531 L 136.585938 35.25 Z M 141.082031 36.25 " clip-rule="nonzero"/></clipPath><clipPath id="94ebfbf37f"><path d="M 141.082031 36.25 L 125.085938 108.144531 L 120.589844 107.144531 L 136.585938 35.25 Z M 141.082031 36.25 " clip-rule="nonzero"/></clipPath><clipPath id="f60389e5a5"><path d="M 165.683594 54.488281 L 173.507812 54.488281 L 173.507812 58.628906 L 165.683594 58.628906 Z M 165.683594 54.488281 " clip-rule="nonzero"/></clipPath></defs><g clip-path="url(#f617a34f27)"><path fill="#000000" d="M 109.203125 72.621094 C 106.898438 72.644531 104.59375 72.652344 102.285156 72.699219 C 100.359375 72.734375 98.429688 72.832031 96.503906 72.871094 C 94.425781 72.914062 92.351562 72.945312 90.273438 72.941406 C 87.203125 72.9375 84.128906 72.910156 81.054688 72.871094 C 79.582031 72.855469 78.105469 72.804688 76.632812 72.738281 C 75.894531 72.707031 75.164062 72.605469 74.429688 72.53125 C 74.289062 72.519531 74.148438 72.507812 74.011719 72.480469 C 73.949219 72.46875 73.894531 72.421875 73.835938 72.386719 C 73.898438 72.351562 73.957031 72.292969 74.015625 72.289062 C 74.347656 72.277344 74.679688 72.277344 75.011719 72.277344 C 76.542969 72.289062 78.078125 72.304688 79.609375 72.3125 C 79.972656 72.316406 80.339844 72.304688 80.703125 72.300781 C 81.859375 72.28125 83.015625 72.257812 84.171875 72.242188 C 84.777344 72.238281 85.386719 72.25 85.992188 72.25 C 88.496094 72.25 91 72.25 93.507812 72.242188 C 94.324219 72.238281 95.140625 72.222656 95.960938 72.195312 C 97.484375 72.152344 99.011719 72.09375 100.535156 72.046875 C 101.097656 72.027344 101.660156 72.011719 102.222656 72.003906 C 106.183594 71.957031 110.140625 71.910156 114.101562 71.867188 C 116.914062 71.839844 119.726562 71.816406 122.535156 71.808594 C 123.949219 71.808594 125.359375 71.863281 126.769531 71.859375 C 128.238281 71.859375 129.714844 71.871094 131.175781 71.78125 C 134.375 71.59375 137.578125 71.570312 140.785156 71.578125 C 141.621094 71.582031 142.457031 71.640625 143.292969 71.660156 C 143.605469 71.664062 143.917969 71.625 144.226562 71.625 C 144.316406 71.625 144.4375 71.652344 144.492188 71.707031 C 144.539062 71.753906 144.546875 71.878906 144.507812 71.929688 C 144.460938 71.988281 144.347656 72.019531 144.253906 72.03125 C 143.988281 72.070312 143.714844 72.101562 143.445312 72.125 C 143.210938 72.144531 142.976562 72.15625 142.738281 72.15625 C 139.738281 72.160156 136.734375 72.136719 133.730469 72.167969 C 131.605469 72.191406 129.476562 72.289062 127.351562 72.34375 C 126.445312 72.371094 125.539062 72.371094 124.628906 72.386719 C 123.066406 72.421875 121.5 72.457031 119.9375 72.492188 C 118.460938 72.527344 116.988281 72.574219 115.511719 72.585938 C 113.410156 72.601562 111.308594 72.589844 109.207031 72.589844 C 109.207031 72.601562 109.207031 72.609375 109.207031 72.621094 Z M 109.203125 72.621094 " fill-opacity="1" fill-rule="nonzero"/></g><g fill="#ffffff" fill-opacity="1"><g transform="translate(29.479443, 72.821476)"><g><path d="M 7.734375 -24.75 L 13.6875 -8.859375 L 19.375 -24.75 L 22.765625 -24.75 L 26.375 0 L 21.640625 0 L 19.71875 -14.96875 L 19.65625 -14.96875 L 14.1875 0.3125 L 12.5625 0.3125 L 7.28125 -14.96875 L 7.21875 -14.96875 L 5.078125 0 L 0.359375 0 L 4.40625 -24.75 Z M 7.734375 -24.75 "/></g></g></g><g fill="#ffffff" fill-opacity="1"><g transform="translate(52.821327, 72.821476)"><g/></g></g><g clip-path="url(#2ce92262a0)"><g clip-path="url(#c25fb31c58)"><g clip-path="url(#38b9659289)"><g clip-path="url(#92abd79fee)"><path fill="#000000" d="M 38.023438 70.777344 L 3.90625 38.140625 C 3.234375 37.496094 2.1875 37.496094 1.574219 38.136719 C 0.957031 38.78125 1.003906 39.824219 1.679688 40.46875 L 35.796875 73.105469 C 36.46875 73.75 37.511719 73.75 38.128906 73.109375 C 38.742188 72.464844 38.695312 71.421875 38.023438 70.777344 Z M 38.023438 70.777344 " fill-opacity="1" fill-rule="nonzero"/></g></g></g></g><g fill="#ffffff" fill-opacity="1"><g transform="translate(61.301543, 72.821476)"><g><path d="M 12.75 -24.75 L 21.90625 0 L 16.875 0 L 15.03125 -5.078125 L 6.65625 -5.078125 L 4.671875 0 L -0.28125 0 L 9.109375 -24.75 Z M 8 -8.921875 L 13.71875 -8.921875 L 10.703125 -17.671875 L 10.640625 -17.671875 Z M 8 -8.921875 "/></g></g></g><g clip-path="url(#c8a2615f76)"><path fill="#000000" d="M 127.699219 64.085938 L 60.222656 64.085938 C 58.890625 64.085938 57.8125 65.117188 57.8125 66.386719 C 57.8125 67.65625 58.890625 68.6875 60.222656 68.6875 L 127.699219 68.6875 C 129.03125 68.6875 130.109375 67.65625 130.109375 66.386719 C 130.109375 65.117188 129.03125 64.085938 127.699219 64.085938 Z M 127.699219 64.085938 " fill-opacity="1" fill-rule="nonzero"/></g><g fill="#ffffff" fill-opacity="1"><g transform="translate(92.160991, 72.821476)"><g><path d="M 6.421875 -24.109375 L 6.421875 -13.9375 L 6.484375 -13.9375 L 13.9375 -24.109375 L 19.71875 -24.109375 L 10.578125 -12.984375 L 20.234375 0 L 14.1875 0 L 6.484375 -10.84375 L 6.421875 -10.84375 L 6.421875 0 L 1.71875 0 L 1.71875 -24.109375 Z M 6.421875 -24.109375 "/></g></g></g><g clip-path="url(#61c7ca1e4e)"><g clip-path="url(#052974d50c)"><g clip-path="url(#445a69d3a4)"><g clip-path="url(#61c6c28b29)"><path fill="#000000" d="M 90.554688 59.234375 L 131.292969 5.441406 C 132.09375 4.382812 131.925781 2.898438 130.910156 2.132812 C 129.898438 1.363281 128.425781 1.601562 127.621094 2.664062 L 86.886719 56.453125 C 86.082031 57.515625 86.25 58.996094 87.265625 59.765625 C 88.277344 60.53125 89.75 60.292969 90.554688 59.234375 Z M 90.554688 59.234375 " fill-opacity="1" fill-rule="nonzero"/></g></g></g></g><g fill="#ffffff" fill-opacity="1"><g transform="translate(138.847636, 72.821476)"><g><path d="M 12.75 -24.75 L 21.90625 0 L 16.875 0 L 15.03125 -5.078125 L 6.65625 -5.078125 L 4.671875 0 L -0.28125 0 L 9.109375 -24.75 Z M 8 -8.921875 L 13.71875 -8.921875 L 10.703125 -17.671875 L 10.640625 -17.671875 Z M 8 -8.921875 "/></g></g></g><g clip-path="url(#c2f11bd3f4)"><path fill="#000000" d="M 201.125 64.085938 L 133.648438 64.085938 C 132.320312 64.085938 131.242188 65.117188 131.242188 66.386719 C 131.242188 67.65625 132.320312 68.6875 133.648438 68.6875 L 201.125 68.6875 C 202.457031 68.6875 203.535156 67.65625 203.535156 66.386719 C 203.535156 65.117188 202.457031 64.085938 201.125 64.085938 Z M 201.125 64.085938 " fill-opacity="1" fill-rule="nonzero"/></g><g fill="#ffffff" fill-opacity="1"><g transform="translate(166.618116, 72.821476)"><g><path d="M 8.21875 -24.109375 C 10.75 -24.109375 12.703125 -23.484375 14.078125 -22.234375 C 15.453125 -20.984375 16.140625 -19.1875 16.140625 -16.84375 C 16.140625 -15.144531 15.675781 -13.660156 14.75 -12.390625 C 13.820312 -11.117188 12.644531 -10.378906 11.21875 -10.171875 L 18.03125 0 L 12.34375 0 L 6.484375 -9.71875 L 6.421875 -9.71875 L 6.421875 0 L 1.71875 0 L 1.71875 -24.109375 Z M 6.421875 -13.015625 L 6.9375 -13.015625 C 8.550781 -13.015625 9.703125 -13.3125 10.390625 -13.90625 C 11.085938 -14.5 11.4375 -15.4375 11.4375 -16.71875 C 11.4375 -17.976562 11.097656 -18.882812 10.421875 -19.4375 C 9.742188 -19.988281 8.601562 -20.265625 7 -20.265625 L 6.421875 -20.265625 Z M 6.421875 -13.015625 "/></g></g></g><g fill="#ffffff" fill-opacity="1"><g transform="translate(118.345074, 72.821476)"><g><path d="M 6.421875 -24.109375 L 6.421875 -4.09375 L 13.078125 -4.09375 L 13.078125 0 L 1.71875 0 L 1.71875 -24.109375 Z M 6.421875 -24.109375 "/></g></g></g><g clip-path="url(#67da4fb347)"><g clip-path="url(#90d7b4fa43)"><g clip-path="url(#7dec0b137a)"><g clip-path="url(#94ebfbf37f)"><path fill="#000000" d="M 125.753906 105.128906 L 140.410156 39.265625 C 140.699219 37.964844 139.925781 36.6875 138.6875 36.410156 C 137.445312 36.136719 136.207031 36.964844 135.917969 38.265625 L 121.261719 104.128906 C 120.972656 105.429688 121.746094 106.707031 122.984375 106.980469 C 124.226562 107.257812 125.464844 106.429688 125.753906 105.128906 Z M 125.753906 105.128906 " fill-opacity="1" fill-rule="nonzero"/></g></g></g></g><g clip-path="url(#f60389e5a5)"><path fill="#ff0013" d="M 173.425781 57.390625 C 173.398438 57.425781 173.367188 57.464844 173.335938 57.496094 C 173.34375 57.5625 173.339844 57.628906 173.316406 57.6875 C 173.277344 57.765625 173.199219 57.824219 173.175781 57.90625 C 173.167969 57.933594 173.167969 57.957031 173.179688 57.976562 C 173.164062 57.96875 173.144531 57.96875 173.128906 57.972656 C 173.109375 57.976562 173.089844 57.984375 173.074219 57.992188 C 173.035156 58.019531 173.003906 58.050781 172.972656 58.082031 C 172.941406 58.105469 172.910156 58.132812 172.871094 58.152344 C 172.828125 58.171875 172.777344 58.171875 172.726562 58.175781 C 172.722656 58.21875 172.707031 58.261719 172.6875 58.300781 C 172.679688 58.3125 172.667969 58.328125 172.65625 58.339844 C 172.644531 58.347656 172.628906 58.355469 172.613281 58.359375 C 172.535156 58.378906 172.449219 58.363281 172.382812 58.324219 C 172.339844 58.355469 172.285156 58.394531 172.230469 58.40625 C 172.1875 58.414062 172.144531 58.40625 172.101562 58.414062 C 172.046875 58.421875 172.003906 58.460938 171.980469 58.507812 C 171.964844 58.476562 171.925781 58.460938 171.890625 58.460938 C 171.855469 58.457031 171.820312 58.464844 171.785156 58.476562 C 171.753906 58.484375 171.71875 58.496094 171.683594 58.496094 C 171.65625 58.496094 171.632812 58.488281 171.609375 58.484375 C 171.582031 58.476562 171.554688 58.46875 171.527344 58.464844 C 171.515625 58.5 171.480469 58.535156 171.441406 58.554688 C 171.421875 58.566406 171.398438 58.574219 171.375 58.578125 C 171.332031 58.582031 171.292969 58.570312 171.257812 58.546875 C 171.222656 58.523438 171.195312 58.496094 171.167969 58.464844 C 171.089844 58.515625 170.984375 58.527344 170.894531 58.492188 C 170.878906 58.484375 170.863281 58.476562 170.84375 58.476562 C 170.828125 58.480469 170.816406 58.488281 170.800781 58.492188 C 170.78125 58.503906 170.757812 58.515625 170.738281 58.527344 C 170.714844 58.492188 170.667969 58.476562 170.625 58.472656 C 170.578125 58.464844 170.535156 58.46875 170.488281 58.460938 C 170.425781 58.457031 170.367188 58.429688 170.320312 58.390625 C 170.292969 58.421875 170.257812 58.441406 170.21875 58.457031 C 170.1875 58.464844 170.15625 58.472656 170.121094 58.464844 C 170.089844 58.460938 170.058594 58.441406 170.035156 58.414062 C 170.011719 58.390625 169.996094 58.355469 169.980469 58.324219 C 169.875 58.359375 169.75 58.339844 169.660156 58.273438 C 169.648438 58.273438 169.636719 58.277344 169.625 58.28125 C 169.617188 58.28125 169.613281 58.285156 169.609375 58.289062 C 169.605469 58.296875 169.601562 58.308594 169.59375 58.316406 C 169.589844 58.308594 169.585938 58.296875 169.582031 58.289062 C 169.578125 58.285156 169.570312 58.28125 169.566406 58.28125 C 169.554688 58.277344 169.542969 58.273438 169.53125 58.273438 C 169.441406 58.339844 169.316406 58.359375 169.207031 58.324219 C 169.195312 58.355469 169.179688 58.390625 169.15625 58.414062 C 169.132812 58.441406 169.101562 58.460938 169.066406 58.464844 C 169.035156 58.472656 169.003906 58.464844 168.972656 58.457031 C 168.933594 58.441406 168.894531 58.421875 168.867188 58.390625 C 168.820312 58.429688 168.761719 58.457031 168.703125 58.460938 C 168.65625 58.46875 168.613281 58.464844 168.566406 58.472656 C 168.523438 58.476562 168.476562 58.492188 168.453125 58.527344 C 168.433594 58.515625 168.410156 58.503906 168.386719 58.492188 C 168.375 58.488281 168.363281 58.480469 168.347656 58.476562 C 168.328125 58.476562 168.3125 58.484375 168.292969 58.492188 C 168.207031 58.527344 168.101562 58.515625 168.023438 58.464844 C 167.996094 58.496094 167.96875 58.523438 167.933594 58.546875 C 167.898438 58.570312 167.855469 58.582031 167.816406 58.578125 C 167.792969 58.574219 167.769531 58.566406 167.746094 58.554688 C 167.710938 58.535156 167.675781 58.5 167.664062 58.464844 C 167.636719 58.46875 167.609375 58.476562 167.582031 58.480469 C 167.558594 58.488281 167.535156 58.492188 167.507812 58.496094 C 167.472656 58.496094 167.4375 58.484375 167.402344 58.476562 C 167.371094 58.464844 167.335938 58.457031 167.300781 58.460938 C 167.261719 58.460938 167.226562 58.476562 167.207031 58.507812 C 167.1875 58.460938 167.140625 58.421875 167.089844 58.414062 C 167.046875 58.40625 167.003906 58.414062 166.960938 58.40625 C 166.90625 58.394531 166.851562 58.355469 166.808594 58.324219 C 166.742188 58.363281 166.65625 58.378906 166.578125 58.359375 C 166.5625 58.355469 166.546875 58.347656 166.535156 58.339844 C 166.519531 58.328125 166.511719 58.3125 166.503906 58.300781 C 166.484375 58.261719 166.46875 58.21875 166.460938 58.171875 C 166.414062 58.171875 166.363281 58.167969 166.320312 58.148438 C 166.28125 58.132812 166.25 58.105469 166.21875 58.082031 C 166.183594 58.050781 166.164062 58.019531 166.125 57.996094 C 166.109375 57.984375 166.082031 57.976562 166.0625 57.972656 C 166.046875 57.96875 166.027344 57.96875 166.011719 57.976562 C 166.023438 57.957031 166.019531 57.933594 166.011719 57.90625 C 165.988281 57.824219 165.910156 57.765625 165.875 57.6875 C 165.847656 57.628906 165.84375 57.5625 165.851562 57.496094 C 165.820312 57.464844 165.789062 57.425781 165.761719 57.390625 C 165.746094 57.367188 165.730469 57.34375 165.730469 57.3125 C 165.726562 57.28125 165.746094 57.25 165.769531 57.222656 C 165.796875 57.191406 165.824219 57.164062 165.859375 57.144531 C 165.871094 57.136719 165.882812 57.128906 165.894531 57.117188 C 165.902344 57.109375 165.910156 57.097656 165.90625 57.082031 C 165.898438 57.011719 165.917969 56.925781 165.964844 56.871094 C 165.984375 56.84375 166.011719 56.824219 166.03125 56.796875 C 166.054688 56.761719 166.070312 56.714844 166.058594 56.675781 C 166.054688 56.65625 166.046875 56.640625 166.039062 56.625 C 166.027344 56.582031 166.035156 56.539062 166.042969 56.496094 C 166.066406 56.46875 166.070312 56.421875 166.058594 56.390625 C 166.046875 56.355469 166.019531 56.328125 166 56.296875 C 165.964844 56.257812 165.9375 56.210938 165.917969 56.164062 C 165.898438 56.117188 165.886719 56.066406 165.894531 56.015625 C 165.863281 56 165.828125 55.976562 165.804688 55.949219 C 165.777344 55.925781 165.757812 55.894531 165.75 55.859375 C 165.742188 55.816406 165.75 55.769531 165.773438 55.730469 C 165.792969 55.695312 165.828125 55.660156 165.863281 55.636719 C 165.847656 55.566406 165.839844 55.488281 165.875 55.421875 C 165.890625 55.390625 165.917969 55.363281 165.941406 55.335938 C 165.964844 55.308594 165.988281 55.28125 166.003906 55.25 C 166.019531 55.21875 166.027344 55.171875 166.011719 55.136719 C 166.027344 55.148438 166.046875 55.148438 166.0625 55.144531 C 166.082031 55.140625 166.097656 55.128906 166.109375 55.117188 C 166.148438 55.09375 166.183594 55.066406 166.21875 55.035156 C 166.25 55.011719 166.28125 54.984375 166.320312 54.964844 C 166.363281 54.945312 166.414062 54.945312 166.460938 54.941406 C 166.46875 54.898438 166.484375 54.855469 166.503906 54.816406 C 166.511719 54.800781 166.519531 54.789062 166.535156 54.777344 C 166.546875 54.769531 166.5625 54.761719 166.578125 54.757812 C 166.65625 54.738281 166.742188 54.753906 166.808594 54.792969 C 166.851562 54.761719 166.90625 54.722656 166.960938 54.710938 C 167.003906 54.703125 167.046875 54.710938 167.089844 54.703125 C 167.144531 54.695312 167.1875 54.65625 167.210938 54.609375 C 167.226562 54.640625 167.265625 54.65625 167.300781 54.65625 C 167.335938 54.660156 167.371094 54.652344 167.40625 54.640625 C 167.4375 54.632812 167.472656 54.621094 167.507812 54.621094 C 167.535156 54.621094 167.558594 54.628906 167.582031 54.632812 C 167.609375 54.640625 167.636719 54.648438 167.664062 54.652344 C 167.675781 54.613281 167.710938 54.582031 167.75 54.5625 C 167.769531 54.550781 167.792969 54.542969 167.816406 54.539062 C 167.859375 54.535156 167.898438 54.546875 167.933594 54.570312 C 167.96875 54.59375 167.996094 54.621094 168.023438 54.652344 C 168.101562 54.601562 168.207031 54.589844 168.296875 54.625 C 168.3125 54.632812 168.328125 54.640625 168.347656 54.636719 C 168.363281 54.636719 168.375 54.628906 168.390625 54.625 C 168.410156 54.609375 168.433594 54.597656 168.453125 54.585938 C 168.476562 54.625 168.523438 54.640625 168.566406 54.644531 C 168.613281 54.652344 168.65625 54.648438 168.703125 54.652344 C 168.765625 54.660156 168.824219 54.6875 168.867188 54.726562 C 168.898438 54.695312 168.933594 54.675781 168.972656 54.660156 C 169.003906 54.652344 169.035156 54.644531 169.066406 54.652344 C 169.101562 54.65625 169.132812 54.675781 169.15625 54.703125 C 169.179688 54.726562 169.195312 54.761719 169.210938 54.792969 C 169.316406 54.757812 169.441406 54.777344 169.53125 54.839844 C 169.542969 54.84375 169.554688 54.839844 169.566406 54.835938 C 169.570312 54.835938 169.578125 54.832031 169.582031 54.828125 C 169.585938 54.820312 169.589844 54.808594 169.59375 54.800781 C 169.601562 54.808594 169.605469 54.820312 169.609375 54.828125 C 169.613281 54.832031 169.621094 54.835938 169.625 54.835938 C 169.636719 54.839844 169.648438 54.84375 169.660156 54.839844 C 169.75 54.777344 169.875 54.757812 169.980469 54.792969 C 169.996094 54.761719 170.011719 54.726562 170.035156 54.703125 C 170.058594 54.675781 170.089844 54.65625 170.121094 54.652344 C 170.15625 54.644531 170.1875 54.652344 170.21875 54.660156 C 170.257812 54.675781 170.292969 54.695312 170.320312 54.726562 C 170.367188 54.6875 170.425781 54.660156 170.488281 54.652344 C 170.535156 54.648438 170.578125 54.652344 170.625 54.644531 C 170.667969 54.640625 170.714844 54.625 170.738281 54.585938 C 170.757812 54.597656 170.78125 54.609375 170.800781 54.625 C 170.816406 54.628906 170.828125 54.636719 170.84375 54.636719 C 170.863281 54.640625 170.878906 54.632812 170.894531 54.625 C 170.984375 54.589844 171.089844 54.601562 171.167969 54.652344 C 171.195312 54.621094 171.222656 54.59375 171.257812 54.570312 C 171.292969 54.546875 171.332031 54.535156 171.375 54.539062 C 171.398438 54.542969 171.421875 54.550781 171.441406 54.5625 C 171.480469 54.582031 171.515625 54.617188 171.527344 54.652344 C 171.554688 54.648438 171.582031 54.640625 171.609375 54.636719 C 171.632812 54.628906 171.65625 54.625 171.683594 54.621094 C 171.71875 54.621094 171.753906 54.632812 171.785156 54.640625 C 171.820312 54.652344 171.855469 54.660156 171.890625 54.65625 C 171.925781 54.65625 171.964844 54.640625 171.980469 54.609375 C 172.003906 54.65625 172.046875 54.695312 172.101562 54.703125 C 172.144531 54.710938 172.1875 54.703125 172.230469 54.710938 C 172.285156 54.722656 172.339844 54.761719 172.382812 54.792969 C 172.449219 54.753906 172.535156 54.738281 172.613281 54.757812 C 172.628906 54.761719 172.644531 54.769531 172.65625 54.777344 C 172.671875 54.789062 172.679688 54.804688 172.6875 54.816406 C 172.707031 54.855469 172.722656 54.898438 172.726562 54.941406 C 172.777344 54.945312 172.828125 54.949219 172.871094 54.96875 C 172.910156 54.984375 172.941406 55.011719 172.972656 55.035156 C 173.007812 55.066406 173.035156 55.097656 173.074219 55.125 C 173.089844 55.132812 173.109375 55.140625 173.128906 55.144531 C 173.144531 55.148438 173.164062 55.148438 173.179688 55.140625 C 173.164062 55.171875 173.167969 55.21875 173.183594 55.25 C 173.199219 55.28125 173.222656 55.308594 173.25 55.335938 C 173.273438 55.363281 173.296875 55.390625 173.3125 55.421875 C 173.347656 55.488281 173.34375 55.566406 173.324219 55.636719 C 173.359375 55.660156 173.394531 55.695312 173.417969 55.734375 C 173.4375 55.769531 173.449219 55.816406 173.4375 55.859375 C 173.433594 55.894531 173.410156 55.925781 173.386719 55.949219 C 173.359375 55.976562 173.328125 56 173.292969 56.015625 C 173.300781 56.066406 173.292969 56.117188 173.273438 56.164062 C 173.253906 56.214844 173.222656 56.257812 173.191406 56.296875 C 173.167969 56.328125 173.144531 56.355469 173.128906 56.390625 C 173.117188 56.421875 173.121094 56.46875 173.148438 56.496094 C 173.152344 56.539062 173.160156 56.582031 173.148438 56.625 C 173.144531 56.640625 173.136719 56.65625 173.128906 56.675781 C 173.121094 56.714844 173.132812 56.761719 173.15625 56.796875 C 173.175781 56.824219 173.203125 56.84375 173.222656 56.871094 C 173.269531 56.929688 173.292969 57.011719 173.28125 57.082031 C 173.28125 57.097656 173.285156 57.109375 173.296875 57.121094 C 173.304688 57.128906 173.316406 57.136719 173.328125 57.144531 C 173.363281 57.164062 173.394531 57.191406 173.417969 57.222656 C 173.441406 57.25 173.460938 57.28125 173.460938 57.316406 C 173.457031 57.34375 173.441406 57.367188 173.425781 57.390625 Z M 173.425781 57.390625 " fill-opacity="1" fill-rule="nonzero"/><path fill="#000000" d="M 165.683594 54.488281 L 173.507812 54.488281 L 173.507812 58.628906 L 165.683594 58.628906 Z M 165.683594 54.488281 " fill-opacity="1" fill-rule="nonzero"/></g><g fill="#ffffff" fill-opacity="1"><g transform="translate(93.647881, 90.168263)"><g><path d="M 2.515625 0.03125 C 2.097656 0.03125 1.722656 -0.0546875 1.390625 -0.234375 C 1.054688 -0.421875 0.789062 -0.675781 0.59375 -1 C 0.40625 -1.332031 0.3125 -1.703125 0.3125 -2.109375 C 0.3125 -2.515625 0.40625 -2.878906 0.59375 -3.203125 C 0.789062 -3.535156 1.054688 -3.796875 1.390625 -3.984375 C 1.734375 -4.171875 2.113281 -4.265625 2.53125 -4.265625 C 2.84375 -4.265625 3.128906 -4.207031 3.390625 -4.09375 C 3.660156 -3.988281 3.890625 -3.835938 4.078125 -3.640625 L 3.78125 -3.359375 C 3.457031 -3.691406 3.046875 -3.859375 2.546875 -3.859375 C 2.203125 -3.859375 1.894531 -3.78125 1.625 -3.625 C 1.351562 -3.476562 1.140625 -3.269531 0.984375 -3 C 0.828125 -2.738281 0.75 -2.441406 0.75 -2.109375 C 0.75 -1.773438 0.828125 -1.472656 0.984375 -1.203125 C 1.140625 -0.941406 1.351562 -0.734375 1.625 -0.578125 C 1.894531 -0.429688 2.203125 -0.359375 2.546875 -0.359375 C 3.046875 -0.359375 3.457031 -0.53125 3.78125 -0.875 L 4.078125 -0.578125 C 3.890625 -0.378906 3.660156 -0.226562 3.390625 -0.125 C 3.117188 -0.0195312 2.828125 0.03125 2.515625 0.03125 Z M 2.515625 0.03125 "/></g></g></g><g fill="#ffffff" fill-opacity="1"><g transform="translate(97.339811, 90.168263)"><g><path d="M 3.578125 0 L 2.609375 -1.359375 C 2.492188 -1.347656 2.378906 -1.34375 2.265625 -1.34375 L 1.140625 -1.34375 L 1.140625 0 L 0.6875 0 L 0.6875 -4.21875 L 2.265625 -4.21875 C 2.804688 -4.21875 3.226562 -4.085938 3.53125 -3.828125 C 3.84375 -3.578125 4 -3.226562 4 -2.78125 C 4 -2.445312 3.910156 -2.164062 3.734375 -1.9375 C 3.566406 -1.707031 3.332031 -1.546875 3.03125 -1.453125 L 4.0625 0 Z M 2.25 -1.71875 C 2.675781 -1.71875 3 -1.8125 3.21875 -2 C 3.4375 -2.1875 3.546875 -2.445312 3.546875 -2.78125 C 3.546875 -3.113281 3.4375 -3.367188 3.21875 -3.546875 C 3 -3.734375 2.675781 -3.828125 2.25 -3.828125 L 1.140625 -3.828125 L 1.140625 -1.71875 Z M 2.25 -1.71875 "/></g></g></g><g fill="#ffffff" fill-opacity="1"><g transform="translate(101.055836, 90.168263)"><g><path d="M 3.671875 -0.390625 L 3.671875 0 L 0.6875 0 L 0.6875 -4.21875 L 3.578125 -4.21875 L 3.578125 -3.828125 L 1.140625 -3.828125 L 1.140625 -2.328125 L 3.3125 -2.328125 L 3.3125 -1.953125 L 1.140625 -1.953125 L 1.140625 -0.390625 Z M 3.671875 -0.390625 "/></g></g></g><g fill="#ffffff" fill-opacity="1"><g transform="translate(104.446599, 90.168263)"><g><path d="M 3.328125 -1.125 L 0.984375 -1.125 L 0.46875 0 L 0.015625 0 L 1.9375 -4.21875 L 2.375 -4.21875 L 4.3125 0 L 3.84375 0 Z M 3.171875 -1.484375 L 2.15625 -3.75 L 1.140625 -1.484375 Z M 3.171875 -1.484375 "/></g></g></g><g fill="#ffffff" fill-opacity="1"><g transform="translate(108.126484, 90.168263)"><g><path d="M 1.515625 -3.828125 L 0.03125 -3.828125 L 0.03125 -4.21875 L 3.4375 -4.21875 L 3.4375 -3.828125 L 1.953125 -3.828125 L 1.953125 0 L 1.515625 0 Z M 1.515625 -3.828125 "/></g></g></g><g fill="#ffffff" fill-opacity="1"><g transform="translate(110.94503, 90.168263)"><g><path d="M 0.6875 -4.21875 L 1.140625 -4.21875 L 1.140625 0 L 0.6875 0 Z M 0.6875 -4.21875 "/></g></g></g><g fill="#ffffff" fill-opacity="1"><g transform="translate(112.125217, 90.168263)"><g><path d="M 2.53125 0.03125 C 2.113281 0.03125 1.734375 -0.0625 1.390625 -0.25 C 1.054688 -0.4375 0.789062 -0.691406 0.59375 -1.015625 C 0.40625 -1.335938 0.3125 -1.703125 0.3125 -2.109375 C 0.3125 -2.515625 0.40625 -2.878906 0.59375 -3.203125 C 0.789062 -3.535156 1.054688 -3.796875 1.390625 -3.984375 C 1.734375 -4.171875 2.113281 -4.265625 2.53125 -4.265625 C 2.945312 -4.265625 3.320312 -4.171875 3.65625 -3.984375 C 4 -3.796875 4.265625 -3.535156 4.453125 -3.203125 C 4.648438 -2.878906 4.75 -2.515625 4.75 -2.109375 C 4.75 -1.703125 4.648438 -1.332031 4.453125 -1 C 4.265625 -0.675781 4 -0.421875 3.65625 -0.234375 C 3.320312 -0.0546875 2.945312 0.03125 2.53125 0.03125 Z M 2.53125 -0.359375 C 2.863281 -0.359375 3.164062 -0.429688 3.4375 -0.578125 C 3.707031 -0.734375 3.914062 -0.941406 4.0625 -1.203125 C 4.21875 -1.472656 4.296875 -1.773438 4.296875 -2.109375 C 4.296875 -2.441406 4.21875 -2.738281 4.0625 -3 C 3.914062 -3.269531 3.707031 -3.476562 3.4375 -3.625 C 3.164062 -3.78125 2.863281 -3.859375 2.53125 -3.859375 C 2.195312 -3.859375 1.894531 -3.78125 1.625 -3.625 C 1.351562 -3.476562 1.140625 -3.269531 0.984375 -3 C 0.828125 -2.738281 0.75 -2.441406 0.75 -2.109375 C 0.75 -1.773438 0.828125 -1.472656 0.984375 -1.203125 C 1.140625 -0.941406 1.351562 -0.734375 1.625 -0.578125 C 1.894531 -0.429688 2.195312 -0.359375 2.53125 -0.359375 Z M 2.53125 -0.359375 "/></g></g></g><g fill="#ffffff" fill-opacity="1"><g transform="translate(116.539948, 90.168263)"><g><path d="M 4.21875 -4.21875 L 4.21875 0 L 3.84375 0 L 1.140625 -3.421875 L 1.140625 0 L 0.6875 0 L 0.6875 -4.21875 L 1.0625 -4.21875 L 3.78125 -0.796875 L 3.78125 -4.21875 Z M 4.21875 -4.21875 "/></g></g></g><g fill="#ffffff" fill-opacity="1"><g transform="translate(120.798073, 90.168263)"><g><path d="M 1.859375 0.03125 C 1.535156 0.03125 1.226562 -0.015625 0.9375 -0.109375 C 0.65625 -0.210938 0.4375 -0.347656 0.28125 -0.515625 L 0.453125 -0.859375 C 0.609375 -0.703125 0.8125 -0.578125 1.0625 -0.484375 C 1.320312 -0.390625 1.585938 -0.34375 1.859375 -0.34375 C 2.234375 -0.34375 2.515625 -0.410156 2.703125 -0.546875 C 2.890625 -0.691406 2.984375 -0.875 2.984375 -1.09375 C 2.984375 -1.257812 2.929688 -1.390625 2.828125 -1.484375 C 2.722656 -1.585938 2.597656 -1.664062 2.453125 -1.71875 C 2.304688 -1.78125 2.097656 -1.84375 1.828125 -1.90625 C 1.515625 -1.988281 1.265625 -2.066406 1.078125 -2.140625 C 0.890625 -2.210938 0.726562 -2.320312 0.59375 -2.46875 C 0.457031 -2.625 0.390625 -2.832031 0.390625 -3.09375 C 0.390625 -3.3125 0.441406 -3.503906 0.546875 -3.671875 C 0.660156 -3.847656 0.832031 -3.988281 1.0625 -4.09375 C 1.300781 -4.207031 1.59375 -4.265625 1.9375 -4.265625 C 2.175781 -4.265625 2.410156 -4.226562 2.640625 -4.15625 C 2.878906 -4.09375 3.082031 -4.003906 3.25 -3.890625 L 3.09375 -3.53125 C 2.914062 -3.644531 2.726562 -3.726562 2.53125 -3.78125 C 2.332031 -3.84375 2.132812 -3.875 1.9375 -3.875 C 1.570312 -3.875 1.296875 -3.800781 1.109375 -3.65625 C 0.921875 -3.519531 0.828125 -3.335938 0.828125 -3.109375 C 0.828125 -2.941406 0.878906 -2.804688 0.984375 -2.703125 C 1.085938 -2.597656 1.210938 -2.519531 1.359375 -2.46875 C 1.515625 -2.414062 1.722656 -2.359375 1.984375 -2.296875 C 2.296875 -2.210938 2.546875 -2.132812 2.734375 -2.0625 C 2.929688 -1.988281 3.09375 -1.875 3.21875 -1.71875 C 3.351562 -1.570312 3.421875 -1.367188 3.421875 -1.109375 C 3.421875 -0.898438 3.363281 -0.707031 3.25 -0.53125 C 3.132812 -0.351562 2.957031 -0.210938 2.71875 -0.109375 C 2.488281 -0.015625 2.203125 0.03125 1.859375 0.03125 Z M 1.859375 0.03125 "/></g></g></g></svg>