<svg xmlns="http://www.w3.org/2000/svg" xmlns:xlink="http://www.w3.org/1999/xlink" width="500" zoomAndPan="magnify" viewBox="0 0 375 374.999991" height="500" preserveAspectRatio="xMidYMid meet" version="1.0"><defs><g/><clipPath id="c78eaaac0e"><path d="M 99 130 L 176 130 L 176 205 L 99 205 Z M 99 130 " clip-rule="nonzero"/></clipPath><clipPath id="815be32a6f"><path d="M 101.753906 128.199219 L 178.167969 201.296875 L 173.503906 206.175781 L 97.085938 133.074219 Z M 101.753906 128.199219 " clip-rule="nonzero"/></clipPath><clipPath id="9fd8372246"><path d="M 101.753906 128.199219 L 178.167969 201.296875 L 173.503906 206.175781 L 97.085938 133.074219 Z M 101.753906 128.199219 " clip-rule="nonzero"/></clipPath></defs><g fill="#000000" fill-opacity="1"><g transform="translate(157.20033, 202.113414)"><g><path d="M 15.8125 -50.546875 L 27.953125 -18.09375 L 39.578125 -50.546875 L 46.5 -50.546875 L 53.875 0 L 44.21875 0 L 40.296875 -30.5625 L 40.171875 -30.5625 L 29 0.65625 L 25.671875 0.65625 L 14.890625 -30.5625 L 14.765625 -30.5625 L 10.390625 0 L 0.71875 0 L 9.015625 -50.546875 Z M 15.8125 -50.546875 "/></g></g></g><g fill="#000000" fill-opacity="1"><g transform="translate(204.883921, 202.113414)"><g/></g></g><g clip-path="url(#c78eaaac0e)"><g clip-path="url(#815be32a6f)"><g clip-path="url(#9fd8372246)"><path fill="#ffffff" d="M 174.8125 198.085938 L 104.984375 131.289062 C 103.605469 129.972656 101.421875 130.019531 100.101562 131.398438 C 98.785156 132.773438 98.835938 134.957031 100.210938 136.277344 L 170.039062 203.074219 C 171.417969 204.390625 173.601562 204.34375 174.917969 202.964844 C 176.238281 201.589844 176.1875 199.402344 174.8125 198.085938 Z M 174.8125 198.085938 " fill-opacity="1" fill-rule="nonzero"/></g></g></g></svg>