<svg xmlns="http://www.w3.org/2000/svg" xmlns:xlink="http://www.w3.org/1999/xlink" width="500" zoomAndPan="magnify" viewBox="0 0 375 374.999991" height="500" preserveAspectRatio="xMidYMid meet" version="1.0"><defs><g/><clipPath id="b2af445f2b"><path d="M 110.449219 131 L 178 131 L 178 159 L 110.449219 159 Z M 110.449219 131 " clip-rule="nonzero"/></clipPath><clipPath id="850b3ae687"><path d="M 179 118.003906 L 258 118.003906 L 258 159 L 179 159 Z M 179 118.003906 " clip-rule="nonzero"/></clipPath><clipPath id="6a11d05ffb"><path d="M 112 118.003906 L 192 118.003906 L 192 159 L 112 159 Z M 112 118.003906 " clip-rule="nonzero"/></clipPath></defs><path fill="#757575" d="M 259.972656 140.628906 C 259.972656 140.265625 259.925781 139.882812 259.835938 139.480469 L 259.808594 139.398438 C 258.605469 136.273438 256.023438 134.75 252.058594 134.832031 L 251.960938 134.839844 C 248.339844 135.511719 246.136719 137.621094 245.34375 141.171875 C 245.335938 141.210938 245.332031 141.253906 245.328125 141.292969 C 245.328125 141.378906 245.328125 141.460938 245.328125 141.546875 C 245.328125 147.0625 249.277344 152.367188 257.175781 157.464844 L 257.175781 157.476562 C 256.957031 157.453125 256.714844 157.425781 256.445312 157.394531 C 244.144531 155.40625 234.59375 148.0625 227.785156 135.355469 C 227.722656 135.242188 227.628906 135.148438 227.246094 135.03125 L 227.460938 135.082031 L 227.460938 135.070312 C 227 134.871094 226.414062 134.925781 225.695312 135.238281 L 225.671875 135.25 C 220.878906 137.597656 217.539062 139.011719 215.648438 139.488281 L 215.625 139.496094 C 212.746094 140.335938 209.964844 140.792969 207.277344 140.859375 L 207.273438 140.859375 C 202.90625 140.984375 199.484375 140.269531 197 138.707031 L 197 138.695312 C 195.785156 137.574219 195.175781 136.527344 195.175781 135.546875 C 195.175781 134.902344 195.4375 134.292969 195.960938 133.710938 C 196.046875 133.617188 196.136719 133.523438 196.234375 133.429688 L 196.234375 133.417969 C 197.402344 132.816406 198.355469 132.792969 199.09375 133.347656 C 199.726562 133.894531 200.042969 134.691406 200.042969 135.734375 C 200.042969 136.027344 200.019531 136.335938 199.96875 136.664062 C 199.964844 136.695312 199.960938 136.726562 199.960938 136.757812 C 199.960938 137.054688 200.179688 137.316406 200.484375 137.359375 C 200.820312 137.410156 201.128906 137.179688 201.179688 136.84375 C 201.238281 136.449219 201.269531 136.074219 201.269531 135.71875 C 201.269531 134.3125 200.808594 133.214844 199.894531 132.421875 L 199.867188 132.398438 C 198.699219 131.5 197.285156 131.484375 195.621094 132.359375 C 195.574219 132.382812 195.53125 132.414062 195.492188 132.449219 C 195.332031 132.597656 195.1875 132.742188 195.054688 132.890625 C 194.277344 133.753906 193.886719 134.644531 193.886719 135.5625 C 193.886719 136.878906 194.679688 138.25 196.265625 139.679688 L 196.351562 139.746094 C 199.039062 141.4375 202.691406 142.214844 207.308594 142.082031 C 210.09375 142.011719 212.972656 141.542969 215.945312 140.675781 C 217.917969 140.175781 221.332031 138.738281 226.183594 136.359375 C 226.464844 136.238281 226.679688 136.175781 226.828125 136.167969 L 226.828125 136.15625 C 233.824219 149.089844 243.636719 156.570312 256.273438 158.605469 L 256.296875 158.609375 C 257.675781 158.777344 258.566406 158.796875 258.96875 158.671875 C 259.113281 158.625 259.230469 158.558594 259.324219 158.46875 C 259.496094 158.304688 259.582031 158.132812 259.582031 157.957031 C 259.582031 157.773438 259.492188 157.582031 259.308594 157.386719 C 259.304688 157.378906 259.296875 157.375 259.292969 157.367188 C 259.257812 157.328125 259.214844 157.296875 259.167969 157.269531 C 250.757812 152.152344 246.550781 146.910156 246.550781 141.546875 C 246.550781 141.496094 246.550781 141.445312 246.550781 141.394531 L 246.550781 141.382812 C 247.230469 138.425781 249.074219 136.652344 252.082031 136.0625 L 252.082031 136.054688 C 255.453125 135.984375 257.640625 137.226562 258.644531 139.78125 L 258.644531 139.769531 C 258.707031 140.042969 258.738281 140.304688 258.738281 140.554688 C 258.738281 141.578125 258.214844 142.378906 257.167969 142.953125 L 257.167969 142.945312 C 255.570312 143.535156 254.097656 143.351562 252.746094 142.398438 C 252.46875 142.203125 252.085938 142.269531 251.890625 142.546875 C 251.816406 142.652344 251.78125 142.777344 251.78125 142.898438 C 251.78125 143.089844 251.871094 143.28125 252.039062 143.398438 C 253.769531 144.617188 255.648438 144.839844 257.679688 144.058594 L 257.753906 144.023438 C 259.234375 143.214844 259.972656 142.082031 259.972656 140.628906 Z M 259.972656 140.628906 " fill-opacity="0.996" fill-rule="nonzero"/><g clip-path="url(#b2af445f2b)"><path fill="#757575" d="M 110.988281 140.628906 C 110.988281 140.265625 111.035156 139.882812 111.125 139.480469 L 111.152344 139.398438 C 112.351562 136.273438 114.9375 134.75 118.902344 134.832031 L 119 134.839844 C 122.621094 135.511719 124.824219 137.621094 125.617188 141.171875 C 125.625 141.210938 125.628906 141.253906 125.628906 141.292969 C 125.632812 141.378906 125.632812 141.460938 125.632812 141.546875 C 125.632812 147.0625 121.683594 152.367188 113.785156 157.464844 L 113.785156 157.476562 C 114.003906 157.453125 114.246094 157.425781 114.515625 157.394531 C 126.8125 155.40625 136.367188 148.0625 143.175781 135.355469 C 143.238281 135.242188 143.332031 135.148438 143.714844 135.03125 L 143.5 135.082031 L 143.5 135.070312 C 143.960938 134.871094 144.546875 134.925781 145.265625 135.238281 L 145.289062 135.25 C 150.078125 137.597656 153.421875 139.011719 155.3125 139.488281 L 155.335938 139.496094 C 158.214844 140.335938 160.996094 140.792969 163.683594 140.859375 L 163.6875 140.859375 C 168.054688 140.984375 171.476562 140.269531 173.957031 138.707031 L 173.957031 138.695312 C 175.175781 137.574219 175.785156 136.527344 175.785156 135.546875 C 175.785156 134.902344 175.523438 134.292969 175 133.710938 C 174.914062 133.617188 174.824219 133.523438 174.726562 133.429688 L 174.726562 133.417969 C 173.558594 132.816406 172.605469 132.792969 171.867188 133.347656 C 171.234375 133.894531 170.917969 134.691406 170.917969 135.734375 C 170.917969 136.027344 170.941406 136.335938 170.992188 136.664062 C 170.996094 136.695312 170.996094 136.726562 170.996094 136.757812 C 170.996094 137.054688 170.78125 137.316406 170.476562 137.359375 C 170.140625 137.410156 169.832031 137.179688 169.78125 136.84375 C 169.722656 136.449219 169.691406 136.074219 169.691406 135.71875 C 169.691406 134.3125 170.148438 133.214844 171.066406 132.421875 L 171.089844 132.398438 C 172.257812 131.5 173.675781 131.484375 175.339844 132.359375 C 175.386719 132.382812 175.429688 132.414062 175.46875 132.449219 C 175.628906 132.597656 175.773438 132.742188 175.90625 132.890625 C 176.683594 133.753906 177.074219 134.644531 177.074219 135.5625 C 177.074219 136.878906 176.28125 138.25 174.695312 139.679688 L 174.609375 139.746094 C 171.917969 141.4375 168.265625 142.214844 163.652344 142.082031 C 160.867188 142.011719 157.984375 141.542969 155.011719 140.675781 C 153.042969 140.175781 149.628906 138.738281 144.777344 136.359375 C 144.496094 136.238281 144.28125 136.175781 144.132812 136.167969 L 144.132812 136.15625 C 137.136719 149.089844 127.320312 156.570312 114.6875 158.605469 L 114.664062 158.609375 C 113.285156 158.777344 112.394531 158.796875 111.992188 158.671875 C 111.847656 158.625 111.730469 158.558594 111.632812 158.46875 C 111.464844 158.304688 111.378906 158.132812 111.378906 157.957031 C 111.378906 157.773438 111.46875 157.582031 111.652344 157.386719 C 111.65625 157.378906 111.660156 157.375 111.667969 157.367188 C 111.703125 157.328125 111.746094 157.296875 111.789062 157.269531 C 120.203125 152.152344 124.410156 146.910156 124.410156 141.546875 C 124.410156 141.496094 124.410156 141.445312 124.410156 141.394531 L 124.410156 141.382812 C 123.730469 138.425781 121.886719 136.652344 118.878906 136.0625 L 118.878906 136.054688 C 115.507812 135.984375 113.320312 137.226562 112.316406 139.78125 L 112.316406 139.769531 C 112.253906 140.042969 112.222656 140.304688 112.222656 140.554688 C 112.222656 141.578125 112.746094 142.378906 113.792969 142.953125 L 113.792969 142.945312 C 115.390625 143.535156 116.863281 143.351562 118.214844 142.398438 C 118.492188 142.203125 118.875 142.269531 119.066406 142.546875 C 119.144531 142.652344 119.179688 142.777344 119.179688 142.898438 C 119.179688 143.089844 119.089844 143.28125 118.921875 143.398438 C 117.191406 144.617188 115.3125 144.839844 113.28125 144.058594 L 113.207031 144.023438 C 111.726562 143.214844 110.988281 142.082031 110.988281 140.628906 Z M 110.988281 140.628906 " fill-opacity="0.996" fill-rule="nonzero"/></g><g clip-path="url(#850b3ae687)"><path fill="#757575" d="M 258 157.390625 C 258 157.136719 257.835938 156.894531 257.578125 156.8125 C 251.730469 154.898438 247.554688 152.636719 245.042969 150.027344 L 245.011719 149.996094 C 242.691406 147.910156 240.082031 143.503906 237.175781 136.777344 C 237.132812 136.679688 237.066406 136.597656 236.984375 136.53125 C 236.824219 136.410156 236.628906 136.355469 236.398438 136.367188 L 236.394531 136.367188 C 236.113281 136.378906 235.722656 136.511719 235.226562 136.757812 L 235.183594 136.78125 C 229.894531 139.976562 225.789062 142.136719 222.859375 143.261719 C 218.765625 144.832031 214.953125 145.867188 211.417969 146.367188 L 211.40625 146.367188 C 204.664062 147.460938 198.273438 146.269531 192.238281 142.792969 L 192.226562 142.789062 C 186.074219 139.402344 182.324219 135.300781 180.972656 130.484375 L 180.957031 130.4375 C 180.726562 129.820312 180.613281 129.167969 180.613281 128.484375 C 180.613281 125.835938 182.335938 122.699219 185.78125 119.074219 C 185.894531 118.957031 185.953125 118.804688 185.953125 118.65625 C 185.953125 118.492188 185.886719 118.332031 185.761719 118.210938 C 185.515625 117.976562 185.128906 117.988281 184.898438 118.234375 C 181.222656 122.09375 179.386719 125.511719 179.386719 128.492188 C 179.386719 129.300781 179.523438 130.078125 179.792969 130.820312 L 179.792969 130.816406 C 181.238281 135.957031 185.179688 140.304688 191.628906 143.855469 C 197.914062 147.472656 204.566406 148.714844 211.589844 147.578125 C 215.214844 147.066406 219.117188 146.007812 223.296875 144.40625 C 226.285156 143.257812 230.445312 141.074219 235.773438 137.855469 L 235.773438 137.851562 C 235.953125 137.761719 236.101562 137.695312 236.21875 137.652344 L 236.21875 137.640625 C 239.113281 144.289062 241.761719 148.699219 244.160156 150.875 C 246.8125 153.632812 251.160156 156 257.199219 157.972656 C 257.519531 158.078125 257.863281 157.902344 257.96875 157.582031 C 257.988281 157.519531 258 157.457031 258 157.390625 Z M 258 157.390625 " fill-opacity="0.996" fill-rule="nonzero"/></g><g clip-path="url(#6a11d05ffb)"><path fill="#757575" d="M 112.960938 157.390625 C 112.960938 157.136719 113.125 156.894531 113.382812 156.8125 C 119.226562 154.898438 123.40625 152.636719 125.917969 150.027344 L 125.949219 149.996094 C 128.269531 147.910156 130.878906 143.503906 133.785156 136.777344 C 133.824219 136.679688 133.894531 136.597656 133.976562 136.53125 C 134.136719 136.410156 134.332031 136.355469 134.5625 136.367188 C 134.847656 136.378906 135.238281 136.511719 135.734375 136.757812 L 135.777344 136.78125 C 141.066406 139.976562 145.171875 142.136719 148.101562 143.261719 C 152.195312 144.832031 156.007812 145.867188 159.542969 146.367188 L 159.554688 146.367188 C 166.296875 147.460938 172.683594 146.269531 178.722656 142.792969 L 178.730469 142.789062 C 184.886719 139.402344 188.636719 135.300781 189.988281 130.484375 L 190.003906 130.4375 C 190.234375 129.820312 190.347656 129.167969 190.347656 128.484375 C 190.347656 125.835938 188.625 122.699219 185.175781 119.074219 C 185.066406 118.957031 185.007812 118.804688 185.007812 118.65625 C 185.007812 118.492188 185.074219 118.332031 185.199219 118.210938 C 185.445312 117.976562 185.832031 117.988281 186.0625 118.234375 C 189.738281 122.09375 191.574219 125.511719 191.574219 128.492188 C 191.574219 129.300781 191.4375 130.078125 191.167969 130.820312 L 191.167969 130.816406 C 189.722656 135.957031 185.777344 140.304688 179.332031 143.855469 C 173.046875 147.472656 166.394531 148.714844 159.371094 147.578125 C 155.746094 147.066406 151.84375 146.007812 147.664062 144.40625 C 144.675781 143.257812 140.515625 141.074219 135.1875 137.855469 L 135.1875 137.851562 C 135.007812 137.761719 134.859375 137.695312 134.742188 137.652344 L 134.742188 137.640625 C 131.847656 144.289062 129.199219 148.699219 126.800781 150.875 C 124.148438 153.632812 119.800781 156 113.761719 157.972656 C 113.441406 158.078125 113.097656 157.902344 112.992188 157.582031 C 112.96875 157.519531 112.960938 157.457031 112.960938 157.390625 Z M 112.960938 157.390625 " fill-opacity="0.996" fill-rule="nonzero"/></g><g fill="#757575" fill-opacity="1"><g transform="translate(59.478414, 196.925085)"><g><path d="M 37.6875 11.984375 C 37.238281 12.023438 36.816406 12.050781 36.421875 12.0625 C 36.023438 12.082031 35.609375 12.09375 35.171875 12.09375 C 32.128906 12.09375 29.488281 11.375 27.25 9.9375 C 25.019531 8.5 23.035156 6.632812 21.296875 4.34375 C 19.554688 2.050781 18.003906 -0.539062 16.640625 -3.4375 C 15.285156 -6.332031 13.988281 -9.25 12.75 -12.1875 C 11.519531 -15.125 10.273438 -17.929688 9.015625 -20.609375 C 7.753906 -23.285156 6.367188 -25.5625 4.859375 -27.4375 L 4.859375 -4.4375 C 4.859375 -3.28125 5.175781 -2.332031 5.8125 -1.59375 C 6.445312 -0.851562 7.285156 -0.320312 8.328125 0 L 1.078125 0 C 3.273438 -0.675781 4.375 -2.15625 4.375 -4.4375 L 4.375 -27.96875 C 2.976562 -29.65625 1.300781 -31.085938 -0.65625 -32.265625 C -2.613281 -33.441406 -4.710938 -34.03125 -6.953125 -34.03125 C -7.828125 -34.03125 -8.679688 -33.957031 -9.515625 -33.8125 C -10.359375 -33.675781 -11.179688 -33.507812 -11.984375 -33.3125 L -12.15625 -33.734375 C -10.238281 -34.285156 -8.300781 -34.5625 -6.34375 -34.5625 C -3.832031 -34.5625 -1.5625 -34.125 0.46875 -33.25 C 2.507812 -32.375 4.359375 -31.195312 6.015625 -29.71875 C 7.671875 -28.238281 9.148438 -26.53125 10.453125 -24.59375 C 11.753906 -22.65625 12.929688 -20.628906 13.984375 -18.515625 C 15.046875 -16.398438 16.023438 -14.257812 16.921875 -12.09375 C 17.816406 -9.9375 18.664062 -7.898438 19.46875 -5.984375 L 30.078125 -29.359375 L 35.46875 -29.359375 C 34.625 -29.117188 34.050781 -28.644531 33.75 -27.9375 C 33.457031 -27.238281 33.3125 -26.492188 33.3125 -25.703125 L 33.3125 -3.828125 C 33.3125 -3.035156 33.445312 -2.269531 33.71875 -1.53125 C 34 -0.789062 34.582031 -0.28125 35.46875 0 L 27.5 0 C 28.375 -0.238281 28.953125 -0.738281 29.234375 -1.5 C 29.515625 -2.257812 29.65625 -3.035156 29.65625 -3.828125 L 29.65625 -27.4375 L 19.703125 -5.453125 C 20.347656 -3.816406 21.109375 -2.007812 21.984375 -0.03125 C 22.859375 1.945312 23.894531 3.796875 25.09375 5.515625 C 26.289062 7.234375 27.695312 8.671875 29.3125 9.828125 C 30.9375 10.984375 32.785156 11.5625 34.859375 11.5625 C 35.335938 11.5625 35.804688 11.550781 36.265625 11.53125 C 36.734375 11.507812 37.1875 11.457031 37.625 11.375 Z M 37.6875 11.984375 "/></g></g></g><g fill="#757575" fill-opacity="1"><g transform="translate(92.66606, 196.925085)"><g><path d="M 24.375 -10 C 24.375 -6.769531 23.613281 -4.242188 22.09375 -2.421875 C 20.582031 -0.609375 18.128906 0.296875 14.734375 0.296875 C 11.296875 0.296875 8.6875 -0.597656 6.90625 -2.390625 C 5.132812 -4.191406 4.25 -6.828125 4.25 -10.296875 L 4.25 -25.703125 C 4.25 -26.492188 4.109375 -27.238281 3.828125 -27.9375 C 3.554688 -28.644531 2.976562 -29.117188 2.09375 -29.359375 L 10 -29.359375 C 9.164062 -29.117188 8.609375 -28.644531 8.328125 -27.9375 C 8.046875 -27.238281 7.90625 -26.492188 7.90625 -25.703125 L 7.90625 -10.65625 C 7.90625 -9.382812 8.054688 -8.160156 8.359375 -6.984375 C 8.660156 -5.804688 9.140625 -4.765625 9.796875 -3.859375 C 10.453125 -2.960938 11.289062 -2.242188 12.3125 -1.703125 C 13.332031 -1.171875 14.5625 -0.90625 16 -0.90625 C 17.394531 -0.90625 18.59375 -1.144531 19.59375 -1.625 C 20.59375 -2.101562 21.410156 -2.75 22.046875 -3.5625 C 22.679688 -4.382812 23.148438 -5.351562 23.453125 -6.46875 C 23.753906 -7.582031 23.90625 -8.78125 23.90625 -10.0625 L 23.90625 -24.984375 C 23.90625 -27.210938 22.804688 -28.671875 20.609375 -29.359375 L 27.609375 -29.359375 C 25.453125 -28.671875 24.375 -27.210938 24.375 -24.984375 Z M 24.375 -10 "/></g></g></g><g fill="#757575" fill-opacity="1"><g transform="translate(119.264028, 196.925085)"><g><path d="M 22.171875 -7.3125 C 22.171875 -5.945312 21.878906 -4.773438 21.296875 -3.796875 C 20.710938 -2.828125 19.960938 -2.03125 19.046875 -1.40625 C 18.128906 -0.789062 17.09375 -0.34375 15.9375 -0.0625 C 14.78125 0.21875 13.601562 0.359375 12.40625 0.359375 C 11.644531 0.359375 10.90625 0.257812 10.1875 0.0625 C 9.46875 -0.132812 8.773438 -0.34375 8.109375 -0.5625 C 7.453125 -0.789062 6.804688 -1.003906 6.171875 -1.203125 C 5.535156 -1.398438 4.894531 -1.5 4.25 -1.5 C 3.8125 -1.5 3.390625 -1.378906 2.984375 -1.140625 C 2.585938 -0.898438 2.269531 -0.597656 2.03125 -0.234375 L 2.03125 -9.28125 C 2.394531 -8.25 2.90625 -7.191406 3.5625 -6.109375 C 4.21875 -5.035156 4.992188 -4.066406 5.890625 -3.203125 C 6.796875 -2.347656 7.796875 -1.640625 8.890625 -1.078125 C 9.992188 -0.515625 11.144531 -0.234375 12.34375 -0.234375 C 13.175781 -0.234375 14.03125 -0.320312 14.90625 -0.5 C 15.789062 -0.6875 16.582031 -0.988281 17.28125 -1.40625 C 17.976562 -1.820312 18.554688 -2.378906 19.015625 -3.078125 C 19.472656 -3.785156 19.703125 -4.632812 19.703125 -5.625 C 19.703125 -6.863281 19.28125 -7.890625 18.4375 -8.703125 C 17.601562 -9.523438 16.554688 -10.273438 15.296875 -10.953125 C 14.046875 -11.640625 12.679688 -12.289062 11.203125 -12.90625 C 9.722656 -13.53125 8.351562 -14.25 7.09375 -15.0625 C 5.84375 -15.882812 4.796875 -16.863281 3.953125 -18 C 3.117188 -19.132812 2.703125 -20.539062 2.703125 -22.21875 C 2.703125 -23.5 2.945312 -24.617188 3.4375 -25.578125 C 3.9375 -26.535156 4.597656 -27.34375 5.421875 -28 C 6.242188 -28.664062 7.191406 -29.15625 8.265625 -29.46875 C 9.347656 -29.789062 10.488281 -29.953125 11.6875 -29.953125 C 12.476562 -29.953125 13.234375 -29.84375 13.953125 -29.625 C 14.671875 -29.40625 15.335938 -29.164062 15.953125 -28.90625 C 16.578125 -28.644531 17.148438 -28.40625 17.671875 -28.1875 C 18.191406 -27.96875 18.628906 -27.859375 18.984375 -27.859375 C 19.546875 -27.859375 19.984375 -28.023438 20.296875 -28.359375 C 20.617188 -28.703125 20.863281 -29.09375 21.03125 -29.53125 C 20.988281 -28.289062 20.90625 -27.0625 20.78125 -25.84375 C 20.664062 -24.625 20.609375 -23.398438 20.609375 -22.171875 C 20.328125 -23.128906 19.882812 -24.046875 19.28125 -24.921875 C 18.6875 -25.796875 17.988281 -26.570312 17.1875 -27.25 C 16.394531 -27.9375 15.519531 -28.488281 14.5625 -28.90625 C 13.601562 -29.320312 12.601562 -29.53125 11.5625 -29.53125 C 10.757812 -29.53125 9.96875 -29.421875 9.1875 -29.203125 C 8.414062 -28.984375 7.726562 -28.660156 7.125 -28.234375 C 6.53125 -27.816406 6.039062 -27.28125 5.65625 -26.625 C 5.28125 -25.96875 5.09375 -25.203125 5.09375 -24.328125 C 5.09375 -23.046875 5.507812 -21.972656 6.34375 -21.109375 C 7.1875 -20.253906 8.242188 -19.46875 9.515625 -18.75 C 10.796875 -18.03125 12.164062 -17.347656 13.625 -16.703125 C 15.082031 -16.066406 16.453125 -15.328125 17.734375 -14.484375 C 19.015625 -13.648438 20.070312 -12.664062 20.90625 -11.53125 C 21.75 -10.394531 22.171875 -8.988281 22.171875 -7.3125 Z M 22.171875 -7.3125 "/></g></g></g><g fill="#757575" fill-opacity="1"><g transform="translate(140.290713, 196.925085)"><g><path d="M 13.59375 -0.484375 C 15.476562 -0.484375 17.316406 -0.921875 19.109375 -1.796875 C 20.910156 -2.671875 22.269531 -3.96875 23.1875 -5.6875 L 21.8125 0 L 2.09375 0 C 2.976562 -0.28125 3.554688 -0.789062 3.828125 -1.53125 C 4.109375 -2.269531 4.25 -3.035156 4.25 -3.828125 L 4.25 -25.703125 C 4.25 -26.492188 4.109375 -27.238281 3.828125 -27.9375 C 3.554688 -28.644531 2.976562 -29.117188 2.09375 -29.359375 L 21.390625 -29.359375 L 22.578125 -23.71875 C 21.660156 -25.476562 20.429688 -26.773438 18.890625 -27.609375 C 17.359375 -28.453125 15.613281 -28.875 13.65625 -28.875 L 7.90625 -28.875 L 7.90625 -15.15625 L 11.625 -15.15625 C 12.695312 -15.15625 13.691406 -15.382812 14.609375 -15.84375 C 15.535156 -16.300781 16.15625 -17.109375 16.46875 -18.265625 L 16.46875 -11.6875 C 16.15625 -12.84375 15.535156 -13.628906 14.609375 -14.046875 C 13.691406 -14.460938 12.695312 -14.671875 11.625 -14.671875 L 7.90625 -14.671875 L 7.90625 -0.484375 Z M 13.59375 -0.484375 "/></g></g></g><g fill="#757575" fill-opacity="1"><g transform="translate(162.755144, 196.925085)"><g/></g></g><g fill="#757575" fill-opacity="1"><g transform="translate(174.556268, 196.925085)"><g><path d="M 28.09375 -2.03125 C 28.09375 -0.0390625 27.769531 1.769531 27.125 3.40625 C 26.488281 5.050781 25.582031 6.453125 24.40625 7.609375 C 23.226562 8.765625 21.820312 9.660156 20.1875 10.296875 C 18.550781 10.941406 16.734375 11.265625 14.734375 11.265625 C 12.941406 11.265625 11.222656 10.984375 9.578125 10.421875 C 7.941406 9.859375 6.503906 9.046875 5.265625 7.984375 C 4.035156 6.929688 3.050781 5.644531 2.3125 4.125 C 1.570312 2.613281 1.203125 0.898438 1.203125 -1.015625 C 1.203125 -2.859375 1.519531 -4.4375 2.15625 -5.75 C 2.789062 -7.070312 3.65625 -8.160156 4.75 -9.015625 C 5.851562 -9.867188 7.144531 -10.503906 8.625 -10.921875 C 10.101562 -11.347656 11.679688 -11.5625 13.359375 -11.5625 L 13.359375 -11.328125 C 11.921875 -11.242188 10.59375 -10.890625 9.375 -10.265625 C 8.15625 -9.648438 7.113281 -8.84375 6.25 -7.84375 C 5.394531 -6.84375 4.726562 -5.703125 4.25 -4.421875 C 3.769531 -3.148438 3.53125 -1.796875 3.53125 -0.359375 C 3.53125 1.273438 3.800781 2.757812 4.34375 4.09375 C 4.882812 5.4375 5.632812 6.585938 6.59375 7.546875 C 7.550781 8.503906 8.707031 9.242188 10.0625 9.765625 C 11.414062 10.285156 12.914062 10.546875 14.5625 10.546875 C 17.789062 10.546875 20.3125 9.597656 22.125 7.703125 C 23.945312 5.804688 24.859375 3.238281 24.859375 0 C 24.859375 -1.71875 24.46875 -3.285156 23.6875 -4.703125 C 22.914062 -6.117188 21.9375 -7.457031 20.75 -8.71875 C 19.570312 -9.976562 18.296875 -11.1875 16.921875 -12.34375 C 15.546875 -13.5 14.269531 -14.65625 13.09375 -15.8125 C 11.914062 -16.96875 10.9375 -18.164062 10.15625 -19.40625 C 9.375 -20.644531 8.984375 -21.984375 8.984375 -23.421875 C 8.984375 -24.460938 9.171875 -25.398438 9.546875 -26.234375 C 9.929688 -27.078125 10.453125 -27.773438 11.109375 -28.328125 C 11.765625 -28.890625 12.53125 -29.320312 13.40625 -29.625 C 14.289062 -29.925781 15.234375 -30.078125 16.234375 -30.078125 C 16.628906 -30.078125 17.015625 -30.035156 17.390625 -29.953125 C 17.773438 -29.867188 18.148438 -29.789062 18.515625 -29.71875 L 20.015625 -29.234375 C 20.804688 -28.992188 21.5625 -28.875 22.28125 -28.875 C 22.84375 -28.875 23.285156 -29.09375 23.609375 -29.53125 L 23.1875 -22.578125 C 23.019531 -23.378906 22.738281 -24.195312 22.34375 -25.03125 C 21.945312 -25.875 21.4375 -26.632812 20.8125 -27.3125 C 20.195312 -27.988281 19.5 -28.554688 18.71875 -29.015625 C 17.9375 -29.484375 17.085938 -29.71875 16.171875 -29.71875 C 14.691406 -29.71875 13.421875 -29.316406 12.359375 -28.515625 C 11.304688 -27.710938 10.78125 -26.515625 10.78125 -24.921875 C 10.78125 -23.679688 11.207031 -22.492188 12.0625 -21.359375 C 12.925781 -20.222656 13.992188 -19.101562 15.265625 -18 C 16.546875 -16.90625 17.9375 -15.785156 19.4375 -14.640625 C 20.9375 -13.503906 22.320312 -12.296875 23.59375 -11.015625 C 24.875 -9.742188 25.941406 -8.367188 26.796875 -6.890625 C 27.660156 -5.410156 28.09375 -3.789062 28.09375 -2.03125 Z M 28.09375 -2.03125 "/></g></g></g><g fill="#757575" fill-opacity="1"><g transform="translate(201.453761, 196.925085)"><g><path d="M 16.109375 -3.828125 C 16.109375 -3.035156 16.25 -2.269531 16.53125 -1.53125 C 16.8125 -0.789062 17.390625 -0.28125 18.265625 0 L 10.296875 0 C 11.222656 -0.28125 11.8125 -0.78125 12.0625 -1.5 C 12.320312 -2.21875 12.453125 -2.992188 12.453125 -3.828125 L 12.515625 -28.6875 L 9.703125 -28.6875 C 8.109375 -28.6875 6.640625 -28.265625 5.296875 -27.421875 C 3.960938 -26.585938 2.914062 -25.472656 2.15625 -24.078125 L 3.171875 -29.359375 L 25.40625 -29.359375 L 26.484375 -24.140625 C 25.722656 -25.460938 24.660156 -26.550781 23.296875 -27.40625 C 21.941406 -28.257812 20.488281 -28.6875 18.9375 -28.6875 L 16.109375 -28.6875 Z M 16.109375 -3.828125 "/></g></g></g><g fill="#757575" fill-opacity="1"><g transform="translate(227.213037, 196.925085)"><g><path d="M 24.375 -10 C 24.375 -6.769531 23.613281 -4.242188 22.09375 -2.421875 C 20.582031 -0.609375 18.128906 0.296875 14.734375 0.296875 C 11.296875 0.296875 8.6875 -0.597656 6.90625 -2.390625 C 5.132812 -4.191406 4.25 -6.828125 4.25 -10.296875 L 4.25 -25.703125 C 4.25 -26.492188 4.109375 -27.238281 3.828125 -27.9375 C 3.554688 -28.644531 2.976562 -29.117188 2.09375 -29.359375 L 10 -29.359375 C 9.164062 -29.117188 8.609375 -28.644531 8.328125 -27.9375 C 8.046875 -27.238281 7.90625 -26.492188 7.90625 -25.703125 L 7.90625 -10.65625 C 7.90625 -9.382812 8.054688 -8.160156 8.359375 -6.984375 C 8.660156 -5.804688 9.140625 -4.765625 9.796875 -3.859375 C 10.453125 -2.960938 11.289062 -2.242188 12.3125 -1.703125 C 13.332031 -1.171875 14.5625 -0.90625 16 -0.90625 C 17.394531 -0.90625 18.59375 -1.144531 19.59375 -1.625 C 20.59375 -2.101562 21.410156 -2.75 22.046875 -3.5625 C 22.679688 -4.382812 23.148438 -5.351562 23.453125 -6.46875 C 23.753906 -7.582031 23.90625 -8.78125 23.90625 -10.0625 L 23.90625 -24.984375 C 23.90625 -27.210938 22.804688 -28.671875 20.609375 -29.359375 L 27.609375 -29.359375 C 25.453125 -28.671875 24.375 -27.210938 24.375 -24.984375 Z M 24.375 -10 "/></g></g></g><g fill="#757575" fill-opacity="1"><g transform="translate(253.811004, 196.925085)"><g><path d="M 28.28125 -14.671875 C 28.28125 -12.679688 27.925781 -10.796875 27.21875 -9.015625 C 26.519531 -7.234375 25.550781 -5.675781 24.3125 -4.34375 C 23.082031 -3.007812 21.609375 -1.953125 19.890625 -1.171875 C 18.171875 -0.390625 16.289062 0 14.25 0 L 2.09375 0 C 2.976562 -0.238281 3.554688 -0.71875 3.828125 -1.4375 C 4.109375 -2.15625 4.25 -2.914062 4.25 -3.71875 L 4.25 -25.640625 C 4.25 -26.441406 4.097656 -27.203125 3.796875 -27.921875 C 3.503906 -28.640625 2.9375 -29.117188 2.09375 -29.359375 L 13.78125 -29.359375 C 15.8125 -29.359375 17.707031 -28.96875 19.46875 -28.1875 C 21.226562 -27.40625 22.753906 -26.34375 24.046875 -25 C 25.347656 -23.664062 26.378906 -22.109375 27.140625 -20.328125 C 27.898438 -18.554688 28.28125 -16.671875 28.28125 -14.671875 Z M 7.90625 -0.546875 L 10.71875 -0.546875 C 12.875 -0.546875 14.800781 -0.882812 16.5 -1.5625 C 18.195312 -2.238281 19.625 -3.195312 20.78125 -4.4375 C 21.945312 -5.675781 22.828125 -7.160156 23.421875 -8.890625 C 24.023438 -10.628906 24.328125 -12.554688 24.328125 -14.671875 C 24.328125 -16.796875 24.023438 -18.734375 23.421875 -20.484375 C 22.828125 -22.242188 21.945312 -23.742188 20.78125 -24.984375 C 19.625 -26.222656 18.195312 -27.179688 16.5 -27.859375 C 14.800781 -28.535156 12.875 -28.875 10.71875 -28.875 L 7.90625 -28.875 Z M 7.90625 -0.546875 "/></g></g></g><g fill="#757575" fill-opacity="1"><g transform="translate(281.367483, 196.925085)"><g><path d="M 7.90625 -3.828125 C 7.90625 -3.035156 8.046875 -2.269531 8.328125 -1.53125 C 8.609375 -0.789062 9.164062 -0.28125 10 0 L 2.09375 0 C 2.976562 -0.28125 3.554688 -0.78125 3.828125 -1.5 C 4.109375 -2.21875 4.25 -2.992188 4.25 -3.828125 L 4.25 -25.703125 C 4.25 -26.492188 4.109375 -27.226562 3.828125 -27.90625 C 3.554688 -28.59375 2.976562 -29.078125 2.09375 -29.359375 L 10 -29.359375 C 9.164062 -29.078125 8.609375 -28.59375 8.328125 -27.90625 C 8.046875 -27.226562 7.90625 -26.492188 7.90625 -25.703125 Z M 7.90625 -3.828125 "/></g></g></g><g fill="#757575" fill-opacity="1"><g transform="translate(290.652532, 196.925085)"><g><path d="M 31.75 -14.671875 C 31.75 -12.640625 31.359375 -10.722656 30.578125 -8.921875 C 29.796875 -7.128906 28.738281 -5.5625 27.40625 -4.21875 C 26.070312 -2.882812 24.503906 -1.828125 22.703125 -1.046875 C 20.910156 -0.265625 18.992188 0.125 16.953125 0.125 C 14.910156 0.125 12.988281 -0.265625 11.1875 -1.046875 C 9.394531 -1.828125 7.832031 -2.882812 6.5 -4.21875 C 5.164062 -5.5625 4.109375 -7.128906 3.328125 -8.921875 C 2.546875 -10.722656 2.15625 -12.640625 2.15625 -14.671875 C 2.15625 -16.710938 2.546875 -18.628906 3.328125 -20.421875 C 4.109375 -22.222656 5.164062 -23.789062 6.5 -25.125 C 7.832031 -26.46875 9.394531 -27.523438 11.1875 -28.296875 C 12.988281 -29.078125 14.910156 -29.46875 16.953125 -29.46875 C 18.992188 -29.46875 20.910156 -29.078125 22.703125 -28.296875 C 24.503906 -27.523438 26.070312 -26.46875 27.40625 -25.125 C 28.738281 -23.789062 29.796875 -22.222656 30.578125 -20.421875 C 31.359375 -18.628906 31.75 -16.710938 31.75 -14.671875 Z M 6.296875 -15.390625 C 6.296875 -13.835938 6.550781 -12.171875 7.0625 -10.390625 C 7.582031 -8.617188 8.332031 -6.984375 9.3125 -5.484375 C 10.289062 -3.984375 11.488281 -2.742188 12.90625 -1.765625 C 14.320312 -0.785156 15.929688 -0.296875 17.734375 -0.296875 C 19.410156 -0.296875 20.882812 -0.734375 22.15625 -1.609375 C 23.4375 -2.492188 24.492188 -3.613281 25.328125 -4.96875 C 26.171875 -6.332031 26.800781 -7.8125 27.21875 -9.40625 C 27.644531 -11 27.859375 -12.515625 27.859375 -13.953125 C 27.859375 -15.597656 27.609375 -17.296875 27.109375 -19.046875 C 26.609375 -20.804688 25.859375 -22.425781 24.859375 -23.90625 C 23.859375 -25.382812 22.648438 -26.601562 21.234375 -27.5625 C 19.816406 -28.519531 18.171875 -29 16.296875 -29 C 14.617188 -29 13.160156 -28.554688 11.921875 -27.671875 C 10.679688 -26.796875 9.640625 -25.675781 8.796875 -24.3125 C 7.960938 -22.957031 7.335938 -21.488281 6.921875 -19.90625 C 6.503906 -18.332031 6.296875 -16.828125 6.296875 -15.390625 Z M 6.296875 -15.390625 "/></g></g></g><g fill="#757575" fill-opacity="1"><g transform="translate(293.7172, 209.398485)"><g><path d="M 4.65625 -0.828125 L 4.65625 0 L 0.703125 0 L 0.703125 -5.265625 L 4.5625 -5.265625 L 4.5625 -4.453125 L 1.6875 -4.453125 L 1.6875 -3.078125 L 4.234375 -3.078125 L 4.234375 -2.28125 L 1.6875 -2.28125 L 1.6875 -0.828125 Z M 4.65625 -0.828125 "/></g></g></g><g fill="#757575" fill-opacity="1"><g transform="translate(298.200007, 209.398485)"><g><path d="M 2.34375 0.078125 C 1.9375 0.078125 1.539062 0.0195312 1.15625 -0.09375 C 0.78125 -0.207031 0.484375 -0.363281 0.265625 -0.5625 L 0.609375 -1.3125 C 0.816406 -1.144531 1.078125 -1.003906 1.390625 -0.890625 C 1.710938 -0.785156 2.03125 -0.734375 2.34375 -0.734375 C 2.726562 -0.734375 3.019531 -0.796875 3.21875 -0.921875 C 3.414062 -1.046875 3.515625 -1.210938 3.515625 -1.421875 C 3.515625 -1.578125 3.457031 -1.703125 3.34375 -1.796875 C 3.238281 -1.890625 3.101562 -1.960938 2.9375 -2.015625 C 2.769531 -2.078125 2.546875 -2.144531 2.265625 -2.21875 C 1.859375 -2.3125 1.53125 -2.40625 1.28125 -2.5 C 1.03125 -2.59375 0.816406 -2.738281 0.640625 -2.9375 C 0.460938 -3.144531 0.375 -3.421875 0.375 -3.765625 C 0.375 -4.054688 0.453125 -4.320312 0.609375 -4.5625 C 0.765625 -4.800781 1.003906 -4.988281 1.328125 -5.125 C 1.648438 -5.269531 2.039062 -5.34375 2.5 -5.34375 C 2.820312 -5.34375 3.140625 -5.300781 3.453125 -5.21875 C 3.765625 -5.144531 4.03125 -5.03125 4.25 -4.875 L 3.953125 -4.125 C 3.710938 -4.257812 3.46875 -4.359375 3.21875 -4.421875 C 2.96875 -4.492188 2.726562 -4.53125 2.5 -4.53125 C 2.101562 -4.53125 1.8125 -4.460938 1.625 -4.328125 C 1.4375 -4.203125 1.34375 -4.03125 1.34375 -3.8125 C 1.34375 -3.664062 1.394531 -3.546875 1.5 -3.453125 C 1.613281 -3.359375 1.753906 -3.28125 1.921875 -3.21875 C 2.085938 -3.164062 2.3125 -3.101562 2.59375 -3.03125 C 2.988281 -2.945312 3.3125 -2.851562 3.5625 -2.75 C 3.8125 -2.65625 4.023438 -2.503906 4.203125 -2.296875 C 4.378906 -2.097656 4.46875 -1.828125 4.46875 -1.484375 C 4.46875 -1.191406 4.390625 -0.925781 4.234375 -0.6875 C 4.078125 -0.457031 3.835938 -0.269531 3.515625 -0.125 C 3.191406 0.0078125 2.800781 0.078125 2.34375 0.078125 Z M 2.34375 0.078125 "/></g></g></g><g fill="#757575" fill-opacity="1"><g transform="translate(302.373914, 209.398485)"><g><path d="M 1.78125 -4.4375 L 0.03125 -4.4375 L 0.03125 -5.265625 L 4.5 -5.265625 L 4.5 -4.4375 L 2.75 -4.4375 L 2.75 0 L 1.78125 0 Z M 1.78125 -4.4375 "/></g></g></g><g fill="#757575" fill-opacity="1"><g transform="translate(306.344398, 209.398485)"><g><path d="M 0.921875 0.046875 C 0.742188 0.046875 0.59375 -0.0078125 0.46875 -0.125 C 0.351562 -0.238281 0.296875 -0.390625 0.296875 -0.578125 C 0.296875 -0.753906 0.351562 -0.898438 0.46875 -1.015625 C 0.59375 -1.140625 0.742188 -1.203125 0.921875 -1.203125 C 1.097656 -1.203125 1.242188 -1.140625 1.359375 -1.015625 C 1.472656 -0.898438 1.53125 -0.753906 1.53125 -0.578125 C 1.53125 -0.390625 1.46875 -0.238281 1.34375 -0.125 C 1.226562 -0.0078125 1.085938 0.046875 0.921875 0.046875 Z M 0.921875 0.046875 "/></g></g></g><g fill="#757575" fill-opacity="1"><g transform="translate(307.617672, 209.398485)"><g/></g></g><g fill="#757575" fill-opacity="1"><g transform="translate(309.132038, 209.398485)"><g><path d="M 4.15625 -0.828125 L 4.15625 0 L 0.265625 0 L 0.265625 -0.65625 L 2.359375 -2.640625 C 2.597656 -2.867188 2.753906 -3.066406 2.828125 -3.234375 C 2.910156 -3.398438 2.953125 -3.566406 2.953125 -3.734375 C 2.953125 -3.984375 2.867188 -4.171875 2.703125 -4.296875 C 2.546875 -4.429688 2.304688 -4.5 1.984375 -4.5 C 1.441406 -4.5 1.03125 -4.316406 0.75 -3.953125 L 0.0625 -4.46875 C 0.269531 -4.75 0.546875 -4.960938 0.890625 -5.109375 C 1.242188 -5.265625 1.632812 -5.34375 2.0625 -5.34375 C 2.632812 -5.34375 3.09375 -5.207031 3.4375 -4.9375 C 3.78125 -4.664062 3.953125 -4.296875 3.953125 -3.828125 C 3.953125 -3.546875 3.890625 -3.28125 3.765625 -3.03125 C 3.640625 -2.78125 3.410156 -2.492188 3.078125 -2.171875 L 1.671875 -0.828125 Z M 4.15625 -0.828125 "/></g></g></g><g fill="#757575" fill-opacity="1"><g transform="translate(312.951847, 209.398485)"><g><path d="M 2.53125 0.078125 C 2.101562 0.078125 1.722656 -0.0234375 1.390625 -0.234375 C 1.066406 -0.453125 0.804688 -0.765625 0.609375 -1.171875 C 0.421875 -1.585938 0.328125 -2.078125 0.328125 -2.640625 C 0.328125 -3.203125 0.421875 -3.6875 0.609375 -4.09375 C 0.804688 -4.5 1.066406 -4.804688 1.390625 -5.015625 C 1.722656 -5.234375 2.101562 -5.34375 2.53125 -5.34375 C 2.945312 -5.34375 3.320312 -5.234375 3.65625 -5.015625 C 4 -4.804688 4.265625 -4.5 4.453125 -4.09375 C 4.640625 -3.6875 4.734375 -3.203125 4.734375 -2.640625 C 4.734375 -2.078125 4.640625 -1.585938 4.453125 -1.171875 C 4.265625 -0.765625 4 -0.453125 3.65625 -0.234375 C 3.320312 -0.0234375 2.945312 0.078125 2.53125 0.078125 Z M 2.53125 -0.78125 C 2.90625 -0.78125 3.203125 -0.929688 3.421875 -1.234375 C 3.640625 -1.546875 3.75 -2.015625 3.75 -2.640625 C 3.75 -3.253906 3.640625 -3.71875 3.421875 -4.03125 C 3.203125 -4.34375 2.90625 -4.5 2.53125 -4.5 C 2.15625 -4.5 1.859375 -4.34375 1.640625 -4.03125 C 1.421875 -3.71875 1.3125 -3.253906 1.3125 -2.640625 C 1.3125 -2.015625 1.421875 -1.546875 1.640625 -1.234375 C 1.859375 -0.929688 2.15625 -0.78125 2.53125 -0.78125 Z M 2.53125 -0.78125 "/></g></g></g><g fill="#757575" fill-opacity="1"><g transform="translate(317.457254, 209.398485)"><g><path d="M 4.15625 -0.828125 L 4.15625 0 L 0.265625 0 L 0.265625 -0.65625 L 2.359375 -2.640625 C 2.597656 -2.867188 2.753906 -3.066406 2.828125 -3.234375 C 2.910156 -3.398438 2.953125 -3.566406 2.953125 -3.734375 C 2.953125 -3.984375 2.867188 -4.171875 2.703125 -4.296875 C 2.546875 -4.429688 2.304688 -4.5 1.984375 -4.5 C 1.441406 -4.5 1.03125 -4.316406 0.75 -3.953125 L 0.0625 -4.46875 C 0.269531 -4.75 0.546875 -4.960938 0.890625 -5.109375 C 1.242188 -5.265625 1.632812 -5.34375 2.0625 -5.34375 C 2.632812 -5.34375 3.09375 -5.207031 3.4375 -4.9375 C 3.78125 -4.664062 3.953125 -4.296875 3.953125 -3.828125 C 3.953125 -3.546875 3.890625 -3.28125 3.765625 -3.03125 C 3.640625 -2.78125 3.410156 -2.492188 3.078125 -2.171875 L 1.671875 -0.828125 Z M 4.15625 -0.828125 "/></g></g></g><g fill="#757575" fill-opacity="1"><g transform="translate(321.277062, 209.398485)"><g><path d="M 4.15625 -0.828125 L 4.15625 0 L 0.265625 0 L 0.265625 -0.65625 L 2.359375 -2.640625 C 2.597656 -2.867188 2.753906 -3.066406 2.828125 -3.234375 C 2.910156 -3.398438 2.953125 -3.566406 2.953125 -3.734375 C 2.953125 -3.984375 2.867188 -4.171875 2.703125 -4.296875 C 2.546875 -4.429688 2.304688 -4.5 1.984375 -4.5 C 1.441406 -4.5 1.03125 -4.316406 0.75 -3.953125 L 0.0625 -4.46875 C 0.269531 -4.75 0.546875 -4.960938 0.890625 -5.109375 C 1.242188 -5.265625 1.632812 -5.34375 2.0625 -5.34375 C 2.632812 -5.34375 3.09375 -5.207031 3.4375 -4.9375 C 3.78125 -4.664062 3.953125 -4.296875 3.953125 -3.828125 C 3.953125 -3.546875 3.890625 -3.28125 3.765625 -3.03125 C 3.640625 -2.78125 3.410156 -2.492188 3.078125 -2.171875 L 1.671875 -0.828125 Z M 4.15625 -0.828125 "/></g></g></g></svg>