<svg xmlns="http://www.w3.org/2000/svg" xmlns:xlink="http://www.w3.org/1999/xlink" width="500" zoomAndPan="magnify" viewBox="0 0 375 374.999991" height="500" preserveAspectRatio="xMidYMid meet" version="1.0"><defs><clipPath id="7939216d97"><path d="M 146.425781 176.824219 L 182.402344 176.824219 L 182.402344 214.40625 L 146.425781 214.40625 Z M 146.425781 176.824219 " clip-rule="nonzero"/></clipPath><clipPath id="11b763fe49"><path d="M 146.464844 210.453125 C 147.429688 208.417969 148.367188 206.441406 149.304688 204.480469 C 151.867188 205.265625 154.296875 206.390625 156.824219 206.691406 C 160.972656 207.183594 165.179688 207.203125 169.363281 207.28125 C 170.347656 207.300781 171.378906 206.832031 172.324219 206.4375 C 173.695312 205.863281 174.339844 204.777344 174.28125 203.242188 C 174.222656 201.753906 173.460938 200.710938 172.117188 200.40625 C 169.398438 199.789062 166.628906 199.371094 163.875 198.914062 C 160.753906 198.398438 157.578125 198.140625 154.507812 197.398438 C 149.757812 196.253906 147.261719 193.3125 147.011719 189.125 C 146.707031 184.058594 148.773438 180.609375 153.390625 178.753906 C 158.570312 176.671875 164.007812 176.714844 169.441406 177.105469 C 173.152344 177.367188 176.816406 177.960938 180.386719 179.707031 C 179.511719 181.785156 178.65625 183.828125 177.78125 185.910156 C 172.007812 183.71875 166.203125 183.027344 160.234375 183.894531 C 159.21875 184.039062 158.203125 184.328125 157.246094 184.699219 C 155.8125 185.253906 155.007812 186.308594 155.023438 187.925781 C 155.035156 189.523438 155.953125 190.488281 157.339844 190.835938 C 159.335938 191.335938 161.386719 191.640625 163.429688 191.933594 C 166.804688 192.417969 170.242188 192.59375 173.5625 193.320312 C 179.753906 194.675781 182.359375 197.714844 182.378906 203.003906 C 182.394531 208.382812 179.554688 212.023438 173.632812 213.3125 C 164.785156 215.238281 156.070312 214.464844 147.632812 211.085938 C 147.246094 210.933594 146.890625 210.695312 146.460938 210.460938 " clip-rule="nonzero"/></clipPath><clipPath id="d81aacd241"><path d="M 69.011719 176.824219 L 104.988281 176.824219 L 104.988281 214.40625 L 69.011719 214.40625 Z M 69.011719 176.824219 " clip-rule="nonzero"/></clipPath><clipPath id="558c6f9294"><path d="M 72.097656 204.296875 C 78.527344 207.210938 85.027344 208.128906 91.765625 207.332031 C 92.835938 207.203125 93.914062 206.871094 94.917969 206.460938 C 96.214844 205.929688 96.871094 204.855469 96.878906 203.429688 C 96.882812 201.988281 96.214844 200.804688 94.867188 200.480469 C 92.160156 199.820312 89.390625 199.386719 86.640625 198.921875 C 83.460938 198.386719 80.21875 198.144531 77.09375 197.390625 C 72.25 196.222656 69.886719 193.285156 69.601562 188.695312 C 69.320312 184.082031 71.601562 180.464844 76.0625 178.703125 C 81.066406 176.734375 86.3125 176.710938 91.574219 177.09375 C 95.402344 177.371094 99.195312 177.9375 102.957031 179.722656 C 102.070312 181.800781 101.199219 183.839844 100.261719 186.023438 C 95.699219 184.09375 90.972656 183.382812 86.140625 183.601562 C 84.097656 183.691406 82.046875 184.140625 80.054688 184.652344 C 78.507812 185.046875 77.574219 186.242188 77.613281 187.90625 C 77.648438 189.597656 78.691406 190.664062 80.277344 190.945312 C 83.328125 191.488281 86.414062 191.839844 89.476562 192.324219 C 92.296875 192.769531 95.171875 193.0625 97.910156 193.832031 C 102.4375 195.09375 104.820312 198.167969 104.964844 202.3125 C 105.136719 207.320312 103.070312 210.839844 98.5625 212.503906 C 96.308594 213.332031 93.871094 213.890625 91.476562 214.078125 C 84.421875 214.625 77.472656 214 70.808594 211.386719 C 70.25 211.171875 69.722656 210.882812 69.074219 210.574219 C 70.097656 208.457031 71.066406 206.445312 72.09375 204.300781 " clip-rule="nonzero"/></clipPath><clipPath id="b503228bb0"><path d="M 120.40625 177.628906 L 144.015625 177.628906 L 144.015625 213.605469 L 120.40625 213.605469 Z M 120.40625 177.628906 " clip-rule="nonzero"/></clipPath><clipPath id="72d9ecf630"><path d="M 128.449219 213.585938 L 120.5 213.585938 C 120.5 209.550781 120.46875 205.609375 120.535156 201.667969 C 120.546875 201.125 121.015625 200.566406 121.332031 200.050781 C 125.695312 192.933594 130.050781 185.808594 134.472656 178.722656 C 134.785156 178.222656 135.546875 177.734375 136.128906 177.707031 C 138.683594 177.597656 141.246094 177.660156 144.015625 177.660156 C 143.734375 178.195312 143.554688 178.617188 143.308594 178.992188 C 138.785156 185.9375 134.28125 192.898438 129.6875 199.804688 C 128.761719 201.199219 128.367188 202.578125 128.421875 204.234375 C 128.519531 207.277344 128.449219 210.324219 128.449219 213.585938 " clip-rule="nonzero"/></clipPath><clipPath id="6642287550"><path d="M 104.667969 177.628906 L 122.335938 177.628906 L 122.335938 198.347656 L 104.667969 198.347656 Z M 104.667969 177.628906 " clip-rule="nonzero"/></clipPath><clipPath id="fab0655b33"><path d="M 118.078125 198.277344 C 113.613281 191.375 109.296875 184.6875 104.769531 177.6875 C 107.902344 177.6875 110.777344 177.652344 113.652344 177.730469 C 113.988281 177.742188 114.382812 178.300781 114.625 178.6875 C 117.128906 182.652344 119.628906 186.617188 122.054688 190.628906 C 122.324219 191.078125 122.386719 191.957031 122.121094 192.375 C 120.902344 194.328125 119.53125 196.1875 118.078125 198.28125 " clip-rule="nonzero"/></clipPath><clipPath id="09134bd3a1"><path d="M 186.664062 178.160156 L 238 178.160156 L 238 213.609375 L 186.664062 213.609375 Z M 186.664062 178.160156 " clip-rule="nonzero"/></clipPath><clipPath id="2c2a12ec62"><path d="M 237.945312 213.609375 L 230.253906 213.609375 C 230.023438 211.332031 229.777344 209.117188 229.578125 206.890625 C 229.0625 201.242188 228.574219 195.589844 228.070312 189.941406 C 228.039062 189.578125 228.066406 189.148438 227.878906 188.875 C 227.394531 188.175781 226.902344 187.199219 226.222656 187.015625 C 225.753906 186.882812 224.710938 187.75 224.375 188.398438 C 222.46875 192.140625 220.691406 195.949219 218.875 199.734375 C 217.976562 201.601562 217.074219 203.464844 216.191406 205.34375 C 215.425781 206.976562 214.054688 207.664062 212.359375 207.648438 C 210.667969 207.628906 209.304688 206.949219 208.539062 205.308594 C 206.167969 200.238281 203.796875 195.164062 201.347656 190.128906 C 200.699219 188.796875 200.441406 186.554688 198.394531 187.003906 C 196.433594 187.429688 196.714844 189.601562 196.566406 191.183594 C 195.878906 198.585938 195.25 205.992188 194.589844 213.550781 L 186.664062 213.550781 C 187.035156 209.832031 187.386719 206.214844 187.773438 202.59375 C 188.367188 197.015625 188.75 191.40625 189.652344 185.878906 C 190.566406 180.285156 195.050781 177.316406 200.242188 178.375 C 203.28125 178.992188 205.054688 181.128906 206.316406 183.738281 C 208.121094 187.464844 209.8125 191.246094 211.550781 195.003906 C 211.804688 195.546875 212.078125 196.085938 212.476562 196.910156 C 214.082031 193.417969 215.539062 190.171875 217.0625 186.957031 C 217.871094 185.25 218.667969 183.527344 219.691406 181.949219 C 221.609375 178.984375 224.472656 177.902344 227.921875 178.382812 C 231.117188 178.828125 233.414062 180.640625 234.308594 183.671875 C 235.132812 186.445312 235.570312 189.363281 235.910156 192.246094 C 236.675781 198.722656 237.28125 205.222656 237.941406 211.714844 C 238 212.308594 237.949219 212.910156 237.949219 213.609375 " clip-rule="nonzero"/></clipPath><clipPath id="e86fbf859d"><path d="M 245.332031 177.722656 L 253.113281 177.722656 L 253.113281 213.550781 L 245.332031 213.550781 Z M 245.332031 177.722656 " clip-rule="nonzero"/></clipPath><clipPath id="9f408899f7"><path d="M 261.039062 177.84375 L 296.957031 177.84375 L 296.957031 213.605469 L 261.039062 213.605469 Z M 261.039062 177.84375 " clip-rule="nonzero"/></clipPath><clipPath id="40c0f33bb8"><path d="M 296.878906 197.277344 L 296.871094 197.277344 L 296.871094 189.949219 C 296.773438 189.449219 296.632812 188.96875 296.449219 188.511719 L 288.8125 188.511719 L 288.8125 201.53125 C 288.320312 200.953125 288.046875 200.640625 287.785156 200.320312 C 282.527344 193.738281 277.332031 187.105469 271.96875 180.617188 C 270.996094 179.445312 269.429688 178.355469 267.972656 178.082031 C 263.875 177.3125 261.183594 179.980469 261.164062 184.535156 C 261.128906 193.753906 261.160156 202.972656 261.167969 212.191406 C 261.167969 212.652344 261.277344 213.109375 261.335938 213.578125 L 269.1875 213.578125 L 269.1875 189.382812 C 269.644531 189.792969 269.796875 189.894531 269.90625 190.035156 C 275.386719 196.902344 280.867188 203.769531 286.335938 210.644531 C 288.464844 213.324219 290.675781 214.164062 293.308594 213.242188 C 295.828125 212.363281 296.933594 210.472656 296.945312 206.957031 C 296.953125 203.730469 296.859375 200.5 296.882812 197.277344 " clip-rule="nonzero"/></clipPath><clipPath id="0af2144f7d"><path d="M 288.980469 178.597656 L 324.605469 178.597656 L 324.605469 185.386719 L 288.980469 185.386719 Z M 288.980469 185.386719 L 310.824219 185.386719 L 310.824219 185.492188 L 288.980469 185.492188 Z M 302.777344 185.492188 L 310.824219 185.492188 L 310.824219 214.4375 L 302.777344 214.4375 Z M 302.777344 185.492188 " clip-rule="nonzero"/></clipPath><clipPath id="6511653126"><path d="M 288.800781 188.507812 L 296.957031 188.507812 L 296.957031 198.546875 L 288.800781 198.546875 Z M 288.800781 188.507812 " clip-rule="nonzero"/></clipPath><clipPath id="69fb281d5a"><path d="M 296.871094 198.4375 L 296.871094 188.511719 L 288.8125 188.511719 Z M 296.871094 198.4375 " clip-rule="nonzero"/></clipPath></defs><g clip-path="url(#7939216d97)"><g clip-path="url(#11b763fe49)"><path fill="#757575" d="M 67.246094 175.058594 L 184.167969 175.058594 L 184.167969 216.175781 L 67.246094 216.175781 Z M 67.246094 175.058594 " fill-opacity="1" fill-rule="nonzero"/></g></g><g clip-path="url(#d81aacd241)"><g clip-path="url(#558c6f9294)"><path fill="#757575" d="M 67.246094 175.058594 L 184.167969 175.058594 L 184.167969 216.175781 L 67.246094 216.175781 Z M 67.246094 175.058594 " fill-opacity="1" fill-rule="nonzero"/></g></g><g clip-path="url(#b503228bb0)"><g clip-path="url(#72d9ecf630)"><path fill="#757575" d="M 67.246094 175.058594 L 184.167969 175.058594 L 184.167969 216.175781 L 67.246094 216.175781 Z M 67.246094 175.058594 " fill-opacity="1" fill-rule="nonzero"/></g></g><g clip-path="url(#6642287550)"><g clip-path="url(#fab0655b33)"><path fill="#757575" d="M 67.246094 175.058594 L 184.167969 175.058594 L 184.167969 216.175781 L 67.246094 216.175781 Z M 67.246094 175.058594 " fill-opacity="1" fill-rule="nonzero"/></g></g><g clip-path="url(#09134bd3a1)"><g clip-path="url(#2c2a12ec62)"><path fill="#757575" d="M 186.664062 178.160156 L 238.035156 178.160156 L 238.035156 213.609375 L 186.664062 213.609375 Z M 186.664062 178.160156 " fill-opacity="1" fill-rule="nonzero"/></g></g><g clip-path="url(#e86fbf859d)"><path fill="#757575" d="M 245.332031 177.722656 L 253.113281 177.722656 L 253.113281 213.554688 L 245.332031 213.554688 Z M 245.332031 177.722656 " fill-opacity="1" fill-rule="nonzero"/></g><g clip-path="url(#9f408899f7)"><g clip-path="url(#40c0f33bb8)"><path fill="#757575" d="M 259.316406 176.117188 L 326.445312 176.117188 L 326.445312 216.269531 L 259.316406 216.269531 Z M 259.316406 176.117188 " fill-opacity="1" fill-rule="nonzero"/></g></g><g clip-path="url(#0af2144f7d)"><path fill="#757575" d="M 259.316406 176.117188 L 326.445312 176.117188 L 326.445312 216.269531 L 259.316406 216.269531 Z M 259.316406 176.117188 " fill-opacity="1" fill-rule="nonzero"/></g><g clip-path="url(#6511653126)"><g clip-path="url(#69fb281d5a)"><path fill="#757575" d="M 259.316406 176.117188 L 326.445312 176.117188 L 326.445312 216.269531 L 259.316406 216.269531 Z M 259.316406 176.117188 " fill-opacity="1" fill-rule="nonzero"/></g></g></svg>