<svg xmlns="http://www.w3.org/2000/svg" xmlns:xlink="http://www.w3.org/1999/xlink" width="500" zoomAndPan="magnify" viewBox="0 0 375 374.999991" height="500" preserveAspectRatio="xMidYMid meet" version="1.0"><defs><g/><clipPath id="94e90d70e1"><path d="M 132 216.117188 L 248 216.117188 L 248 218.507812 L 132 218.507812 Z M 132 216.117188 " clip-rule="nonzero"/></clipPath><clipPath id="ea305d3acf"><path d="M 14 160 L 76 160 L 76 220 L 14 220 Z M 14 160 " clip-rule="nonzero"/></clipPath><clipPath id="fc953df6e7"><path d="M 16.339844 159.214844 L 77.285156 217.515625 L 73.5625 221.40625 L 12.617188 163.105469 Z M 16.339844 159.214844 " clip-rule="nonzero"/></clipPath><clipPath id="0927cad594"><path d="M 16.339844 159.214844 L 77.285156 217.515625 L 73.5625 221.40625 L 12.617188 163.105469 Z M 16.339844 159.214844 " clip-rule="nonzero"/></clipPath><clipPath id="3ae307a4e7"><path d="M 16.339844 159.214844 L 77.285156 217.515625 L 73.5625 221.40625 L 12.617188 163.105469 Z M 16.339844 159.214844 " clip-rule="nonzero"/></clipPath><clipPath id="3b3f1168bf"><path d="M 106 203.933594 L 225 203.933594 L 225 211.707031 L 106 211.707031 Z M 106 203.933594 " clip-rule="nonzero"/></clipPath><clipPath id="72976c48bc"><path d="M 153 102 L 228 102 L 228 198 L 153 198 Z M 153 102 " clip-rule="nonzero"/></clipPath><clipPath id="00bdeb218b"><path d="M 229.484375 104.367188 L 157.261719 199.738281 L 151.0625 195.042969 L 223.285156 99.671875 Z M 229.484375 104.367188 " clip-rule="nonzero"/></clipPath><clipPath id="1b810246b9"><path d="M 229.484375 104.367188 L 157.261719 199.738281 L 151.0625 195.042969 L 223.285156 99.671875 Z M 229.484375 104.367188 " clip-rule="nonzero"/></clipPath><clipPath id="fcfeb2e3e1"><path d="M 229.484375 104.367188 L 157.261719 199.738281 L 151.0625 195.042969 L 223.285156 99.671875 Z M 229.484375 104.367188 " clip-rule="nonzero"/></clipPath><clipPath id="19c9e449e0"><path d="M 226 203.933594 L 344 203.933594 L 344 211.707031 L 226 211.707031 Z M 226 203.933594 " clip-rule="nonzero"/></clipPath><clipPath id="0ce14a3b9c"><path d="M 209 158 L 242 158 L 242 274 L 209 274 Z M 209 158 " clip-rule="nonzero"/></clipPath><clipPath id="1ecf85d5b2"><path d="M 242.394531 158.570312 L 216.414062 275.351562 L 208.824219 273.660156 L 234.804688 156.882812 Z M 242.394531 158.570312 " clip-rule="nonzero"/></clipPath><clipPath id="39c3f3c012"><path d="M 242.394531 158.570312 L 216.414062 275.351562 L 208.824219 273.660156 L 234.804688 156.882812 Z M 242.394531 158.570312 " clip-rule="nonzero"/></clipPath><clipPath id="1450269012"><path d="M 242.394531 158.570312 L 216.414062 275.351562 L 208.824219 273.660156 L 234.804688 156.882812 Z M 242.394531 158.570312 " clip-rule="nonzero"/></clipPath><clipPath id="81c6b30d2e"><path d="M 282.476562 188.292969 L 295 188.292969 L 295 195.472656 L 282.476562 195.472656 Z M 282.476562 188.292969 " clip-rule="nonzero"/></clipPath><clipPath id="8cbe01400f"><path d="M 282.476562 188.292969 L 295.039062 188.292969 L 295.039062 195.472656 L 282.476562 195.472656 Z M 282.476562 188.292969 " clip-rule="nonzero"/></clipPath></defs><g clip-path="url(#94e90d70e1)"><path fill="#000000" d="M 190.273438 217.949219 C 186.519531 217.988281 182.765625 218.003906 179.011719 218.082031 C 175.871094 218.148438 172.734375 218.3125 169.59375 218.382812 C 166.214844 218.457031 162.835938 218.511719 159.457031 218.503906 C 154.453125 218.5 149.449219 218.449219 144.449219 218.382812 C 142.050781 218.351562 139.644531 218.269531 137.246094 218.152344 C 136.046875 218.097656 134.855469 217.917969 133.660156 217.792969 C 133.429688 217.769531 133.203125 217.753906 132.980469 217.707031 C 132.878906 217.6875 132.792969 217.601562 132.695312 217.542969 C 132.792969 217.484375 132.890625 217.378906 132.988281 217.371094 C 133.527344 217.351562 134.066406 217.351562 134.609375 217.355469 C 137.105469 217.371094 139.601562 217.398438 142.09375 217.414062 C 142.6875 217.417969 143.28125 217.402344 143.875 217.390625 C 145.757812 217.359375 147.636719 217.320312 149.523438 217.296875 C 150.507812 217.285156 151.496094 217.308594 152.484375 217.304688 C 156.5625 217.304688 160.640625 217.304688 164.71875 217.289062 C 166.050781 217.285156 167.378906 217.253906 168.710938 217.214844 C 171.191406 217.132812 173.679688 217.035156 176.160156 216.949219 C 177.074219 216.917969 177.992188 216.894531 178.90625 216.882812 C 185.355469 216.800781 191.800781 216.714844 198.25 216.644531 C 202.824219 216.59375 207.402344 216.554688 211.976562 216.542969 C 214.277344 216.539062 216.574219 216.636719 218.871094 216.632812 C 221.261719 216.625 223.664062 216.648438 226.046875 216.496094 C 231.25 216.167969 236.46875 216.125 241.6875 216.140625 C 243.050781 216.144531 244.410156 216.246094 245.773438 216.28125 C 246.277344 216.292969 246.785156 216.226562 247.289062 216.222656 C 247.4375 216.222656 247.632812 216.269531 247.71875 216.363281 C 247.796875 216.445312 247.8125 216.660156 247.746094 216.75 C 247.671875 216.847656 247.484375 216.90625 247.335938 216.929688 C 246.898438 216.996094 246.460938 217.050781 246.019531 217.089844 C 245.636719 217.125 245.253906 217.144531 244.871094 217.144531 C 239.980469 217.148438 235.089844 217.113281 230.203125 217.167969 C 226.742188 217.207031 223.28125 217.371094 219.816406 217.472656 C 218.34375 217.511719 216.867188 217.511719 215.386719 217.542969 C 212.839844 217.601562 210.292969 217.664062 207.746094 217.726562 C 205.347656 217.78125 202.945312 217.871094 200.542969 217.886719 C 197.121094 217.917969 193.699219 217.894531 190.277344 217.894531 C 190.277344 217.910156 190.277344 217.929688 190.277344 217.949219 Z M 190.273438 217.949219 " fill-opacity="1" fill-rule="nonzero"/></g><g fill="#ffffff" fill-opacity="1"><g transform="translate(60.562501, 218.165497)"><g><path d="M 12.609375 -40.328125 L 22.296875 -14.4375 L 31.5625 -40.328125 L 37.09375 -40.328125 L 42.984375 0 L 35.265625 0 L 32.140625 -24.375 L 32.03125 -24.375 L 23.125 0.515625 L 20.46875 0.515625 L 11.875 -24.375 L 11.765625 -24.375 L 8.28125 0 L 0.578125 0 L 7.1875 -40.328125 Z M 12.609375 -40.328125 "/></g></g></g><g fill="#ffffff" fill-opacity="1"><g transform="translate(98.593045, 218.165497)"><g/></g></g><g clip-path="url(#ea305d3acf)"><g clip-path="url(#fc953df6e7)"><g clip-path="url(#0927cad594)"><g clip-path="url(#3ae307a4e7)"><path fill="#000000" d="M 74.703125 215.046875 L 18.921875 161.683594 C 17.820312 160.628906 16.09375 160.648438 15.066406 161.722656 C 14.039062 162.796875 14.097656 164.519531 15.199219 165.574219 L 70.984375 218.9375 C 72.082031 219.988281 73.808594 219.972656 74.835938 218.898438 C 75.863281 217.824219 75.804688 216.097656 74.703125 215.046875 Z M 74.703125 215.046875 " fill-opacity="1" fill-rule="nonzero"/></g></g></g></g><g fill="#ffffff" fill-opacity="1"><g transform="translate(112.409712, 218.165497)"><g><path d="M 20.78125 -40.328125 L 35.6875 0 L 27.5 0 L 24.484375 -8.28125 L 10.828125 -8.28125 L 7.609375 0 L -0.46875 0 L 14.84375 -40.328125 Z M 13.015625 -14.53125 L 22.34375 -14.53125 L 17.453125 -28.8125 L 17.34375 -28.8125 Z M 13.015625 -14.53125 "/></g></g></g><g clip-path="url(#3b3f1168bf)"><path fill="#000000" d="M 220.199219 203.933594 L 110.675781 203.933594 C 108.515625 203.933594 106.765625 205.671875 106.765625 207.820312 C 106.765625 209.96875 108.515625 211.707031 110.675781 211.707031 L 220.199219 211.707031 C 222.359375 211.707031 224.109375 209.96875 224.109375 207.820312 C 224.109375 205.671875 222.359375 203.933594 220.199219 203.933594 Z M 220.199219 203.933594 " fill-opacity="1" fill-rule="nonzero"/></g><g fill="#ffffff" fill-opacity="1"><g transform="translate(162.68853, 218.165497)"><g><path d="M 10.46875 -39.28125 L 10.46875 -22.71875 L 10.578125 -22.71875 L 22.71875 -39.28125 L 32.140625 -39.28125 L 17.25 -21.15625 L 32.96875 0 L 23.125 0 L 10.578125 -17.65625 L 10.46875 -17.65625 L 10.46875 0 L 2.8125 0 L 2.8125 -39.28125 Z M 10.46875 -39.28125 "/></g></g></g><g clip-path="url(#72976c48bc)"><g clip-path="url(#00bdeb218b)"><g clip-path="url(#1b810246b9)"><g clip-path="url(#fcfeb2e3e1)"><path fill="#000000" d="M 160.3125 195.707031 L 226.433594 108.398438 C 227.738281 106.675781 227.40625 104.226562 225.695312 102.933594 C 223.984375 101.636719 221.539062 101.980469 220.234375 103.703125 L 154.113281 191.011719 C 152.808594 192.734375 153.140625 195.183594 154.851562 196.476562 C 156.5625 197.773438 159.007812 197.429688 160.3125 195.707031 Z M 160.3125 195.707031 " fill-opacity="1" fill-rule="nonzero"/></g></g></g></g><g fill="#ffffff" fill-opacity="1"><g transform="translate(238.754271, 218.165497)"><g><path d="M 20.78125 -40.328125 L 35.6875 0 L 27.5 0 L 24.484375 -8.28125 L 10.828125 -8.28125 L 7.609375 0 L -0.46875 0 L 14.84375 -40.328125 Z M 13.015625 -14.53125 L 22.34375 -14.53125 L 17.453125 -28.8125 L 17.34375 -28.8125 Z M 13.015625 -14.53125 "/></g></g></g><g clip-path="url(#19c9e449e0)"><path fill="#000000" d="M 339.832031 203.933594 L 230.3125 203.933594 C 228.152344 203.933594 226.398438 205.671875 226.398438 207.820312 C 226.398438 209.96875 228.152344 211.707031 230.3125 211.707031 L 339.832031 211.707031 C 341.992188 211.707031 343.742188 209.96875 343.742188 207.820312 C 343.742188 205.671875 341.992188 203.933594 339.832031 203.933594 Z M 339.832031 203.933594 " fill-opacity="1" fill-rule="nonzero"/></g><g fill="#ffffff" fill-opacity="1"><g transform="translate(284.000259, 218.165497)"><g><path d="M 13.390625 -39.28125 C 17.523438 -39.28125 20.710938 -38.265625 22.953125 -36.234375 C 25.191406 -34.203125 26.3125 -31.273438 26.3125 -27.453125 C 26.3125 -24.671875 25.554688 -22.25 24.046875 -20.1875 C 22.535156 -18.125 20.613281 -16.914062 18.28125 -16.5625 L 29.375 0 L 20.109375 0 L 10.578125 -15.84375 L 10.46875 -15.84375 L 10.46875 0 L 2.8125 0 L 2.8125 -39.28125 Z M 10.46875 -21.203125 L 11.296875 -21.203125 C 13.941406 -21.203125 15.828125 -21.6875 16.953125 -22.65625 C 18.085938 -23.632812 18.65625 -25.164062 18.65625 -27.25 C 18.65625 -29.289062 18.097656 -30.765625 16.984375 -31.671875 C 15.867188 -32.578125 14.007812 -33.03125 11.40625 -33.03125 L 10.46875 -33.03125 Z M 10.46875 -21.203125 "/></g></g></g><g fill="#ffffff" fill-opacity="1"><g transform="translate(205.349801, 218.165497)"><g><path d="M 10.46875 -39.28125 L 10.46875 -6.671875 L 21.3125 -6.671875 L 21.3125 0 L 2.8125 0 L 2.8125 -39.28125 Z M 10.46875 -39.28125 "/></g></g></g><g clip-path="url(#0ce14a3b9c)"><g clip-path="url(#1ecf85d5b2)"><g clip-path="url(#39c3f3c012)"><g clip-path="url(#1450269012)"><path fill="#000000" d="M 217.511719 270.414062 L 241.296875 163.507812 C 241.765625 161.398438 240.445312 159.3125 238.351562 158.84375 C 236.253906 158.378906 234.175781 159.710938 233.707031 161.820312 L 209.921875 268.726562 C 209.453125 270.835938 210.769531 272.921875 212.867188 273.386719 C 214.960938 273.855469 217.042969 272.523438 217.511719 270.414062 Z M 217.511719 270.414062 " fill-opacity="1" fill-rule="nonzero"/></g></g></g></g><g clip-path="url(#81c6b30d2e)"><path fill="#ff0013" d="M 294.90625 193.324219 C 294.863281 193.386719 294.8125 193.453125 294.761719 193.507812 C 294.773438 193.621094 294.773438 193.738281 294.726562 193.839844 C 294.671875 193.976562 294.542969 194.078125 294.503906 194.222656 C 294.492188 194.261719 294.492188 194.304688 294.511719 194.34375 C 294.488281 194.328125 294.457031 194.324219 294.429688 194.335938 C 294.402344 194.34375 294.367188 194.351562 294.339844 194.367188 C 294.28125 194.414062 294.234375 194.46875 294.175781 194.519531 C 294.125 194.566406 294.078125 194.613281 294.015625 194.640625 C 293.945312 194.675781 293.863281 194.679688 293.785156 194.683594 C 293.773438 194.757812 293.75 194.832031 293.71875 194.898438 C 293.707031 194.925781 293.691406 194.949219 293.671875 194.96875 C 293.652344 194.984375 293.628906 194.992188 293.601562 195 C 293.476562 195.035156 293.339844 195.011719 293.230469 194.941406 C 293.160156 195 293.074219 195.066406 292.988281 195.082031 C 292.917969 195.097656 292.847656 195.082031 292.777344 195.097656 C 292.695312 195.113281 292.625 195.179688 292.589844 195.257812 C 292.558594 195.207031 292.5 195.179688 292.445312 195.175781 C 292.386719 195.171875 292.328125 195.1875 292.273438 195.207031 C 292.21875 195.222656 292.164062 195.238281 292.105469 195.238281 C 292.066406 195.234375 292.027344 195.226562 291.988281 195.214844 C 291.945312 195.207031 291.902344 195.195312 291.859375 195.183594 C 291.839844 195.25 291.78125 195.304688 291.722656 195.339844 C 291.6875 195.359375 291.652344 195.378906 291.613281 195.382812 C 291.546875 195.390625 291.480469 195.367188 291.425781 195.328125 C 291.371094 195.289062 291.324219 195.238281 291.28125 195.1875 L 291.28125 195.183594 C 291.15625 195.273438 290.984375 195.292969 290.84375 195.234375 C 290.816406 195.222656 290.789062 195.207031 290.757812 195.210938 C 290.734375 195.210938 290.714844 195.222656 290.695312 195.234375 C 290.660156 195.253906 290.625 195.277344 290.589844 195.296875 C 290.554688 195.230469 290.480469 195.207031 290.410156 195.195312 C 290.335938 195.183594 290.261719 195.191406 290.191406 195.183594 C 290.09375 195.167969 290 195.125 289.921875 195.058594 C 289.878906 195.113281 289.820312 195.144531 289.753906 195.167969 C 289.707031 195.1875 289.65625 195.199219 289.601562 195.1875 C 289.550781 195.175781 289.5 195.140625 289.464844 195.097656 C 289.425781 195.054688 289.398438 194.996094 289.378906 194.945312 C 289.207031 195.003906 289.003906 194.96875 288.859375 194.855469 C 288.84375 194.855469 288.820312 194.859375 288.804688 194.867188 C 288.792969 194.871094 288.785156 194.875 288.78125 194.882812 C 288.769531 194.894531 288.769531 194.914062 288.757812 194.925781 C 288.746094 194.914062 288.742188 194.894531 288.734375 194.882812 C 288.726562 194.875 288.71875 194.871094 288.710938 194.867188 C 288.691406 194.859375 288.671875 194.855469 288.652344 194.855469 C 288.507812 194.96875 288.308594 195.003906 288.136719 194.945312 C 288.113281 194.996094 288.085938 195.054688 288.050781 195.097656 C 288.011719 195.140625 287.964844 195.175781 287.910156 195.1875 C 287.859375 195.199219 287.804688 195.1875 287.757812 195.167969 C 287.695312 195.144531 287.632812 195.113281 287.589844 195.058594 C 287.515625 195.125 287.421875 195.167969 287.324219 195.183594 C 287.25 195.191406 287.175781 195.183594 287.105469 195.195312 C 287.03125 195.207031 286.960938 195.230469 286.925781 195.296875 C 286.890625 195.277344 286.855469 195.253906 286.820312 195.234375 C 286.796875 195.222656 286.777344 195.210938 286.753906 195.210938 C 286.722656 195.207031 286.695312 195.222656 286.667969 195.234375 C 286.527344 195.292969 286.359375 195.273438 286.234375 195.183594 C 286.1875 195.234375 286.144531 195.289062 286.085938 195.328125 C 286.03125 195.363281 285.964844 195.390625 285.898438 195.382812 C 285.859375 195.375 285.824219 195.359375 285.789062 195.339844 C 285.734375 195.304688 285.671875 195.25 285.652344 195.183594 C 285.609375 195.195312 285.566406 195.203125 285.523438 195.214844 C 285.484375 195.226562 285.445312 195.234375 285.40625 195.234375 C 285.347656 195.238281 285.292969 195.21875 285.238281 195.203125 C 285.183594 195.1875 285.128906 195.171875 285.070312 195.175781 C 285.011719 195.179688 284.953125 195.207031 284.925781 195.257812 C 284.890625 195.179688 284.820312 195.113281 284.734375 195.09375 C 284.667969 195.082031 284.59375 195.097656 284.523438 195.082031 C 284.4375 195.066406 284.351562 194.996094 284.285156 194.941406 C 284.175781 195.011719 284.035156 195.035156 283.910156 195 C 283.886719 194.992188 283.859375 194.984375 283.839844 194.964844 C 283.820312 194.949219 283.808594 194.925781 283.796875 194.898438 C 283.761719 194.832031 283.738281 194.757812 283.726562 194.679688 C 283.648438 194.675781 283.566406 194.675781 283.496094 194.640625 C 283.4375 194.613281 283.386719 194.5625 283.335938 194.519531 C 283.28125 194.46875 283.246094 194.417969 283.1875 194.371094 C 283.164062 194.355469 283.113281 194.339844 283.085938 194.332031 C 283.058594 194.324219 283.027344 194.324219 283 194.34375 C 283.019531 194.304688 283.015625 194.261719 283.003906 194.21875 C 282.964844 194.078125 282.839844 193.976562 282.78125 193.839844 C 282.738281 193.738281 282.738281 193.621094 282.746094 193.507812 C 282.699219 193.453125 282.644531 193.386719 282.605469 193.324219 C 282.578125 193.285156 282.550781 193.242188 282.550781 193.191406 C 282.546875 193.132812 282.578125 193.078125 282.613281 193.03125 C 282.65625 192.980469 282.707031 192.933594 282.761719 192.894531 C 282.777344 192.882812 282.796875 192.871094 282.8125 192.851562 C 282.828125 192.835938 282.839844 192.8125 282.835938 192.792969 C 282.820312 192.667969 282.851562 192.523438 282.929688 192.421875 C 282.960938 192.378906 283.003906 192.339844 283.035156 192.292969 C 283.074219 192.230469 283.09375 192.15625 283.078125 192.085938 C 283.070312 192.054688 283.058594 192.023438 283.050781 191.996094 C 283.03125 191.925781 283.039062 191.847656 283.050781 191.777344 C 283.09375 191.730469 283.097656 191.648438 283.078125 191.589844 C 283.058594 191.53125 283.019531 191.480469 282.980469 191.429688 C 282.929688 191.359375 282.882812 191.285156 282.851562 191.199219 C 282.820312 191.117188 282.800781 191.027344 282.816406 190.9375 C 282.761719 190.914062 282.710938 190.871094 282.667969 190.828125 C 282.625 190.785156 282.59375 190.730469 282.582031 190.667969 C 282.566406 190.59375 282.585938 190.515625 282.621094 190.449219 C 282.65625 190.382812 282.710938 190.328125 282.769531 190.28125 C 282.738281 190.160156 282.730469 190.027344 282.785156 189.914062 C 282.808594 189.859375 282.851562 189.8125 282.886719 189.765625 C 282.925781 189.71875 282.964844 189.671875 282.992188 189.613281 C 283.015625 189.558594 283.027344 189.480469 283 189.421875 C 283.027344 189.4375 283.058594 189.441406 283.085938 189.429688 C 283.113281 189.421875 283.136719 189.40625 283.160156 189.386719 C 283.222656 189.34375 283.28125 189.296875 283.339844 189.246094 C 283.386719 189.199219 283.4375 189.152344 283.496094 189.125 C 283.566406 189.089844 283.648438 189.085938 283.726562 189.082031 C 283.738281 189.007812 283.761719 188.933594 283.796875 188.863281 C 283.808594 188.839844 283.820312 188.816406 283.839844 188.796875 C 283.863281 188.78125 283.886719 188.769531 283.914062 188.765625 C 284.039062 188.730469 284.175781 188.753906 284.285156 188.824219 C 284.351562 188.765625 284.4375 188.699219 284.523438 188.683594 C 284.59375 188.667969 284.667969 188.683594 284.734375 188.667969 C 284.820312 188.652344 284.890625 188.585938 284.925781 188.507812 C 284.953125 188.558594 285.011719 188.585938 285.070312 188.589844 C 285.128906 188.59375 285.183594 188.578125 285.238281 188.558594 C 285.292969 188.542969 285.351562 188.527344 285.40625 188.527344 C 285.445312 188.527344 285.488281 188.539062 285.527344 188.546875 C 285.566406 188.558594 285.609375 188.570312 285.652344 188.582031 C 285.671875 188.515625 285.734375 188.457031 285.792969 188.425781 C 285.824219 188.40625 285.863281 188.386719 285.902344 188.382812 C 285.964844 188.375 286.035156 188.398438 286.089844 188.4375 C 286.144531 188.476562 286.1875 188.527344 286.234375 188.578125 L 286.234375 188.582031 C 286.359375 188.492188 286.527344 188.472656 286.667969 188.53125 C 286.695312 188.542969 286.722656 188.558594 286.753906 188.554688 C 286.777344 188.554688 286.800781 188.542969 286.820312 188.527344 C 286.855469 188.507812 286.890625 188.488281 286.925781 188.46875 C 286.960938 188.53125 287.035156 188.558594 287.105469 188.566406 C 287.175781 188.578125 287.25 188.574219 287.324219 188.582031 C 287.421875 188.59375 287.515625 188.636719 287.589844 188.707031 C 287.636719 188.652344 287.695312 188.617188 287.757812 188.59375 C 287.808594 188.578125 287.859375 188.566406 287.910156 188.578125 C 287.964844 188.589844 288.011719 188.621094 288.050781 188.664062 C 288.085938 188.707031 288.113281 188.769531 288.136719 188.820312 C 288.308594 188.761719 288.507812 188.796875 288.652344 188.90625 C 288.671875 188.910156 288.691406 188.90625 288.710938 188.898438 C 288.71875 188.894531 288.726562 188.890625 288.734375 188.882812 C 288.742188 188.867188 288.746094 188.851562 288.757812 188.839844 C 288.769531 188.851562 288.769531 188.867188 288.78125 188.882812 C 288.785156 188.890625 288.796875 188.894531 288.804688 188.898438 C 288.820312 188.90625 288.84375 188.910156 288.863281 188.90625 C 289.007812 188.796875 289.207031 188.761719 289.378906 188.820312 C 289.402344 188.769531 289.425781 188.707031 289.464844 188.664062 C 289.5 188.621094 289.550781 188.589844 289.605469 188.578125 C 289.65625 188.566406 289.707031 188.578125 289.757812 188.59375 C 289.820312 188.617188 289.878906 188.652344 289.921875 188.707031 C 290 188.636719 290.09375 188.59375 290.191406 188.582031 C 290.261719 188.574219 290.335938 188.578125 290.410156 188.566406 C 290.480469 188.558594 290.554688 188.53125 290.589844 188.46875 C 290.625 188.488281 290.660156 188.507812 290.695312 188.527344 C 290.714844 188.542969 290.738281 188.554688 290.761719 188.554688 C 290.789062 188.558594 290.816406 188.542969 290.84375 188.53125 C 290.988281 188.472656 291.15625 188.492188 291.28125 188.582031 L 291.28125 188.578125 C 291.324219 188.527344 291.371094 188.476562 291.425781 188.4375 C 291.480469 188.398438 291.546875 188.375 291.613281 188.382812 C 291.652344 188.390625 291.691406 188.40625 291.722656 188.425781 C 291.78125 188.460938 291.839844 188.515625 291.859375 188.582031 C 291.902344 188.570312 291.945312 188.558594 291.988281 188.550781 C 292.027344 188.539062 292.066406 188.53125 292.109375 188.527344 C 292.164062 188.527344 292.21875 188.542969 292.277344 188.5625 C 292.332031 188.578125 292.386719 188.59375 292.445312 188.589844 C 292.5 188.585938 292.558594 188.558594 292.589844 188.507812 C 292.625 188.585938 292.695312 188.652344 292.777344 188.667969 C 292.847656 188.683594 292.921875 188.667969 292.988281 188.683594 C 293.074219 188.699219 293.164062 188.769531 293.230469 188.824219 C 293.339844 188.753906 293.476562 188.730469 293.601562 188.765625 C 293.628906 188.773438 293.652344 188.78125 293.671875 188.800781 C 293.695312 188.816406 293.707031 188.839844 293.71875 188.867188 C 293.753906 188.933594 293.773438 189.007812 293.785156 189.085938 C 293.863281 189.089844 293.945312 189.089844 294.019531 189.125 C 294.078125 189.152344 294.125 189.199219 294.175781 189.246094 C 294.234375 189.296875 294.28125 189.351562 294.34375 189.398438 C 294.367188 189.414062 294.402344 189.421875 294.429688 189.433594 C 294.457031 189.441406 294.488281 189.441406 294.511719 189.421875 C 294.488281 189.480469 294.496094 189.558594 294.519531 189.617188 C 294.542969 189.671875 294.582031 189.71875 294.621094 189.765625 C 294.660156 189.8125 294.699219 189.859375 294.726562 189.914062 C 294.78125 190.027344 294.773438 190.164062 294.742188 190.285156 C 294.800781 190.328125 294.855469 190.386719 294.890625 190.453125 C 294.925781 190.515625 294.941406 190.597656 294.929688 190.671875 C 294.917969 190.730469 294.882812 190.785156 294.84375 190.828125 C 294.800781 190.875 294.75 190.914062 294.695312 190.941406 C 294.707031 191.027344 294.691406 191.117188 294.660156 191.203125 C 294.628906 191.285156 294.578125 191.359375 294.527344 191.429688 C 294.492188 191.480469 294.453125 191.53125 294.433594 191.589844 C 294.410156 191.648438 294.417969 191.730469 294.457031 191.777344 C 294.46875 191.851562 294.480469 191.925781 294.460938 191.996094 C 294.453125 192.027344 294.441406 192.054688 294.433594 192.085938 C 294.417969 192.15625 294.433594 192.234375 294.476562 192.292969 C 294.507812 192.339844 294.546875 192.378906 294.582031 192.425781 C 294.65625 192.523438 294.691406 192.667969 294.675781 192.792969 C 294.671875 192.816406 294.683594 192.835938 294.699219 192.855469 C 294.714844 192.871094 294.730469 192.882812 294.75 192.894531 C 294.804688 192.933594 294.855469 192.980469 294.894531 193.03125 C 294.933594 193.078125 294.964844 193.132812 294.960938 193.191406 C 294.957031 193.242188 294.933594 193.285156 294.90625 193.324219 Z M 294.90625 193.324219 " fill-opacity="1" fill-rule="nonzero"/></g><g clip-path="url(#8cbe01400f)"><path fill="#000000" d="M 282.476562 188.292969 L 295.035156 188.292969 L 295.035156 195.472656 L 282.476562 195.472656 Z M 282.476562 188.292969 " fill-opacity="1" fill-rule="nonzero"/></g><g fill="#ffffff" fill-opacity="1"><g transform="translate(165.111058, 246.428326)"><g><path d="M 4.109375 0.0625 C 3.421875 0.0625 2.800781 -0.0859375 2.25 -0.390625 C 1.707031 -0.691406 1.28125 -1.109375 0.96875 -1.640625 C 0.664062 -2.171875 0.515625 -2.769531 0.515625 -3.4375 C 0.515625 -4.09375 0.664062 -4.6875 0.96875 -5.21875 C 1.28125 -5.757812 1.710938 -6.175781 2.265625 -6.46875 C 2.816406 -6.769531 3.429688 -6.921875 4.109375 -6.921875 C 4.617188 -6.921875 5.085938 -6.835938 5.515625 -6.671875 C 5.953125 -6.503906 6.320312 -6.253906 6.625 -5.921875 L 6.15625 -5.46875 C 5.625 -6.007812 4.945312 -6.28125 4.125 -6.28125 C 3.582031 -6.28125 3.085938 -6.15625 2.640625 -5.90625 C 2.203125 -5.65625 1.859375 -5.3125 1.609375 -4.875 C 1.359375 -4.445312 1.234375 -3.96875 1.234375 -3.4375 C 1.234375 -2.894531 1.359375 -2.40625 1.609375 -1.96875 C 1.859375 -1.539062 2.203125 -1.203125 2.640625 -0.953125 C 3.085938 -0.710938 3.582031 -0.59375 4.125 -0.59375 C 4.957031 -0.59375 5.632812 -0.863281 6.15625 -1.40625 L 6.625 -0.953125 C 6.320312 -0.628906 5.953125 -0.378906 5.515625 -0.203125 C 5.078125 -0.0234375 4.609375 0.0625 4.109375 0.0625 Z M 4.109375 0.0625 "/></g></g></g><g fill="#ffffff" fill-opacity="1"><g transform="translate(171.126259, 246.428326)"><g><path d="M 5.8125 0 L 4.234375 -2.203125 C 4.054688 -2.179688 3.875 -2.171875 3.6875 -2.171875 L 1.84375 -2.171875 L 1.84375 0 L 1.125 0 L 1.125 -6.875 L 3.6875 -6.875 C 4.5625 -6.875 5.25 -6.660156 5.75 -6.234375 C 6.25 -5.816406 6.5 -5.242188 6.5 -4.515625 C 6.5 -3.972656 6.363281 -3.515625 6.09375 -3.140625 C 5.820312 -2.773438 5.429688 -2.515625 4.921875 -2.359375 L 6.609375 0 Z M 3.671875 -2.796875 C 4.347656 -2.796875 4.863281 -2.945312 5.21875 -3.25 C 5.582031 -3.550781 5.765625 -3.972656 5.765625 -4.515625 C 5.765625 -5.066406 5.582031 -5.488281 5.21875 -5.78125 C 4.863281 -6.082031 4.347656 -6.234375 3.671875 -6.234375 L 1.84375 -6.234375 L 1.84375 -2.796875 Z M 3.671875 -2.796875 "/></g></g></g><g fill="#ffffff" fill-opacity="1"><g transform="translate(177.180715, 246.428326)"><g><path d="M 5.96875 -0.625 L 5.96875 0 L 1.125 0 L 1.125 -6.875 L 5.828125 -6.875 L 5.828125 -6.234375 L 1.84375 -6.234375 L 1.84375 -3.796875 L 5.390625 -3.796875 L 5.390625 -3.171875 L 1.84375 -3.171875 L 1.84375 -0.625 Z M 5.96875 -0.625 "/></g></g></g><g fill="#ffffff" fill-opacity="1"><g transform="translate(182.705229, 246.428326)"><g><path d="M 5.421875 -1.828125 L 1.59375 -1.828125 L 0.78125 0 L 0.015625 0 L 3.15625 -6.875 L 3.875 -6.875 L 7.015625 0 L 6.25 0 Z M 5.15625 -2.421875 L 3.515625 -6.109375 L 1.859375 -2.421875 Z M 5.15625 -2.421875 "/></g></g></g><g fill="#ffffff" fill-opacity="1"><g transform="translate(188.700805, 246.428326)"><g><path d="M 2.453125 -6.234375 L 0.046875 -6.234375 L 0.046875 -6.875 L 5.59375 -6.875 L 5.59375 -6.234375 L 3.171875 -6.234375 L 3.171875 0 L 2.453125 0 Z M 2.453125 -6.234375 "/></g></g></g><g fill="#ffffff" fill-opacity="1"><g transform="translate(193.293014, 246.428326)"><g><path d="M 1.125 -6.875 L 1.84375 -6.875 L 1.84375 0 L 1.125 0 Z M 1.125 -6.875 "/></g></g></g><g fill="#ffffff" fill-opacity="1"><g transform="translate(195.215874, 246.428326)"><g><path d="M 4.125 0.0625 C 3.4375 0.0625 2.816406 -0.0859375 2.265625 -0.390625 C 1.710938 -0.703125 1.28125 -1.117188 0.96875 -1.640625 C 0.664062 -2.171875 0.515625 -2.769531 0.515625 -3.4375 C 0.515625 -4.09375 0.664062 -4.6875 0.96875 -5.21875 C 1.28125 -5.75 1.710938 -6.164062 2.265625 -6.46875 C 2.816406 -6.769531 3.4375 -6.921875 4.125 -6.921875 C 4.800781 -6.921875 5.410156 -6.769531 5.953125 -6.46875 C 6.503906 -6.175781 6.9375 -5.757812 7.25 -5.21875 C 7.5625 -4.6875 7.71875 -4.09375 7.71875 -3.4375 C 7.71875 -2.769531 7.5625 -2.171875 7.25 -1.640625 C 6.9375 -1.109375 6.503906 -0.691406 5.953125 -0.390625 C 5.410156 -0.0859375 4.800781 0.0625 4.125 0.0625 Z M 4.125 -0.59375 C 4.664062 -0.59375 5.15625 -0.710938 5.59375 -0.953125 C 6.03125 -1.203125 6.375 -1.539062 6.625 -1.96875 C 6.875 -2.40625 7 -2.894531 7 -3.4375 C 7 -3.96875 6.875 -4.453125 6.625 -4.890625 C 6.375 -5.328125 6.03125 -5.664062 5.59375 -5.90625 C 5.15625 -6.15625 4.664062 -6.28125 4.125 -6.28125 C 3.582031 -6.28125 3.085938 -6.15625 2.640625 -5.90625 C 2.203125 -5.664062 1.859375 -5.328125 1.609375 -4.890625 C 1.359375 -4.453125 1.234375 -3.96875 1.234375 -3.4375 C 1.234375 -2.894531 1.359375 -2.40625 1.609375 -1.96875 C 1.859375 -1.539062 2.203125 -1.203125 2.640625 -0.953125 C 3.085938 -0.710938 3.582031 -0.59375 4.125 -0.59375 Z M 4.125 -0.59375 "/></g></g></g><g fill="#ffffff" fill-opacity="1"><g transform="translate(202.408722, 246.428326)"><g><path d="M 6.859375 -6.875 L 6.859375 0 L 6.265625 0 L 1.84375 -5.578125 L 1.84375 0 L 1.125 0 L 1.125 -6.875 L 1.71875 -6.875 L 6.140625 -1.296875 L 6.140625 -6.875 Z M 6.859375 -6.875 "/></g></g></g><g fill="#ffffff" fill-opacity="1"><g transform="translate(209.346415, 246.428326)"><g><path d="M 3.015625 0.0625 C 2.503906 0.0625 2.015625 -0.0195312 1.546875 -0.1875 C 1.078125 -0.351562 0.71875 -0.566406 0.46875 -0.828125 L 0.75 -1.390625 C 1 -1.140625 1.328125 -0.9375 1.734375 -0.78125 C 2.148438 -0.632812 2.578125 -0.5625 3.015625 -0.5625 C 3.628906 -0.5625 4.085938 -0.671875 4.390625 -0.890625 C 4.703125 -1.117188 4.859375 -1.414062 4.859375 -1.78125 C 4.859375 -2.050781 4.773438 -2.265625 4.609375 -2.421875 C 4.441406 -2.585938 4.234375 -2.710938 3.984375 -2.796875 C 3.742188 -2.890625 3.410156 -2.988281 2.984375 -3.09375 C 2.460938 -3.226562 2.046875 -3.351562 1.734375 -3.46875 C 1.429688 -3.59375 1.171875 -3.78125 0.953125 -4.03125 C 0.734375 -4.28125 0.625 -4.617188 0.625 -5.046875 C 0.625 -5.390625 0.710938 -5.703125 0.890625 -5.984375 C 1.078125 -6.273438 1.359375 -6.503906 1.734375 -6.671875 C 2.117188 -6.835938 2.59375 -6.921875 3.15625 -6.921875 C 3.550781 -6.921875 3.9375 -6.867188 4.3125 -6.765625 C 4.6875 -6.660156 5.007812 -6.507812 5.28125 -6.3125 L 5.046875 -5.734375 C 4.753906 -5.929688 4.441406 -6.078125 4.109375 -6.171875 C 3.785156 -6.265625 3.46875 -6.3125 3.15625 -6.3125 C 2.550781 -6.3125 2.097656 -6.191406 1.796875 -5.953125 C 1.492188 -5.722656 1.34375 -5.425781 1.34375 -5.0625 C 1.34375 -4.789062 1.425781 -4.570312 1.59375 -4.40625 C 1.757812 -4.238281 1.96875 -4.109375 2.21875 -4.015625 C 2.46875 -3.929688 2.804688 -3.835938 3.234375 -3.734375 C 3.742188 -3.609375 4.148438 -3.484375 4.453125 -3.359375 C 4.765625 -3.234375 5.03125 -3.046875 5.25 -2.796875 C 5.46875 -2.554688 5.578125 -2.226562 5.578125 -1.8125 C 5.578125 -1.46875 5.484375 -1.148438 5.296875 -0.859375 C 5.109375 -0.578125 4.820312 -0.351562 4.4375 -0.1875 C 4.050781 -0.0195312 3.578125 0.0625 3.015625 0.0625 Z M 3.015625 0.0625 "/></g></g></g></svg>