<svg xmlns="http://www.w3.org/2000/svg" xmlns:xlink="http://www.w3.org/1999/xlink" width="150" zoomAndPan="magnify" viewBox="0 0 112.5 107.999999" height="144" preserveAspectRatio="xMidYMid meet" version="1.0"><defs><g/><clipPath id="8cd545c01c"><path d="M 0 20 L 22 20 L 22 41 L 0 41 Z M 0 20 " clip-rule="nonzero"/></clipPath><clipPath id="82d1cc31e9"><path d="M 1.28125 20.3125 L 21.785156 39.925781 L 20.753906 41.007812 L 0.25 21.394531 Z M 1.28125 20.3125 " clip-rule="nonzero"/></clipPath><clipPath id="830869433a"><path d="M 1.28125 20.3125 L 21.785156 39.925781 L 20.753906 41.007812 L 0.25 21.394531 Z M 1.28125 20.3125 " clip-rule="nonzero"/></clipPath><clipPath id="ead5f38a43"><path d="M 25.148438 16.527344 L 65.46875 16.527344 L 65.46875 19.515625 L 25.148438 19.515625 Z M 25.148438 16.527344 " clip-rule="nonzero"/></clipPath><clipPath id="894f8480cc"><path d="M 41 0.238281 L 67 0.238281 L 67 15 L 41 15 Z M 41 0.238281 " clip-rule="nonzero"/></clipPath><clipPath id="dbc90d41b3"><path d="M 66.886719 -17.019531 L 42.542969 15.121094 L 40.160156 13.320312 L 64.503906 -18.824219 Z M 66.886719 -17.019531 " clip-rule="nonzero"/></clipPath><clipPath id="4fc7f4aa47"><path d="M 66.886719 -17.019531 L 42.542969 15.121094 L 40.160156 13.320312 L 64.503906 -18.824219 Z M 66.886719 -17.019531 " clip-rule="nonzero"/></clipPath><clipPath id="aa854d7223"><path d="M 65.464844 16.527344 L 105.785156 16.527344 L 105.785156 19.515625 L 65.464844 19.515625 Z M 65.464844 16.527344 " clip-rule="nonzero"/></clipPath><clipPath id="14d316e7e9"><path d="M 60 1 L 71 1 L 71 40 L 60 40 Z M 60 1 " clip-rule="nonzero"/></clipPath><clipPath id="10f8606614"><path d="M 71.238281 1.246094 L 62.480469 40.605469 L 59.566406 39.957031 L 68.320312 0.597656 Z M 71.238281 1.246094 " clip-rule="nonzero"/></clipPath><clipPath id="754fd0ab6b"><path d="M 71.238281 1.246094 L 62.480469 40.605469 L 59.566406 39.957031 L 68.320312 0.597656 Z M 71.238281 1.246094 " clip-rule="nonzero"/></clipPath><clipPath id="194a47e48e"><path d="M 84.746094 11.257812 L 89.226562 11.257812 L 89.226562 13.5 L 84.746094 13.5 Z M 84.746094 11.257812 " clip-rule="nonzero"/></clipPath></defs><g fill="#000000" fill-opacity="1"><g transform="translate(9.964137, 21.325251)"><g><path d="M 4.25 -13.578125 L 7.515625 -4.859375 L 10.640625 -13.578125 L 12.5 -13.578125 L 14.46875 0 L 11.875 0 L 10.828125 -8.21875 L 10.796875 -8.21875 L 7.796875 0.171875 L 6.890625 0.171875 L 4 -8.21875 L 3.96875 -8.21875 L 2.796875 0 L 0.1875 0 L 2.421875 -13.578125 Z M 4.25 -13.578125 "/></g></g></g><g fill="#000000" fill-opacity="1"><g transform="translate(22.780205, 21.325251)"><g/></g></g><g clip-path="url(#8cd545c01c)"><g clip-path="url(#82d1cc31e9)"><g clip-path="url(#830869433a)"><path fill="#ffffff" d="M 20.917969 39.097656 L 2.152344 21.144531 C 1.78125 20.789062 1.195312 20.804688 0.839844 21.171875 C 0.484375 21.542969 0.5 22.128906 0.867188 22.484375 L 19.636719 40.4375 C 20.003906 40.792969 20.59375 40.777344 20.945312 40.40625 C 21.300781 40.039062 21.289062 39.449219 20.917969 39.097656 Z M 20.917969 39.097656 " fill-opacity="1" fill-rule="nonzero"/></g></g></g><g fill="#000000" fill-opacity="1"><g transform="translate(27.436343, 21.325251)"><g><path d="M 7 -13.578125 L 12.015625 0 L 9.265625 0 L 8.25 -2.796875 L 3.65625 -2.796875 L 2.5625 0 L -0.15625 0 L 5 -13.578125 Z M 4.390625 -4.890625 L 7.53125 -4.890625 L 5.875 -9.703125 L 5.84375 -9.703125 Z M 4.390625 -4.890625 "/></g></g></g><g clip-path="url(#ead5f38a43)"><path fill="#ffffff" d="M 63.761719 16.527344 L 26.847656 16.527344 C 26.117188 16.527344 25.527344 17.117188 25.527344 17.847656 C 25.527344 18.574219 26.117188 19.164062 26.847656 19.164062 L 63.761719 19.164062 C 64.488281 19.164062 65.078125 18.574219 65.078125 17.847656 C 65.078125 17.117188 64.488281 16.527344 63.761719 16.527344 Z M 63.761719 16.527344 " fill-opacity="1" fill-rule="nonzero"/></g><g fill="#000000" fill-opacity="1"><g transform="translate(44.379996, 21.325251)"><g><path d="M 3.53125 -13.234375 L 3.53125 -7.65625 L 3.5625 -7.65625 L 7.65625 -13.234375 L 10.828125 -13.234375 L 5.8125 -7.125 L 11.109375 0 L 7.796875 0 L 3.5625 -5.953125 L 3.53125 -5.953125 L 3.53125 0 L 0.953125 0 L 0.953125 -13.234375 Z M 3.53125 -13.234375 "/></g></g></g><g clip-path="url(#894f8480cc)"><g clip-path="url(#dbc90d41b3)"><g clip-path="url(#4fc7f4aa47)"><path fill="#ffffff" d="M 43.574219 13.757812 L 65.859375 -15.667969 C 66.300781 -16.25 66.183594 -17.074219 65.605469 -17.515625 C 65.023438 -17.953125 64.199219 -17.839844 63.757812 -17.261719 L 41.472656 12.167969 C 41.03125 12.75 41.148438 13.574219 41.726562 14.015625 C 42.308594 14.453125 43.132812 14.339844 43.574219 13.757812 Z M 43.574219 13.757812 " fill-opacity="1" fill-rule="nonzero"/></g></g></g><g fill="#000000" fill-opacity="1"><g transform="translate(70.013711, 21.325251)"><g><path d="M 7 -13.578125 L 12.015625 0 L 9.265625 0 L 8.25 -2.796875 L 3.65625 -2.796875 L 2.5625 0 L -0.15625 0 L 5 -13.578125 Z M 4.390625 -4.890625 L 7.53125 -4.890625 L 5.875 -9.703125 L 5.84375 -9.703125 Z M 4.390625 -4.890625 "/></g></g></g><g clip-path="url(#aa854d7223)"><path fill="#ffffff" d="M 104.074219 16.527344 L 67.160156 16.527344 C 66.433594 16.527344 65.84375 17.117188 65.84375 17.847656 C 65.84375 18.574219 66.433594 19.164062 67.160156 19.164062 L 104.074219 19.164062 C 104.804688 19.164062 105.394531 18.574219 105.394531 17.847656 C 105.394531 17.117188 104.804688 16.527344 104.074219 16.527344 Z M 104.074219 16.527344 " fill-opacity="1" fill-rule="nonzero"/></g><g fill="#000000" fill-opacity="1"><g transform="translate(85.261337, 21.325251)"><g><path d="M 4.515625 -13.234375 C 5.898438 -13.234375 6.96875 -12.890625 7.71875 -12.203125 C 8.476562 -11.515625 8.859375 -10.53125 8.859375 -9.25 C 8.859375 -8.3125 8.601562 -7.492188 8.09375 -6.796875 C 7.582031 -6.097656 6.9375 -5.691406 6.15625 -5.578125 L 9.890625 0 L 6.765625 0 L 3.5625 -5.328125 L 3.53125 -5.328125 L 3.53125 0 L 0.953125 0 L 0.953125 -13.234375 Z M 3.53125 -7.140625 L 3.8125 -7.140625 C 4.695312 -7.140625 5.328125 -7.300781 5.703125 -7.625 C 6.085938 -7.957031 6.28125 -8.472656 6.28125 -9.171875 C 6.28125 -9.867188 6.09375 -10.367188 5.71875 -10.671875 C 5.34375 -10.972656 4.71875 -11.125 3.84375 -11.125 L 3.53125 -11.125 Z M 3.53125 -7.140625 "/></g></g></g><g fill="#000000" fill-opacity="1"><g transform="translate(58.756599, 21.325251)"><g><path d="M 3.53125 -13.234375 L 3.53125 -2.25 L 7.171875 -2.25 L 7.171875 0 L 0.953125 0 L 0.953125 -13.234375 Z M 3.53125 -13.234375 "/></g></g></g><g clip-path="url(#14d316e7e9)"><g clip-path="url(#10f8606614)"><g clip-path="url(#754fd0ab6b)"><path fill="#ffffff" d="M 62.851562 38.9375 L 70.867188 2.902344 C 71.027344 2.191406 70.578125 1.488281 69.867188 1.328125 C 69.15625 1.171875 68.453125 1.621094 68.292969 2.332031 L 60.277344 38.363281 C 60.121094 39.074219 60.566406 39.777344 61.277344 39.9375 C 61.988281 40.09375 62.691406 39.648438 62.851562 38.9375 Z M 62.851562 38.9375 " fill-opacity="1" fill-rule="nonzero"/></g></g></g><g clip-path="url(#194a47e48e)"><path fill="#ff0013" d="M 89 12.917969 C 88.988281 12.9375 88.96875 12.960938 88.953125 12.980469 C 88.957031 13.015625 88.953125 13.054688 88.941406 13.089844 C 88.921875 13.132812 88.878906 13.167969 88.863281 13.214844 C 88.859375 13.226562 88.859375 13.242188 88.867188 13.253906 C 88.859375 13.25 88.847656 13.25 88.835938 13.25 C 88.828125 13.253906 88.816406 13.257812 88.808594 13.261719 C 88.789062 13.277344 88.769531 13.296875 88.75 13.3125 C 88.734375 13.328125 88.71875 13.34375 88.699219 13.351562 C 88.671875 13.363281 88.644531 13.363281 88.617188 13.367188 C 88.613281 13.390625 88.605469 13.414062 88.59375 13.4375 C 88.589844 13.445312 88.585938 13.453125 88.578125 13.460938 C 88.574219 13.464844 88.5625 13.46875 88.554688 13.472656 C 88.511719 13.484375 88.464844 13.476562 88.429688 13.453125 C 88.40625 13.472656 88.375 13.492188 88.347656 13.5 C 88.324219 13.503906 88.296875 13.5 88.273438 13.503906 C 88.246094 13.507812 88.222656 13.53125 88.210938 13.554688 C 88.199219 13.539062 88.179688 13.53125 88.160156 13.53125 C 88.140625 13.527344 88.121094 13.535156 88.101562 13.539062 C 88.082031 13.542969 88.0625 13.550781 88.042969 13.550781 C 88.03125 13.550781 88.015625 13.546875 88.003906 13.542969 C 87.988281 13.539062 87.976562 13.535156 87.960938 13.53125 C 87.953125 13.554688 87.933594 13.574219 87.914062 13.582031 C 87.902344 13.589844 87.890625 13.597656 87.875 13.597656 C 87.855469 13.601562 87.832031 13.59375 87.8125 13.578125 C 87.792969 13.566406 87.777344 13.550781 87.761719 13.53125 C 87.71875 13.5625 87.660156 13.566406 87.613281 13.546875 C 87.605469 13.542969 87.59375 13.539062 87.585938 13.539062 C 87.578125 13.539062 87.570312 13.542969 87.5625 13.550781 C 87.550781 13.554688 87.539062 13.5625 87.527344 13.570312 C 87.515625 13.546875 87.488281 13.539062 87.464844 13.535156 C 87.441406 13.53125 87.414062 13.535156 87.390625 13.53125 C 87.355469 13.527344 87.324219 13.511719 87.296875 13.492188 C 87.285156 13.507812 87.261719 13.519531 87.242188 13.527344 C 87.226562 13.53125 87.207031 13.535156 87.191406 13.53125 C 87.171875 13.53125 87.15625 13.519531 87.140625 13.503906 C 87.128906 13.488281 87.121094 13.46875 87.113281 13.453125 C 87.054688 13.472656 86.984375 13.460938 86.9375 13.425781 C 86.929688 13.421875 86.921875 13.425781 86.917969 13.425781 C 86.914062 13.429688 86.910156 13.429688 86.910156 13.433594 C 86.90625 13.4375 86.902344 13.441406 86.898438 13.445312 C 86.894531 13.441406 86.894531 13.4375 86.890625 13.433594 C 86.890625 13.429688 86.886719 13.429688 86.882812 13.425781 C 86.878906 13.425781 86.871094 13.421875 86.863281 13.425781 C 86.816406 13.460938 86.746094 13.472656 86.6875 13.453125 C 86.679688 13.46875 86.671875 13.488281 86.660156 13.503906 C 86.644531 13.519531 86.628906 13.53125 86.609375 13.53125 C 86.59375 13.535156 86.574219 13.53125 86.558594 13.527344 C 86.535156 13.519531 86.515625 13.507812 86.5 13.492188 C 86.476562 13.511719 86.445312 13.527344 86.410156 13.53125 C 86.386719 13.535156 86.359375 13.53125 86.335938 13.535156 C 86.3125 13.539062 86.285156 13.546875 86.273438 13.570312 C 86.261719 13.5625 86.25 13.554688 86.238281 13.550781 C 86.230469 13.542969 86.222656 13.539062 86.214844 13.539062 C 86.207031 13.539062 86.195312 13.542969 86.1875 13.546875 C 86.136719 13.566406 86.082031 13.5625 86.039062 13.53125 C 86.023438 13.550781 86.007812 13.566406 85.988281 13.578125 C 85.96875 13.589844 85.945312 13.601562 85.925781 13.597656 C 85.910156 13.59375 85.898438 13.589844 85.886719 13.582031 C 85.867188 13.570312 85.847656 13.554688 85.839844 13.53125 C 85.824219 13.535156 85.8125 13.539062 85.796875 13.542969 C 85.78125 13.546875 85.769531 13.550781 85.753906 13.550781 C 85.734375 13.550781 85.71875 13.542969 85.699219 13.539062 C 85.679688 13.535156 85.660156 13.527344 85.640625 13.527344 C 85.621094 13.53125 85.601562 13.539062 85.589844 13.554688 C 85.578125 13.53125 85.554688 13.507812 85.527344 13.503906 C 85.503906 13.5 85.476562 13.503906 85.453125 13.5 C 85.425781 13.492188 85.394531 13.46875 85.371094 13.453125 C 85.335938 13.476562 85.289062 13.480469 85.246094 13.472656 C 85.238281 13.46875 85.226562 13.464844 85.222656 13.460938 C 85.214844 13.453125 85.210938 13.445312 85.207031 13.4375 C 85.195312 13.414062 85.1875 13.390625 85.183594 13.367188 C 85.15625 13.363281 85.128906 13.363281 85.101562 13.351562 C 85.082031 13.34375 85.066406 13.328125 85.050781 13.3125 C 85.03125 13.296875 85.019531 13.277344 84.996094 13.265625 C 84.988281 13.257812 84.972656 13.253906 84.960938 13.25 C 84.953125 13.25 84.941406 13.25 84.933594 13.253906 C 84.941406 13.242188 84.9375 13.226562 84.933594 13.214844 C 84.921875 13.167969 84.878906 13.132812 84.859375 13.089844 C 84.84375 13.054688 84.84375 13.015625 84.847656 12.980469 C 84.832031 12.960938 84.8125 12.9375 84.796875 12.917969 C 84.789062 12.90625 84.78125 12.890625 84.78125 12.875 C 84.777344 12.855469 84.789062 12.835938 84.800781 12.820312 C 84.816406 12.804688 84.832031 12.789062 84.851562 12.777344 C 84.859375 12.773438 84.863281 12.769531 84.871094 12.761719 C 84.875 12.757812 84.878906 12.75 84.878906 12.742188 C 84.871094 12.703125 84.882812 12.652344 84.910156 12.621094 C 84.921875 12.605469 84.933594 12.59375 84.945312 12.578125 C 84.960938 12.558594 84.964844 12.53125 84.960938 12.507812 C 84.957031 12.5 84.953125 12.488281 84.949219 12.480469 C 84.945312 12.457031 84.949219 12.433594 84.953125 12.40625 C 84.964844 12.390625 84.96875 12.367188 84.960938 12.347656 C 84.953125 12.328125 84.941406 12.308594 84.925781 12.292969 C 84.910156 12.269531 84.894531 12.246094 84.882812 12.21875 C 84.871094 12.191406 84.867188 12.160156 84.871094 12.132812 C 84.851562 12.121094 84.835938 12.109375 84.820312 12.09375 C 84.804688 12.082031 84.792969 12.0625 84.789062 12.042969 C 84.785156 12.019531 84.792969 11.992188 84.804688 11.96875 C 84.816406 11.949219 84.835938 11.929688 84.855469 11.914062 C 84.84375 11.875 84.839844 11.832031 84.859375 11.792969 C 84.867188 11.773438 84.882812 11.757812 84.894531 11.746094 C 84.910156 11.730469 84.921875 11.714844 84.929688 11.695312 C 84.9375 11.675781 84.941406 11.648438 84.933594 11.632812 C 84.941406 11.636719 84.953125 11.636719 84.960938 11.632812 C 84.972656 11.632812 84.980469 11.625 84.988281 11.621094 C 85.011719 11.605469 85.03125 11.589844 85.050781 11.574219 C 85.066406 11.558594 85.082031 11.542969 85.101562 11.53125 C 85.128906 11.519531 85.15625 11.519531 85.183594 11.519531 C 85.1875 11.492188 85.195312 11.46875 85.207031 11.445312 C 85.210938 11.4375 85.214844 11.429688 85.222656 11.425781 C 85.226562 11.417969 85.238281 11.417969 85.246094 11.414062 C 85.289062 11.402344 85.335938 11.410156 85.371094 11.433594 C 85.394531 11.414062 85.425781 11.390625 85.453125 11.386719 C 85.476562 11.382812 85.503906 11.386719 85.527344 11.382812 C 85.554688 11.375 85.578125 11.355469 85.589844 11.328125 C 85.601562 11.347656 85.621094 11.355469 85.640625 11.355469 C 85.660156 11.355469 85.679688 11.351562 85.699219 11.347656 C 85.71875 11.339844 85.734375 11.335938 85.757812 11.335938 C 85.769531 11.335938 85.78125 11.339844 85.796875 11.34375 C 85.8125 11.347656 85.824219 11.351562 85.839844 11.351562 C 85.847656 11.332031 85.867188 11.3125 85.886719 11.300781 C 85.898438 11.296875 85.910156 11.289062 85.925781 11.289062 C 85.945312 11.285156 85.96875 11.292969 85.988281 11.304688 C 86.007812 11.320312 86.023438 11.335938 86.039062 11.351562 C 86.082031 11.324219 86.140625 11.316406 86.1875 11.335938 C 86.195312 11.339844 86.207031 11.34375 86.214844 11.34375 C 86.222656 11.34375 86.230469 11.339844 86.238281 11.335938 C 86.25 11.328125 86.261719 11.324219 86.273438 11.316406 C 86.285156 11.335938 86.3125 11.34375 86.335938 11.347656 C 86.359375 11.351562 86.386719 11.351562 86.410156 11.355469 C 86.445312 11.359375 86.476562 11.371094 86.5 11.394531 C 86.515625 11.375 86.539062 11.367188 86.558594 11.359375 C 86.574219 11.351562 86.59375 11.347656 86.609375 11.351562 C 86.628906 11.355469 86.644531 11.367188 86.660156 11.382812 C 86.671875 11.394531 86.679688 11.414062 86.6875 11.433594 C 86.746094 11.414062 86.816406 11.425781 86.863281 11.460938 C 86.871094 11.460938 86.878906 11.460938 86.882812 11.457031 C 86.886719 11.457031 86.890625 11.453125 86.890625 11.453125 C 86.894531 11.449219 86.894531 11.441406 86.898438 11.4375 C 86.90625 11.441406 86.90625 11.449219 86.910156 11.453125 C 86.910156 11.457031 86.914062 11.457031 86.917969 11.457031 C 86.921875 11.460938 86.929688 11.460938 86.9375 11.460938 C 86.984375 11.425781 87.054688 11.414062 87.113281 11.433594 C 87.121094 11.414062 87.128906 11.394531 87.140625 11.382812 C 87.15625 11.367188 87.171875 11.355469 87.191406 11.351562 C 87.207031 11.347656 87.226562 11.351562 87.242188 11.359375 C 87.261719 11.367188 87.285156 11.375 87.300781 11.394531 C 87.324219 11.371094 87.355469 11.359375 87.390625 11.355469 C 87.414062 11.351562 87.441406 11.351562 87.464844 11.347656 C 87.488281 11.34375 87.515625 11.335938 87.527344 11.316406 C 87.539062 11.324219 87.550781 11.328125 87.5625 11.335938 C 87.570312 11.339844 87.578125 11.34375 87.585938 11.34375 C 87.59375 11.34375 87.605469 11.339844 87.613281 11.335938 C 87.660156 11.316406 87.71875 11.324219 87.761719 11.351562 C 87.777344 11.335938 87.792969 11.320312 87.8125 11.304688 C 87.832031 11.292969 87.855469 11.285156 87.875 11.289062 C 87.890625 11.289062 87.902344 11.296875 87.914062 11.300781 C 87.933594 11.3125 87.953125 11.332031 87.960938 11.355469 C 87.976562 11.351562 87.988281 11.347656 88.003906 11.34375 C 88.019531 11.339844 88.03125 11.335938 88.042969 11.335938 C 88.0625 11.335938 88.082031 11.339844 88.101562 11.347656 C 88.121094 11.351562 88.140625 11.359375 88.160156 11.355469 C 88.179688 11.355469 88.199219 11.347656 88.210938 11.328125 C 88.222656 11.355469 88.246094 11.378906 88.273438 11.382812 C 88.296875 11.386719 88.324219 11.382812 88.347656 11.386719 C 88.375 11.394531 88.40625 11.414062 88.429688 11.433594 C 88.464844 11.410156 88.511719 11.402344 88.554688 11.414062 C 88.5625 11.417969 88.574219 11.417969 88.578125 11.425781 C 88.585938 11.429688 88.589844 11.4375 88.59375 11.449219 C 88.605469 11.46875 88.613281 11.496094 88.617188 11.519531 C 88.644531 11.519531 88.671875 11.523438 88.699219 11.53125 C 88.71875 11.542969 88.734375 11.558594 88.75 11.574219 C 88.769531 11.589844 88.789062 11.609375 88.808594 11.621094 C 88.816406 11.628906 88.828125 11.632812 88.839844 11.632812 C 88.847656 11.636719 88.859375 11.636719 88.867188 11.632812 C 88.859375 11.648438 88.859375 11.675781 88.867188 11.695312 C 88.878906 11.714844 88.890625 11.730469 88.902344 11.746094 C 88.917969 11.761719 88.929688 11.777344 88.941406 11.792969 C 88.957031 11.832031 88.957031 11.875 88.945312 11.914062 C 88.964844 11.929688 88.984375 11.949219 88.996094 11.96875 C 89.007812 11.992188 89.011719 12.019531 89.007812 12.042969 C 89.003906 12.0625 88.992188 12.082031 88.980469 12.09375 C 88.964844 12.109375 88.945312 12.121094 88.929688 12.132812 C 88.933594 12.160156 88.929688 12.191406 88.917969 12.21875 C 88.90625 12.246094 88.890625 12.269531 88.871094 12.292969 C 88.859375 12.308594 88.847656 12.328125 88.839844 12.347656 C 88.832031 12.367188 88.835938 12.390625 88.847656 12.40625 C 88.851562 12.433594 88.855469 12.457031 88.847656 12.480469 C 88.847656 12.488281 88.839844 12.5 88.839844 12.507812 C 88.832031 12.53125 88.839844 12.558594 88.855469 12.578125 C 88.863281 12.59375 88.878906 12.605469 88.890625 12.621094 C 88.917969 12.652344 88.929688 12.703125 88.921875 12.742188 C 88.921875 12.75 88.925781 12.757812 88.929688 12.761719 C 88.933594 12.769531 88.941406 12.773438 88.949219 12.777344 C 88.964844 12.789062 88.984375 12.804688 88.996094 12.820312 C 89.011719 12.835938 89.019531 12.855469 89.019531 12.875 C 89.019531 12.890625 89.011719 12.90625 89 12.917969 Z M 89 12.917969 " fill-opacity="1" fill-rule="nonzero"/><path fill="#ffffff" d="M 84.753906 11.257812 L 89.046875 11.257812 L 89.046875 13.628906 L 84.753906 13.628906 Z M 84.753906 11.257812 " fill-opacity="1" fill-rule="nonzero"/></g></svg>