<svg xmlns="http://www.w3.org/2000/svg" xmlns:xlink="http://www.w3.org/1999/xlink" width="500" zoomAndPan="magnify" viewBox="0 0 375 374.999991" height="500" preserveAspectRatio="xMidYMid meet" version="1.0"><defs><g/><clipPath id="d3100310aa"><path d="M 0 124 L 43 124 L 43 198 L 0 198 Z M 0 124 " clip-rule="nonzero"/></clipPath><clipPath id="837606fbe6"><path d="M -31.160156 121.867188 L 45.257812 194.96875 L 40.589844 199.847656 L -35.824219 126.746094 Z M -31.160156 121.867188 " clip-rule="nonzero"/></clipPath><clipPath id="3f020a3a86"><path d="M -31.160156 121.867188 L 45.257812 194.96875 L 40.589844 199.847656 L -35.824219 126.746094 Z M -31.160156 121.867188 " clip-rule="nonzero"/></clipPath><clipPath id="e7b541e8e1"><path d="M 82 177.9375 L 230 177.9375 L 230 187.6875 L 82 187.6875 Z M 82 177.9375 " clip-rule="nonzero"/></clipPath><clipPath id="a6407206bc"><path d="M 140 50 L 234 50 L 234 170 L 140 170 Z M 140 50 " clip-rule="nonzero"/></clipPath><clipPath id="ffdc80a3c7"><path d="M 236.089844 53.101562 L 145.53125 172.679688 L 137.757812 166.792969 L 228.316406 47.214844 Z M 236.089844 53.101562 " clip-rule="nonzero"/></clipPath><clipPath id="b5f4bfcf84"><path d="M 236.089844 53.101562 L 145.53125 172.679688 L 137.757812 166.792969 L 228.316406 47.214844 Z M 236.089844 53.101562 " clip-rule="nonzero"/></clipPath><clipPath id="e131b22722"><path d="M 232 177.9375 L 375 177.9375 L 375 187.6875 L 232 187.6875 Z M 232 177.9375 " clip-rule="nonzero"/></clipPath><clipPath id="585df1ce06"><path d="M 211 121 L 252 121 L 252 266 L 211 266 Z M 211 121 " clip-rule="nonzero"/></clipPath><clipPath id="cc21d81bdf"><path d="M 252.273438 121.0625 L 219.699219 267.484375 L 210.179688 265.367188 L 242.757812 118.945312 Z M 252.273438 121.0625 " clip-rule="nonzero"/></clipPath><clipPath id="b2ff242c80"><path d="M 252.273438 121.0625 L 219.699219 267.484375 L 210.179688 265.367188 L 242.757812 118.945312 Z M 252.273438 121.0625 " clip-rule="nonzero"/></clipPath><clipPath id="49b4d13cea"><path d="M 302.53125 158.332031 L 318.28125 158.332031 L 318.28125 167.332031 L 302.53125 167.332031 Z M 302.53125 158.332031 " clip-rule="nonzero"/></clipPath></defs><g fill="#000000" fill-opacity="1"><g transform="translate(24.288954, 195.78431)"><g><path d="M 15.8125 -50.546875 L 27.953125 -18.09375 L 39.578125 -50.546875 L 46.5 -50.546875 L 53.875 0 L 44.21875 0 L 40.296875 -30.5625 L 40.171875 -30.5625 L 29 0.65625 L 25.671875 0.65625 L 14.890625 -30.5625 L 14.765625 -30.5625 L 10.390625 0 L 0.71875 0 L 9.015625 -50.546875 Z M 15.8125 -50.546875 "/></g></g></g><g fill="#000000" fill-opacity="1"><g transform="translate(71.972545, 195.78431)"><g/></g></g><g clip-path="url(#d3100310aa)"><g clip-path="url(#837606fbe6)"><g clip-path="url(#3f020a3a86)"><path fill="#ffffff" d="M 41.898438 191.757812 L -27.929688 124.960938 C -29.304688 123.640625 -31.492188 123.691406 -32.808594 125.066406 C -34.125 126.445312 -34.078125 128.628906 -32.699219 129.945312 L 37.128906 196.746094 C 38.503906 198.0625 40.691406 198.015625 42.007812 196.636719 C 43.324219 195.257812 43.277344 193.074219 41.898438 191.757812 Z M 41.898438 191.757812 " fill-opacity="1" fill-rule="nonzero"/></g></g></g><g fill="#000000" fill-opacity="1"><g transform="translate(89.296215, 195.78431)"><g><path d="M 26.0625 -50.546875 L 44.734375 0 L 34.484375 0 L 30.703125 -10.390625 L 13.578125 -10.390625 L 9.53125 0 L -0.59375 0 L 18.609375 -50.546875 Z M 16.328125 -18.21875 L 28.015625 -18.21875 L 21.875 -36.125 L 21.75 -36.125 Z M 16.328125 -18.21875 "/></g></g></g><g clip-path="url(#e7b541e8e1)"><path fill="#ffffff" d="M 224.445312 177.9375 L 87.125 177.9375 C 84.414062 177.9375 82.21875 180.132812 82.21875 182.84375 C 82.21875 185.550781 84.414062 187.746094 87.125 187.746094 L 224.445312 187.746094 C 227.152344 187.746094 229.347656 185.550781 229.347656 182.84375 C 229.347656 180.132812 227.152344 177.9375 224.445312 177.9375 Z M 224.445312 177.9375 " fill-opacity="1" fill-rule="nonzero"/></g><g fill="#000000" fill-opacity="1"><g transform="translate(152.336946, 195.78431)"><g><path d="M 13.125 -49.25 L 13.125 -28.46875 L 13.265625 -28.46875 L 28.46875 -49.25 L 40.296875 -49.25 L 21.625 -26.515625 L 41.34375 0 L 29 0 L 13.265625 -22.140625 L 13.125 -22.140625 L 13.125 0 L 3.53125 0 L 3.53125 -49.25 Z M 13.125 -49.25 "/></g></g></g><g clip-path="url(#a6407206bc)"><g clip-path="url(#ffdc80a3c7)"><g clip-path="url(#b5f4bfcf84)"><path fill="#ffffff" d="M 149.359375 167.625 L 232.261719 58.15625 C 233.894531 55.996094 233.472656 52.917969 231.3125 51.285156 C 229.152344 49.648438 226.078125 50.074219 224.441406 52.234375 L 141.539062 161.703125 C 139.902344 163.863281 140.328125 166.941406 142.488281 168.574219 C 144.648438 170.210938 147.722656 169.785156 149.359375 167.625 Z M 149.359375 167.625 " fill-opacity="1" fill-rule="nonzero"/></g></g></g><g fill="#000000" fill-opacity="1"><g transform="translate(247.710017, 195.78431)"><g><path d="M 26.0625 -50.546875 L 44.734375 0 L 34.484375 0 L 30.703125 -10.390625 L 13.578125 -10.390625 L 9.53125 0 L -0.59375 0 L 18.609375 -50.546875 Z M 16.328125 -18.21875 L 28.015625 -18.21875 L 21.875 -36.125 L 21.75 -36.125 Z M 16.328125 -18.21875 "/></g></g></g><g clip-path="url(#e131b22722)"><path fill="#ffffff" d="M 374.445312 177.9375 L 237.125 177.9375 C 234.414062 177.9375 232.21875 180.132812 232.21875 182.84375 C 232.21875 185.550781 234.414062 187.746094 237.125 187.746094 L 374.445312 187.746094 C 377.152344 187.746094 379.347656 185.550781 379.347656 182.84375 C 379.347656 180.132812 377.152344 177.9375 374.445312 177.9375 Z M 374.445312 177.9375 " fill-opacity="1" fill-rule="nonzero"/></g><g fill="#000000" fill-opacity="1"><g transform="translate(304.440484, 195.78431)"><g><path d="M 16.78125 -49.25 C 21.96875 -49.25 25.960938 -47.972656 28.765625 -45.421875 C 31.578125 -42.878906 32.984375 -39.210938 32.984375 -34.421875 C 32.984375 -30.929688 32.035156 -27.890625 30.140625 -25.296875 C 28.242188 -22.710938 25.835938 -21.203125 22.921875 -20.765625 L 36.84375 0 L 25.203125 0 L 13.265625 -19.859375 L 13.125 -19.859375 L 13.125 0 L 3.53125 0 L 3.53125 -49.25 Z M 13.125 -26.578125 L 14.171875 -26.578125 C 17.484375 -26.578125 19.84375 -27.1875 21.25 -28.40625 C 22.664062 -29.625 23.375 -31.539062 23.375 -34.15625 C 23.375 -36.726562 22.675781 -38.578125 21.28125 -39.703125 C 19.894531 -40.835938 17.566406 -41.40625 14.296875 -41.40625 L 13.125 -41.40625 Z M 13.125 -26.578125 "/></g></g></g><g fill="#000000" fill-opacity="1"><g transform="translate(205.826681, 195.78431)"><g><path d="M 13.125 -49.25 L 13.125 -8.359375 L 26.71875 -8.359375 L 26.71875 0 L 3.53125 0 L 3.53125 -49.25 Z M 13.125 -49.25 "/></g></g></g><g clip-path="url(#585df1ce06)"><g clip-path="url(#cc21d81bdf)"><g clip-path="url(#b2ff242c80)"><path fill="#ffffff" d="M 221.074219 261.296875 L 250.898438 127.253906 C 251.484375 124.609375 249.820312 121.988281 247.175781 121.398438 C 244.53125 120.8125 241.910156 122.480469 241.324219 125.121094 L 211.5 259.164062 C 210.914062 261.808594 212.578125 264.429688 215.222656 265.015625 C 217.867188 265.605469 220.488281 263.9375 221.074219 261.296875 Z M 221.074219 261.296875 " fill-opacity="1" fill-rule="nonzero"/></g></g></g><g clip-path="url(#49b4d13cea)"><path fill="#ff0013" d="M 318.394531 164.53125 C 318.339844 164.609375 318.273438 164.691406 318.207031 164.757812 C 318.222656 164.894531 318.222656 165.039062 318.167969 165.167969 C 318.09375 165.335938 317.929688 165.457031 317.878906 165.636719 C 317.863281 165.6875 317.863281 165.738281 317.890625 165.785156 C 317.859375 165.765625 317.816406 165.765625 317.78125 165.777344 C 317.746094 165.785156 317.703125 165.796875 317.671875 165.816406 C 317.59375 165.871094 317.53125 165.941406 317.460938 166.003906 C 317.398438 166.058594 317.335938 166.117188 317.257812 166.152344 C 317.167969 166.195312 317.0625 166.199219 316.964844 166.203125 C 316.949219 166.296875 316.917969 166.386719 316.878906 166.472656 C 316.863281 166.503906 316.84375 166.535156 316.820312 166.554688 C 316.792969 166.578125 316.761719 166.589844 316.726562 166.597656 C 316.570312 166.640625 316.390625 166.613281 316.253906 166.523438 C 316.167969 166.59375 316.054688 166.679688 315.945312 166.699219 C 315.859375 166.714844 315.765625 166.699219 315.675781 166.714844 C 315.570312 166.734375 315.480469 166.816406 315.433594 166.914062 C 315.398438 166.851562 315.324219 166.820312 315.25 166.8125 C 315.175781 166.808594 315.105469 166.828125 315.035156 166.847656 C 314.964844 166.871094 314.894531 166.890625 314.820312 166.890625 C 314.769531 166.886719 314.71875 166.875 314.667969 166.863281 C 314.613281 166.851562 314.558594 166.835938 314.503906 166.824219 C 314.480469 166.902344 314.402344 166.972656 314.332031 167.015625 C 314.285156 167.042969 314.242188 167.0625 314.191406 167.066406 C 314.105469 167.078125 314.019531 167.046875 313.949219 167 C 313.882812 166.953125 313.824219 166.890625 313.765625 166.824219 L 313.765625 166.820312 C 313.605469 166.933594 313.390625 166.957031 313.210938 166.882812 C 313.175781 166.871094 313.140625 166.851562 313.101562 166.855469 C 313.070312 166.855469 313.042969 166.871094 313.019531 166.886719 C 312.972656 166.910156 312.929688 166.9375 312.882812 166.960938 C 312.835938 166.882812 312.746094 166.851562 312.652344 166.839844 C 312.5625 166.824219 312.46875 166.832031 312.375 166.820312 C 312.25 166.804688 312.128906 166.75 312.035156 166.667969 C 311.976562 166.734375 311.902344 166.777344 311.820312 166.804688 C 311.757812 166.828125 311.691406 166.839844 311.625 166.828125 C 311.554688 166.8125 311.496094 166.769531 311.449219 166.71875 C 311.398438 166.664062 311.367188 166.589844 311.335938 166.527344 C 311.117188 166.601562 310.863281 166.558594 310.679688 166.417969 C 310.652344 166.417969 310.628906 166.421875 310.605469 166.429688 C 310.59375 166.4375 310.582031 166.441406 310.574219 166.453125 C 310.5625 166.46875 310.558594 166.492188 310.542969 166.503906 C 310.53125 166.492188 310.527344 166.46875 310.515625 166.453125 C 310.507812 166.441406 310.496094 166.4375 310.484375 166.429688 C 310.460938 166.421875 310.4375 166.417969 310.410156 166.417969 C 310.226562 166.558594 309.972656 166.601562 309.753906 166.527344 C 309.722656 166.59375 309.6875 166.664062 309.640625 166.71875 C 309.59375 166.769531 309.535156 166.8125 309.464844 166.828125 C 309.398438 166.839844 309.332031 166.828125 309.269531 166.804688 C 309.1875 166.777344 309.113281 166.734375 309.054688 166.667969 C 308.960938 166.75 308.839844 166.804688 308.714844 166.820312 C 308.621094 166.832031 308.527344 166.824219 308.4375 166.839844 C 308.34375 166.851562 308.253906 166.882812 308.207031 166.960938 C 308.160156 166.9375 308.117188 166.910156 308.070312 166.886719 C 308.046875 166.871094 308.019531 166.855469 307.988281 166.855469 C 307.949219 166.851562 307.914062 166.871094 307.878906 166.882812 C 307.699219 166.957031 307.484375 166.933594 307.324219 166.820312 L 307.324219 166.824219 C 307.265625 166.886719 307.210938 166.949219 307.140625 167 C 307.070312 167.046875 306.984375 167.078125 306.898438 167.066406 C 306.847656 167.058594 306.804688 167.039062 306.757812 167.015625 C 306.6875 166.972656 306.609375 166.902344 306.585938 166.820312 C 306.53125 166.835938 306.476562 166.847656 306.421875 166.863281 C 306.371094 166.875 306.320312 166.886719 306.269531 166.886719 C 306.195312 166.890625 306.125 166.867188 306.054688 166.847656 C 305.984375 166.828125 305.914062 166.808594 305.839844 166.8125 C 305.765625 166.816406 305.691406 166.851562 305.65625 166.914062 C 305.609375 166.816406 305.519531 166.734375 305.414062 166.714844 C 305.324219 166.695312 305.230469 166.714844 305.144531 166.699219 C 305.035156 166.675781 304.921875 166.59375 304.835938 166.523438 C 304.695312 166.609375 304.519531 166.636719 304.363281 166.597656 C 304.328125 166.585938 304.296875 166.574219 304.269531 166.554688 C 304.246094 166.53125 304.226562 166.503906 304.210938 166.472656 C 304.171875 166.386719 304.140625 166.296875 304.125 166.203125 C 304.027344 166.199219 303.921875 166.195312 303.832031 166.152344 C 303.753906 166.117188 303.691406 166.058594 303.628906 166.003906 C 303.558594 165.941406 303.515625 165.878906 303.4375 165.824219 C 303.40625 165.800781 303.34375 165.785156 303.308594 165.773438 C 303.269531 165.765625 303.230469 165.765625 303.199219 165.785156 C 303.226562 165.738281 303.21875 165.6875 303.203125 165.636719 C 303.15625 165.457031 302.992188 165.335938 302.917969 165.164062 C 302.863281 165.039062 302.863281 164.894531 302.875 164.757812 C 302.8125 164.6875 302.746094 164.605469 302.691406 164.53125 C 302.660156 164.480469 302.625 164.425781 302.621094 164.367188 C 302.617188 164.292969 302.660156 164.226562 302.707031 164.171875 C 302.757812 164.105469 302.820312 164.046875 302.890625 164 C 302.914062 163.984375 302.941406 163.972656 302.957031 163.949219 C 302.976562 163.929688 302.992188 163.902344 302.988281 163.875 C 302.964844 163.722656 303.011719 163.542969 303.105469 163.421875 C 303.148438 163.367188 303.203125 163.316406 303.242188 163.257812 C 303.292969 163.183594 303.316406 163.089844 303.296875 163.003906 C 303.289062 162.964844 303.269531 162.929688 303.261719 162.894531 C 303.234375 162.804688 303.25 162.710938 303.265625 162.625 C 303.316406 162.566406 303.324219 162.464844 303.296875 162.390625 C 303.273438 162.320312 303.222656 162.257812 303.175781 162.195312 C 303.109375 162.109375 303.046875 162.015625 303.007812 161.914062 C 302.964844 161.8125 302.945312 161.699219 302.964844 161.589844 C 302.894531 161.558594 302.828125 161.507812 302.773438 161.453125 C 302.722656 161.398438 302.679688 161.332031 302.664062 161.257812 C 302.644531 161.167969 302.667969 161.070312 302.710938 160.988281 C 302.757812 160.90625 302.828125 160.835938 302.902344 160.78125 C 302.863281 160.632812 302.851562 160.464844 302.921875 160.328125 C 302.957031 160.261719 303.007812 160.203125 303.054688 160.144531 C 303.105469 160.085938 303.15625 160.027344 303.1875 159.957031 C 303.21875 159.890625 303.230469 159.789062 303.199219 159.722656 C 303.230469 159.742188 303.273438 159.742188 303.308594 159.730469 C 303.34375 159.722656 303.375 159.699219 303.40625 159.679688 C 303.484375 159.625 303.558594 159.566406 303.628906 159.503906 C 303.691406 159.449219 303.753906 159.390625 303.832031 159.355469 C 303.921875 159.3125 304.027344 159.308594 304.125 159.304688 C 304.140625 159.210938 304.171875 159.121094 304.214844 159.035156 C 304.226562 159.003906 304.246094 158.972656 304.273438 158.953125 C 304.296875 158.929688 304.328125 158.917969 304.363281 158.910156 C 304.523438 158.867188 304.699219 158.894531 304.835938 158.984375 C 304.921875 158.914062 305.035156 158.828125 305.144531 158.808594 C 305.234375 158.792969 305.324219 158.808594 305.414062 158.792969 C 305.519531 158.773438 305.609375 158.691406 305.65625 158.59375 C 305.691406 158.65625 305.769531 158.6875 305.839844 158.695312 C 305.914062 158.699219 305.984375 158.679688 306.054688 158.660156 C 306.125 158.636719 306.195312 158.617188 306.269531 158.617188 C 306.320312 158.621094 306.371094 158.632812 306.421875 158.644531 C 306.476562 158.65625 306.53125 158.671875 306.585938 158.683594 C 306.609375 158.605469 306.6875 158.535156 306.761719 158.492188 C 306.804688 158.46875 306.851562 158.445312 306.898438 158.441406 C 306.984375 158.429688 307.070312 158.460938 307.140625 158.507812 C 307.210938 158.554688 307.265625 158.617188 307.324219 158.683594 C 307.484375 158.574219 307.699219 158.550781 307.878906 158.625 C 307.914062 158.636719 307.953125 158.65625 307.988281 158.652344 C 308.019531 158.652344 308.046875 158.636719 308.074219 158.621094 C 308.117188 158.59375 308.160156 158.570312 308.207031 158.542969 C 308.253906 158.625 308.34375 158.65625 308.4375 158.667969 C 308.53125 158.683594 308.625 158.675781 308.714844 158.6875 C 308.839844 158.703125 308.960938 158.753906 309.058594 158.839844 C 309.113281 158.773438 309.1875 158.730469 309.269531 158.703125 C 309.332031 158.679688 309.398438 158.667969 309.464844 158.679688 C 309.535156 158.691406 309.597656 158.734375 309.644531 158.789062 C 309.691406 158.839844 309.722656 158.914062 309.753906 158.980469 C 309.972656 158.90625 310.226562 158.949219 310.414062 159.085938 C 310.4375 159.089844 310.460938 159.085938 310.484375 159.074219 C 310.496094 159.070312 310.507812 159.0625 310.515625 159.054688 C 310.527344 159.039062 310.53125 159.015625 310.546875 159.003906 C 310.5625 159.015625 310.5625 159.039062 310.574219 159.054688 C 310.582031 159.066406 310.59375 159.070312 310.605469 159.074219 C 310.628906 159.085938 310.652344 159.089844 310.679688 159.085938 C 310.863281 158.949219 311.117188 158.90625 311.335938 158.980469 C 311.367188 158.914062 311.402344 158.839844 311.449219 158.789062 C 311.496094 158.734375 311.558594 158.695312 311.625 158.679688 C 311.691406 158.667969 311.757812 158.679688 311.820312 158.703125 C 311.902344 158.730469 311.976562 158.773438 312.035156 158.839844 C 312.128906 158.753906 312.25 158.703125 312.375 158.6875 C 312.46875 158.675781 312.5625 158.683594 312.652344 158.667969 C 312.746094 158.65625 312.835938 158.625 312.882812 158.542969 C 312.929688 158.570312 312.972656 158.59375 313.019531 158.621094 C 313.042969 158.636719 313.070312 158.648438 313.101562 158.652344 C 313.140625 158.65625 313.175781 158.636719 313.210938 158.625 C 313.390625 158.550781 313.605469 158.574219 313.765625 158.683594 C 313.824219 158.621094 313.882812 158.558594 313.953125 158.507812 C 314.023438 158.460938 314.105469 158.429688 314.191406 158.441406 C 314.242188 158.449219 314.289062 158.46875 314.332031 158.492188 C 314.40625 158.535156 314.480469 158.605469 314.507812 158.6875 C 314.558594 158.671875 314.617188 158.660156 314.667969 158.644531 C 314.71875 158.632812 314.769531 158.621094 314.820312 158.621094 C 314.894531 158.617188 314.964844 158.640625 315.035156 158.660156 C 315.105469 158.679688 315.175781 158.699219 315.25 158.695312 C 315.324219 158.691406 315.398438 158.65625 315.433594 158.59375 C 315.480469 158.691406 315.570312 158.773438 315.675781 158.792969 C 315.765625 158.8125 315.859375 158.792969 315.945312 158.808594 C 316.054688 158.832031 316.167969 158.914062 316.253906 158.984375 C 316.394531 158.898438 316.570312 158.871094 316.726562 158.910156 C 316.761719 158.921875 316.792969 158.933594 316.820312 158.953125 C 316.84375 158.976562 316.863281 159.003906 316.878906 159.035156 C 316.917969 159.121094 316.949219 159.210938 316.964844 159.304688 C 317.0625 159.308594 317.167969 159.3125 317.257812 159.355469 C 317.335938 159.390625 317.398438 159.449219 317.460938 159.503906 C 317.535156 159.566406 317.59375 159.636719 317.671875 159.691406 C 317.703125 159.710938 317.75 159.722656 317.785156 159.734375 C 317.820312 159.742188 317.859375 159.742188 317.890625 159.722656 C 317.859375 159.792969 317.867188 159.890625 317.898438 159.960938 C 317.929688 160.027344 317.980469 160.085938 318.03125 160.144531 C 318.078125 160.203125 318.128906 160.261719 318.164062 160.328125 C 318.234375 160.46875 318.222656 160.632812 318.183594 160.78125 C 318.257812 160.839844 318.328125 160.910156 318.375 160.988281 C 318.417969 161.070312 318.441406 161.167969 318.421875 161.257812 C 318.40625 161.332031 318.363281 161.402344 318.3125 161.457031 C 318.257812 161.507812 318.191406 161.558594 318.121094 161.59375 C 318.140625 161.699219 318.121094 161.8125 318.078125 161.914062 C 318.039062 162.015625 317.976562 162.109375 317.910156 162.199219 C 317.863281 162.257812 317.8125 162.320312 317.789062 162.394531 C 317.761719 162.464844 317.769531 162.566406 317.820312 162.625 C 317.835938 162.714844 317.847656 162.808594 317.824219 162.894531 C 317.816406 162.929688 317.796875 162.964844 317.789062 163.003906 C 317.769531 163.089844 317.792969 163.183594 317.84375 163.261719 C 317.882812 163.320312 317.9375 163.367188 317.980469 163.421875 C 318.074219 163.542969 318.121094 163.722656 318.097656 163.875 C 318.09375 163.902344 318.109375 163.929688 318.128906 163.953125 C 318.144531 163.972656 318.171875 163.988281 318.195312 164.003906 C 318.265625 164.050781 318.328125 164.105469 318.378906 164.171875 C 318.425781 164.226562 318.46875 164.296875 318.464844 164.367188 C 318.457031 164.429688 318.425781 164.480469 318.394531 164.53125 Z M 318.394531 164.53125 " fill-opacity="1" fill-rule="nonzero"/><path fill="#ffffff" d="M 302.53125 158.332031 L 318.558594 158.332031 L 318.558594 167.179688 L 302.53125 167.179688 Z M 302.53125 158.332031 " fill-opacity="1" fill-rule="nonzero"/></g><g fill="#000000" fill-opacity="1"><g transform="translate(155.374388, 231.220898)"><g><path d="M 5.140625 0.078125 C 4.285156 0.078125 3.515625 -0.109375 2.828125 -0.484375 C 2.148438 -0.867188 1.613281 -1.394531 1.21875 -2.0625 C 0.832031 -2.726562 0.640625 -3.476562 0.640625 -4.3125 C 0.640625 -5.132812 0.832031 -5.878906 1.21875 -6.546875 C 1.613281 -7.222656 2.15625 -7.75 2.84375 -8.125 C 3.53125 -8.5 4.300781 -8.6875 5.15625 -8.6875 C 5.800781 -8.6875 6.394531 -8.578125 6.9375 -8.359375 C 7.476562 -8.148438 7.9375 -7.84375 8.3125 -7.4375 L 7.734375 -6.859375 C 7.054688 -7.535156 6.207031 -7.875 5.1875 -7.875 C 4.5 -7.875 3.875 -7.71875 3.3125 -7.40625 C 2.757812 -7.09375 2.320312 -6.664062 2 -6.125 C 1.6875 -5.582031 1.53125 -4.976562 1.53125 -4.3125 C 1.53125 -3.632812 1.6875 -3.023438 2 -2.484375 C 2.320312 -1.941406 2.757812 -1.515625 3.3125 -1.203125 C 3.875 -0.890625 4.5 -0.734375 5.1875 -0.734375 C 6.21875 -0.734375 7.066406 -1.078125 7.734375 -1.765625 L 8.3125 -1.1875 C 7.9375 -0.78125 7.472656 -0.46875 6.921875 -0.25 C 6.378906 -0.03125 5.785156 0.078125 5.140625 0.078125 Z M 5.140625 0.078125 "/></g></g></g><g fill="#000000" fill-opacity="1"><g transform="translate(162.916388, 231.220898)"><g><path d="M 7.28125 0 L 5.3125 -2.765625 C 5.09375 -2.742188 4.863281 -2.734375 4.625 -2.734375 L 2.3125 -2.734375 L 2.3125 0 L 1.40625 0 L 1.40625 -8.625 L 4.625 -8.625 C 5.726562 -8.625 6.59375 -8.359375 7.21875 -7.828125 C 7.84375 -7.304688 8.15625 -6.582031 8.15625 -5.65625 C 8.15625 -4.988281 7.984375 -4.421875 7.640625 -3.953125 C 7.296875 -3.492188 6.8125 -3.160156 6.1875 -2.953125 L 8.28125 0 Z M 4.609375 -3.515625 C 5.460938 -3.515625 6.113281 -3.703125 6.5625 -4.078125 C 7.007812 -4.453125 7.234375 -4.976562 7.234375 -5.65625 C 7.234375 -6.351562 7.007812 -6.890625 6.5625 -7.265625 C 6.113281 -7.640625 5.460938 -7.828125 4.609375 -7.828125 L 2.3125 -7.828125 L 2.3125 -3.515625 Z M 4.609375 -3.515625 "/></g></g></g><g fill="#000000" fill-opacity="1"><g transform="translate(170.507608, 231.220898)"><g><path d="M 7.5 -0.78125 L 7.5 0 L 1.40625 0 L 1.40625 -8.625 L 7.3125 -8.625 L 7.3125 -7.828125 L 2.3125 -7.828125 L 2.3125 -4.765625 L 6.765625 -4.765625 L 6.765625 -3.984375 L 2.3125 -3.984375 L 2.3125 -0.78125 Z M 7.5 -0.78125 "/></g></g></g><g fill="#000000" fill-opacity="1"><g transform="translate(177.434373, 231.220898)"><g><path d="M 6.8125 -2.296875 L 2 -2.296875 L 0.96875 0 L 0.03125 0 L 3.96875 -8.625 L 4.859375 -8.625 L 8.796875 0 L 7.84375 0 Z M 6.46875 -3.046875 L 4.40625 -7.671875 L 2.34375 -3.046875 Z M 6.46875 -3.046875 "/></g></g></g><g fill="#000000" fill-opacity="1"><g transform="translate(184.951768, 231.220898)"><g><path d="M 3.078125 -7.828125 L 0.046875 -7.828125 L 0.046875 -8.625 L 7.015625 -8.625 L 7.015625 -7.828125 L 3.984375 -7.828125 L 3.984375 0 L 3.078125 0 Z M 3.078125 -7.828125 "/></g></g></g><g fill="#000000" fill-opacity="1"><g transform="translate(190.709587, 231.220898)"><g><path d="M 1.40625 -8.625 L 2.3125 -8.625 L 2.3125 0 L 1.40625 0 Z M 1.40625 -8.625 "/></g></g></g><g fill="#000000" fill-opacity="1"><g transform="translate(193.120514, 231.220898)"><g><path d="M 5.171875 0.078125 C 4.316406 0.078125 3.539062 -0.113281 2.84375 -0.5 C 2.15625 -0.882812 1.613281 -1.40625 1.21875 -2.0625 C 0.832031 -2.726562 0.640625 -3.476562 0.640625 -4.3125 C 0.640625 -5.132812 0.832031 -5.878906 1.21875 -6.546875 C 1.613281 -7.210938 2.15625 -7.734375 2.84375 -8.109375 C 3.539062 -8.492188 4.316406 -8.6875 5.171875 -8.6875 C 6.023438 -8.6875 6.796875 -8.5 7.484375 -8.125 C 8.171875 -7.75 8.707031 -7.222656 9.09375 -6.546875 C 9.488281 -5.878906 9.6875 -5.132812 9.6875 -4.3125 C 9.6875 -3.476562 9.488281 -2.726562 9.09375 -2.0625 C 8.707031 -1.394531 8.171875 -0.867188 7.484375 -0.484375 C 6.796875 -0.109375 6.023438 0.078125 5.171875 0.078125 Z M 5.171875 -0.734375 C 5.847656 -0.734375 6.460938 -0.882812 7.015625 -1.1875 C 7.566406 -1.5 8 -1.925781 8.3125 -2.46875 C 8.625 -3.019531 8.78125 -3.632812 8.78125 -4.3125 C 8.78125 -4.976562 8.625 -5.582031 8.3125 -6.125 C 8 -6.675781 7.566406 -7.101562 7.015625 -7.40625 C 6.460938 -7.71875 5.847656 -7.875 5.171875 -7.875 C 4.492188 -7.875 3.875 -7.71875 3.3125 -7.40625 C 2.757812 -7.101562 2.320312 -6.675781 2 -6.125 C 1.6875 -5.582031 1.53125 -4.976562 1.53125 -4.3125 C 1.53125 -3.632812 1.6875 -3.019531 2 -2.46875 C 2.320312 -1.925781 2.757812 -1.5 3.3125 -1.1875 C 3.875 -0.882812 4.492188 -0.734375 5.171875 -0.734375 Z M 5.171875 -0.734375 "/></g></g></g><g fill="#000000" fill-opacity="1"><g transform="translate(202.139076, 231.220898)"><g><path d="M 8.609375 -8.625 L 8.609375 0 L 7.859375 0 L 2.3125 -7 L 2.3125 0 L 1.40625 0 L 1.40625 -8.625 L 2.15625 -8.625 L 7.703125 -1.625 L 7.703125 -8.625 Z M 8.609375 -8.625 "/></g></g></g><g fill="#000000" fill-opacity="1"><g transform="translate(210.837718, 231.220898)"><g><path d="M 3.78125 0.078125 C 3.132812 0.078125 2.519531 -0.0234375 1.9375 -0.234375 C 1.351562 -0.441406 0.898438 -0.710938 0.578125 -1.046875 L 0.9375 -1.75 C 1.25 -1.4375 1.660156 -1.179688 2.171875 -0.984375 C 2.691406 -0.796875 3.226562 -0.703125 3.78125 -0.703125 C 4.550781 -0.703125 5.128906 -0.84375 5.515625 -1.125 C 5.898438 -1.40625 6.09375 -1.773438 6.09375 -2.234375 C 6.09375 -2.578125 5.988281 -2.847656 5.78125 -3.046875 C 5.570312 -3.253906 5.316406 -3.410156 5.015625 -3.515625 C 4.710938 -3.628906 4.289062 -3.753906 3.75 -3.890625 C 3.09375 -4.054688 2.570312 -4.210938 2.1875 -4.359375 C 1.800781 -4.515625 1.46875 -4.75 1.1875 -5.0625 C 0.914062 -5.375 0.78125 -5.796875 0.78125 -6.328125 C 0.78125 -6.765625 0.894531 -7.160156 1.125 -7.515625 C 1.363281 -7.867188 1.71875 -8.148438 2.1875 -8.359375 C 2.664062 -8.578125 3.257812 -8.6875 3.96875 -8.6875 C 4.457031 -8.6875 4.9375 -8.617188 5.40625 -8.484375 C 5.882812 -8.347656 6.296875 -8.160156 6.640625 -7.921875 L 6.328125 -7.203125 C 5.960938 -7.441406 5.578125 -7.617188 5.171875 -7.734375 C 4.765625 -7.859375 4.363281 -7.921875 3.96875 -7.921875 C 3.207031 -7.921875 2.632812 -7.773438 2.25 -7.484375 C 1.875 -7.191406 1.6875 -6.816406 1.6875 -6.359375 C 1.6875 -6.015625 1.789062 -5.734375 2 -5.515625 C 2.207031 -5.304688 2.46875 -5.144531 2.78125 -5.03125 C 3.101562 -4.925781 3.53125 -4.804688 4.0625 -4.671875 C 4.695312 -4.515625 5.207031 -4.359375 5.59375 -4.203125 C 5.988281 -4.054688 6.320312 -3.828125 6.59375 -3.515625 C 6.863281 -3.210938 7 -2.800781 7 -2.28125 C 7 -1.84375 6.878906 -1.441406 6.640625 -1.078125 C 6.410156 -0.722656 6.050781 -0.441406 5.5625 -0.234375 C 5.082031 -0.0234375 4.488281 0.078125 3.78125 0.078125 Z M 3.78125 0.078125 "/></g></g></g></svg>