<svg xmlns="http://www.w3.org/2000/svg" xmlns:xlink="http://www.w3.org/1999/xlink" width="500" zoomAndPan="magnify" viewBox="0 0 375 374.999991" height="500" preserveAspectRatio="xMidYMid meet" version="1.0"><defs><g/><clipPath id="8914b1805f"><path d="M 123 200.402344 L 266 200.402344 L 266 203.402344 L 123 203.402344 Z M 123 200.402344 " clip-rule="nonzero"/></clipPath><clipPath id="ebcaa5a454"><path d="M 0 132 L 53 132 L 53 205 L 0 205 Z M 0 132 " clip-rule="nonzero"/></clipPath><clipPath id="92f1504d02"><path d="M -20.726562 129.929688 L 54.605469 201.992188 L 49.941406 206.871094 L -25.390625 134.808594 Z M -20.726562 129.929688 " clip-rule="nonzero"/></clipPath><clipPath id="684e4326bb"><path d="M -20.726562 129.929688 L 54.605469 201.992188 L 49.941406 206.871094 L -25.390625 134.808594 Z M -20.726562 129.929688 " clip-rule="nonzero"/></clipPath><clipPath id="96af7c073b"><path d="M 91 185.3125 L 237 185.3125 L 237 195.0625 L 91 195.0625 Z M 91 185.3125 " clip-rule="nonzero"/></clipPath><clipPath id="ed67a13d9d"><path d="M 148 59 L 241 59 L 241 178 L 148 178 Z M 148 59 " clip-rule="nonzero"/></clipPath><clipPath id="d2a313bd3f"><path d="M 243.253906 62.003906 L 153.601562 180.386719 L 145.828125 174.503906 L 235.480469 56.117188 Z M 243.253906 62.003906 " clip-rule="nonzero"/></clipPath><clipPath id="bcdd28200e"><path d="M 243.253906 62.003906 L 153.601562 180.386719 L 145.828125 174.503906 L 235.480469 56.117188 Z M 243.253906 62.003906 " clip-rule="nonzero"/></clipPath><clipPath id="964bbdb12e"><path d="M 239 185.3125 L 375 185.3125 L 375 195.0625 L 239 195.0625 Z M 239 185.3125 " clip-rule="nonzero"/></clipPath><clipPath id="17bb95e723"><path d="M 218 129 L 259 129 L 259 272 L 218 272 Z M 218 129 " clip-rule="nonzero"/></clipPath><clipPath id="81d34b9fe5"><path d="M 259.242188 129.140625 L 226.992188 274.09375 L 217.476562 271.976562 L 249.726562 127.023438 Z M 259.242188 129.140625 " clip-rule="nonzero"/></clipPath><clipPath id="bf1fefd8b3"><path d="M 259.242188 129.140625 L 226.992188 274.09375 L 217.476562 271.976562 L 249.726562 127.023438 Z M 259.242188 129.140625 " clip-rule="nonzero"/></clipPath><clipPath id="961b0c0c4d"><path d="M 308.890625 166 L 324.640625 166 L 324.640625 174.945312 L 308.890625 174.945312 Z M 308.890625 166 " clip-rule="nonzero"/></clipPath><clipPath id="96532953b4"><path d="M 308.890625 165.945312 L 324.640625 165.945312 L 324.640625 174.945312 L 308.890625 174.945312 Z M 308.890625 165.945312 " clip-rule="nonzero"/></clipPath></defs><g clip-path="url(#8914b1805f)"><path fill="#121212" d="M 194.691406 202.871094 C 190.050781 202.925781 185.414062 202.945312 180.769531 203.050781 C 176.890625 203.140625 173.015625 203.363281 169.136719 203.457031 C 164.957031 203.558594 160.78125 203.628906 156.605469 203.621094 C 150.421875 203.613281 144.238281 203.546875 138.058594 203.457031 C 135.089844 203.417969 132.121094 203.304688 129.15625 203.148438 C 127.671875 203.074219 126.199219 202.832031 124.722656 202.664062 C 124.441406 202.632812 124.160156 202.609375 123.886719 202.546875 C 123.757812 202.519531 123.652344 202.402344 123.535156 202.324219 C 123.65625 202.246094 123.769531 202.101562 123.894531 202.097656 C 124.5625 202.066406 125.226562 202.066406 125.898438 202.070312 C 128.980469 202.097656 132.066406 202.132812 135.148438 202.152344 C 135.882812 202.160156 136.613281 202.136719 137.347656 202.121094 C 139.671875 202.078125 142 202.023438 144.328125 201.992188 C 145.546875 201.976562 146.769531 202.007812 147.988281 202.003906 C 153.027344 202.003906 158.066406 202.003906 163.105469 201.984375 C 164.753906 201.980469 166.394531 201.9375 168.042969 201.882812 C 171.109375 201.773438 174.179688 201.640625 177.25 201.527344 C 178.378906 201.488281 179.511719 201.453125 180.640625 201.4375 C 188.609375 201.324219 196.578125 201.207031 204.546875 201.113281 C 210.203125 201.046875 215.855469 200.992188 221.511719 200.976562 C 224.351562 200.972656 227.191406 201.105469 230.035156 201.097656 C 232.988281 201.089844 235.953125 201.121094 238.898438 200.914062 C 245.332031 200.472656 251.78125 200.414062 258.230469 200.4375 C 259.914062 200.445312 261.59375 200.578125 263.277344 200.628906 C 263.898438 200.644531 264.527344 200.550781 265.152344 200.542969 C 265.335938 200.542969 265.578125 200.609375 265.683594 200.738281 C 265.78125 200.847656 265.796875 201.136719 265.714844 201.253906 C 265.625 201.390625 265.394531 201.46875 265.210938 201.5 C 264.671875 201.589844 264.128906 201.664062 263.585938 201.71875 C 263.109375 201.761719 262.636719 201.785156 262.164062 201.785156 C 256.121094 201.796875 250.078125 201.746094 244.035156 201.816406 C 239.757812 201.871094 235.480469 202.097656 231.203125 202.230469 C 229.378906 202.285156 227.554688 202.285156 225.726562 202.328125 C 222.582031 202.402344 219.429688 202.492188 216.285156 202.574219 C 213.316406 202.648438 210.351562 202.765625 207.378906 202.792969 C 203.152344 202.828125 198.921875 202.800781 194.695312 202.800781 C 194.695312 202.824219 194.695312 202.847656 194.695312 202.871094 Z M 194.691406 202.871094 " fill-opacity="1" fill-rule="nonzero"/></g><g fill="#ffffff" fill-opacity="1"><g transform="translate(34.044337, 202.94205)"><g><path d="M 15.609375 -49.9375 L 27.609375 -17.875 L 39.09375 -49.9375 L 45.9375 -49.9375 L 53.21875 0 L 43.671875 0 L 39.8125 -30.1875 L 39.671875 -30.1875 L 28.640625 0.640625 L 25.359375 0.640625 L 14.703125 -30.1875 L 14.578125 -30.1875 L 10.265625 0 L 0.703125 0 L 8.90625 -49.9375 Z M 15.609375 -49.9375 "/></g></g></g><g fill="#ffffff" fill-opacity="1"><g transform="translate(81.146173, 202.94205)"><g/></g></g><g clip-path="url(#ebcaa5a454)"><g clip-path="url(#92f1504d02)"><g clip-path="url(#684e4326bb)"><path fill="#121212" d="M 51.449219 198.976562 L -17.546875 132.972656 C -18.90625 131.667969 -21.066406 131.71875 -22.367188 133.078125 C -23.671875 134.4375 -23.621094 136.597656 -22.261719 137.898438 L 46.738281 203.902344 C 48.097656 205.207031 50.257812 205.15625 51.558594 203.796875 C 52.859375 202.4375 52.8125 200.277344 51.449219 198.976562 Z M 51.449219 198.976562 " fill-opacity="1" fill-rule="nonzero"/></g></g></g><g fill="#ffffff" fill-opacity="1"><g transform="translate(98.258487, 202.94205)"><g><path d="M 25.734375 -49.9375 L 44.1875 0 L 34.0625 0 L 30.328125 -10.265625 L 13.421875 -10.265625 L 9.421875 0 L -0.578125 0 L 18.390625 -49.9375 Z M 16.125 -18 L 27.671875 -18 L 21.609375 -35.671875 L 21.484375 -35.671875 Z M 16.125 -18 "/></g></g></g><g clip-path="url(#96af7c073b)"><path fill="#121212" d="M 231.769531 185.3125 L 96.089844 185.3125 C 93.414062 185.3125 91.246094 187.484375 91.246094 190.160156 C 91.246094 192.835938 93.414062 195.003906 96.089844 195.003906 L 231.769531 195.003906 C 234.445312 195.003906 236.617188 192.835938 236.617188 190.160156 C 236.617188 187.484375 234.445312 185.3125 231.769531 185.3125 Z M 231.769531 185.3125 " fill-opacity="1" fill-rule="nonzero"/></g><g fill="#ffffff" fill-opacity="1"><g transform="translate(160.530112, 202.94205)"><g><path d="M 12.96875 -48.640625 L 12.96875 -28.125 L 13.09375 -28.125 L 28.125 -48.640625 L 39.8125 -48.640625 L 21.359375 -26.1875 L 40.84375 0 L 28.640625 0 L 13.09375 -21.875 L 12.96875 -21.875 L 12.96875 0 L 3.484375 0 L 3.484375 -48.640625 Z M 12.96875 -48.640625 "/></g></g></g><g clip-path="url(#ed67a13d9d)"><g clip-path="url(#d2a313bd3f)"><g clip-path="url(#bcdd28200e)"><path fill="#121212" d="M 157.574219 175.144531 L 239.484375 66.980469 C 241.101562 64.847656 240.679688 61.808594 238.546875 60.191406 C 236.414062 58.574219 233.375 58.996094 231.761719 61.128906 L 149.847656 169.292969 C 148.230469 171.425781 148.652344 174.464844 150.785156 176.082031 C 152.917969 177.695312 155.957031 177.277344 157.574219 175.144531 Z M 157.574219 175.144531 " fill-opacity="1" fill-rule="nonzero"/></g></g></g><g fill="#ffffff" fill-opacity="1"><g transform="translate(254.739569, 202.94205)"><g><path d="M 25.734375 -49.9375 L 44.1875 0 L 34.0625 0 L 30.328125 -10.265625 L 13.421875 -10.265625 L 9.421875 0 L -0.578125 0 L 18.390625 -49.9375 Z M 16.125 -18 L 27.671875 -18 L 21.609375 -35.671875 L 21.484375 -35.671875 Z M 16.125 -18 "/></g></g></g><g clip-path="url(#964bbdb12e)"><path fill="#121212" d="M 379.941406 185.3125 L 244.261719 185.3125 C 241.585938 185.3125 239.414062 187.484375 239.414062 190.160156 C 239.414062 192.835938 241.585938 195.003906 244.261719 195.003906 L 379.941406 195.003906 C 382.617188 195.003906 384.785156 192.835938 384.785156 190.160156 C 384.785156 187.484375 382.617188 185.3125 379.941406 185.3125 Z M 379.941406 185.3125 " fill-opacity="1" fill-rule="nonzero"/></g><g fill="#ffffff" fill-opacity="1"><g transform="translate(310.777894, 202.94205)"><g><path d="M 16.578125 -48.640625 C 21.703125 -48.640625 25.648438 -47.378906 28.421875 -44.859375 C 31.191406 -42.347656 32.578125 -38.726562 32.578125 -34 C 32.578125 -30.5625 31.640625 -27.5625 29.765625 -25 C 27.898438 -22.4375 25.523438 -20.941406 22.640625 -20.515625 L 36.390625 0 L 24.90625 0 L 13.09375 -19.609375 L 12.96875 -19.609375 L 12.96875 0 L 3.484375 0 L 3.484375 -48.640625 Z M 12.96875 -26.265625 L 14 -26.265625 C 17.269531 -26.265625 19.601562 -26.863281 21 -28.0625 C 22.394531 -29.269531 23.09375 -31.160156 23.09375 -33.734375 C 23.09375 -36.273438 22.40625 -38.101562 21.03125 -39.21875 C 19.65625 -40.34375 17.351562 -40.90625 14.125 -40.90625 L 12.96875 -40.90625 Z M 12.96875 -26.265625 "/></g></g></g><g fill="#ffffff" fill-opacity="1"><g transform="translate(213.367226, 202.94205)"><g><path d="M 12.96875 -48.640625 L 12.96875 -8.265625 L 26.390625 -8.265625 L 26.390625 0 L 3.484375 0 L 3.484375 -48.640625 Z M 12.96875 -48.640625 "/></g></g></g><g clip-path="url(#17bb95e723)"><g clip-path="url(#81d34b9fe5)"><g clip-path="url(#bf1fefd8b3)"><path fill="#121212" d="M 228.421875 267.671875 L 257.890625 135.230469 C 258.46875 132.617188 256.824219 130.03125 254.210938 129.449219 C 251.597656 128.867188 249.011719 130.515625 248.429688 133.125 L 218.960938 265.566406 C 218.382812 268.179688 220.027344 270.769531 222.640625 271.351562 C 225.253906 271.929688 227.839844 270.285156 228.421875 267.671875 Z M 228.421875 267.671875 " fill-opacity="1" fill-rule="nonzero"/></g></g></g><g clip-path="url(#961b0c0c4d)"><path fill="#ff0013" d="M 324.566406 172.074219 C 324.515625 172.148438 324.445312 172.230469 324.382812 172.296875 C 324.398438 172.433594 324.398438 172.574219 324.34375 172.699219 C 324.269531 172.867188 324.109375 172.988281 324.058594 173.164062 C 324.042969 173.214844 324.042969 173.265625 324.070312 173.3125 C 324.039062 173.292969 324 173.292969 323.964844 173.300781 C 323.929688 173.3125 323.882812 173.324219 323.855469 173.34375 C 323.777344 173.398438 323.71875 173.464844 323.644531 173.527344 C 323.582031 173.582031 323.519531 173.640625 323.445312 173.675781 C 323.355469 173.714844 323.253906 173.71875 323.15625 173.726562 C 323.140625 173.816406 323.109375 173.90625 323.070312 173.992188 C 323.054688 174.019531 323.035156 174.050781 323.011719 174.074219 C 322.984375 174.09375 322.953125 174.105469 322.921875 174.113281 C 322.765625 174.15625 322.589844 174.128906 322.453125 174.042969 C 322.367188 174.109375 322.257812 174.191406 322.148438 174.214844 C 322.0625 174.230469 321.96875 174.214844 321.882812 174.230469 C 321.777344 174.25 321.6875 174.332031 321.644531 174.425781 C 321.605469 174.363281 321.53125 174.332031 321.460938 174.328125 C 321.390625 174.324219 321.316406 174.34375 321.25 174.363281 C 321.179688 174.382812 321.109375 174.402344 321.035156 174.402344 C 320.984375 174.402344 320.9375 174.386719 320.886719 174.375 C 320.832031 174.363281 320.777344 174.351562 320.726562 174.335938 C 320.699219 174.417969 320.625 174.484375 320.550781 174.527344 C 320.507812 174.550781 320.464844 174.570312 320.414062 174.578125 C 320.332031 174.589844 320.246094 174.558594 320.175781 174.511719 C 320.109375 174.464844 320.050781 174.402344 319.996094 174.339844 L 319.996094 174.335938 C 319.835938 174.445312 319.621094 174.46875 319.445312 174.394531 C 319.410156 174.382812 319.375 174.363281 319.335938 174.367188 C 319.308594 174.371094 319.28125 174.382812 319.253906 174.398438 C 319.210938 174.421875 319.167969 174.449219 319.125 174.472656 C 319.078125 174.394531 318.984375 174.363281 318.894531 174.351562 C 318.804688 174.339844 318.710938 174.347656 318.621094 174.335938 C 318.496094 174.320312 318.378906 174.265625 318.28125 174.183594 C 318.226562 174.25 318.152344 174.289062 318.070312 174.320312 C 318.011719 174.339844 317.945312 174.351562 317.878906 174.339844 C 317.8125 174.328125 317.75 174.285156 317.703125 174.234375 C 317.65625 174.179688 317.625 174.109375 317.59375 174.042969 C 317.378906 174.117188 317.125 174.074219 316.945312 173.9375 C 316.917969 173.933594 316.894531 173.9375 316.871094 173.949219 C 316.859375 173.953125 316.847656 173.960938 316.839844 173.96875 C 316.828125 173.984375 316.828125 174.007812 316.8125 174.019531 C 316.796875 174.007812 316.792969 173.984375 316.78125 173.96875 C 316.773438 173.960938 316.765625 173.953125 316.753906 173.949219 C 316.730469 173.9375 316.703125 173.933594 316.679688 173.9375 C 316.5 174.074219 316.246094 174.117188 316.03125 174.042969 C 316 174.109375 315.964844 174.179688 315.921875 174.234375 C 315.875 174.285156 315.8125 174.328125 315.746094 174.339844 C 315.679688 174.351562 315.613281 174.339844 315.550781 174.320312 C 315.472656 174.289062 315.398438 174.25 315.339844 174.183594 C 315.246094 174.265625 315.128906 174.320312 315.003906 174.335938 C 314.914062 174.347656 314.820312 174.339844 314.730469 174.351562 C 314.636719 174.363281 314.546875 174.394531 314.5 174.472656 C 314.457031 174.449219 314.414062 174.421875 314.367188 174.398438 C 314.34375 174.382812 314.316406 174.371094 314.285156 174.367188 C 314.25 174.363281 314.214844 174.382812 314.179688 174.394531 C 314 174.46875 313.789062 174.445312 313.628906 174.335938 L 313.628906 174.339844 C 313.574219 174.402344 313.515625 174.464844 313.445312 174.511719 C 313.378906 174.558594 313.292969 174.585938 313.210938 174.578125 C 313.160156 174.570312 313.113281 174.550781 313.070312 174.527344 C 313 174.484375 312.921875 174.414062 312.898438 174.335938 C 312.84375 174.347656 312.789062 174.363281 312.738281 174.375 C 312.6875 174.386719 312.636719 174.398438 312.585938 174.402344 C 312.515625 174.402344 312.445312 174.382812 312.375 174.359375 C 312.304688 174.339844 312.234375 174.320312 312.164062 174.328125 C 312.089844 174.332031 312.015625 174.363281 311.980469 174.425781 C 311.9375 174.328125 311.84375 174.25 311.742188 174.230469 C 311.652344 174.210938 311.5625 174.230469 311.476562 174.210938 C 311.367188 174.191406 311.257812 174.109375 311.171875 174.039062 C 311.035156 174.125 310.859375 174.152344 310.703125 174.113281 C 310.671875 174.105469 310.640625 174.09375 310.613281 174.070312 C 310.585938 174.050781 310.570312 174.019531 310.554688 173.988281 C 310.511719 173.90625 310.484375 173.816406 310.46875 173.722656 C 310.371094 173.71875 310.269531 173.714844 310.179688 173.675781 C 310.101562 173.640625 310.042969 173.582031 309.976562 173.527344 C 309.90625 173.464844 309.863281 173.402344 309.789062 173.347656 C 309.757812 173.328125 309.695312 173.3125 309.660156 173.300781 C 309.625 173.289062 309.585938 173.289062 309.554688 173.3125 C 309.578125 173.265625 309.574219 173.214844 309.558594 173.164062 C 309.507812 172.988281 309.347656 172.867188 309.277344 172.699219 C 309.222656 172.574219 309.21875 172.433594 309.234375 172.296875 C 309.171875 172.226562 309.105469 172.148438 309.050781 172.070312 C 309.019531 172.023438 308.988281 171.96875 308.984375 171.910156 C 308.980469 171.839844 309.019531 171.769531 309.066406 171.714844 C 309.121094 171.652344 309.179688 171.59375 309.25 171.550781 C 309.273438 171.535156 309.296875 171.519531 309.316406 171.5 C 309.335938 171.476562 309.347656 171.449219 309.34375 171.421875 C 309.324219 171.269531 309.367188 171.09375 309.460938 170.976562 C 309.503906 170.921875 309.558594 170.871094 309.597656 170.816406 C 309.648438 170.742188 309.671875 170.648438 309.648438 170.5625 C 309.640625 170.523438 309.625 170.488281 309.613281 170.453125 C 309.589844 170.367188 309.605469 170.273438 309.617188 170.1875 C 309.667969 170.128906 309.679688 170.03125 309.652344 169.957031 C 309.625 169.886719 309.578125 169.824219 309.53125 169.765625 C 309.464844 169.679688 309.40625 169.585938 309.363281 169.484375 C 309.324219 169.382812 309.304688 169.273438 309.320312 169.167969 C 309.253906 169.132812 309.1875 169.085938 309.132812 169.03125 C 309.082031 168.976562 309.039062 168.910156 309.027344 168.839844 C 309.007812 168.746094 309.027344 168.652344 309.074219 168.570312 C 309.117188 168.492188 309.1875 168.421875 309.261719 168.367188 C 309.222656 168.21875 309.210938 168.054688 309.28125 167.917969 C 309.3125 167.851562 309.363281 167.792969 309.414062 167.738281 C 309.460938 167.679688 309.511719 167.621094 309.542969 167.554688 C 309.570312 167.484375 309.585938 167.386719 309.554688 167.320312 C 309.585938 167.339844 309.625 167.339844 309.660156 167.332031 C 309.695312 167.320312 309.726562 167.300781 309.757812 167.277344 C 309.835938 167.222656 309.90625 167.164062 309.980469 167.101562 C 310.042969 167.050781 310.105469 166.992188 310.179688 166.957031 C 310.269531 166.914062 310.371094 166.910156 310.46875 166.90625 C 310.484375 166.8125 310.515625 166.722656 310.554688 166.640625 C 310.570312 166.609375 310.589844 166.582031 310.613281 166.558594 C 310.640625 166.539062 310.671875 166.527344 310.703125 166.519531 C 310.859375 166.476562 311.035156 166.503906 311.171875 166.589844 C 311.257812 166.519531 311.367188 166.4375 311.476562 166.417969 C 311.5625 166.402344 311.652344 166.417969 311.742188 166.402344 C 311.847656 166.382812 311.9375 166.300781 311.980469 166.203125 C 312.015625 166.265625 312.089844 166.300781 312.164062 166.304688 C 312.234375 166.308594 312.308594 166.289062 312.375 166.269531 C 312.445312 166.25 312.515625 166.230469 312.589844 166.230469 C 312.636719 166.230469 312.6875 166.242188 312.738281 166.253906 C 312.792969 166.269531 312.84375 166.28125 312.898438 166.296875 C 312.925781 166.214844 313 166.144531 313.070312 166.105469 C 313.113281 166.078125 313.160156 166.058594 313.210938 166.054688 C 313.292969 166.042969 313.378906 166.074219 313.445312 166.121094 C 313.515625 166.167969 313.574219 166.230469 313.628906 166.292969 L 313.628906 166.296875 C 313.789062 166.1875 314 166.164062 314.179688 166.234375 C 314.214844 166.25 314.25 166.265625 314.285156 166.261719 C 314.316406 166.261719 314.34375 166.246094 314.371094 166.230469 C 314.414062 166.207031 314.457031 166.183594 314.5 166.15625 C 314.546875 166.234375 314.640625 166.265625 314.730469 166.28125 C 314.820312 166.292969 314.914062 166.285156 315.003906 166.296875 C 315.128906 166.3125 315.246094 166.363281 315.339844 166.445312 C 315.398438 166.382812 315.472656 166.339844 315.554688 166.3125 C 315.613281 166.289062 315.679688 166.277344 315.746094 166.289062 C 315.8125 166.304688 315.875 166.34375 315.921875 166.398438 C 315.96875 166.449219 316 166.523438 316.03125 166.585938 C 316.246094 166.515625 316.5 166.554688 316.679688 166.691406 C 316.707031 166.695312 316.730469 166.691406 316.753906 166.679688 C 316.765625 166.675781 316.777344 166.671875 316.78125 166.660156 C 316.796875 166.644531 316.796875 166.621094 316.8125 166.609375 C 316.828125 166.621094 316.828125 166.644531 316.84375 166.660156 C 316.851562 166.671875 316.859375 166.675781 316.871094 166.679688 C 316.894531 166.691406 316.917969 166.695312 316.945312 166.691406 C 317.125 166.554688 317.378906 166.515625 317.59375 166.585938 C 317.625 166.523438 317.65625 166.449219 317.703125 166.398438 C 317.75 166.34375 317.8125 166.304688 317.878906 166.289062 C 317.945312 166.277344 318.011719 166.289062 318.070312 166.3125 C 318.152344 166.339844 318.226562 166.382812 318.285156 166.445312 C 318.378906 166.363281 318.496094 166.3125 318.621094 166.296875 C 318.710938 166.285156 318.804688 166.292969 318.894531 166.28125 C 318.988281 166.265625 319.078125 166.234375 319.125 166.15625 C 319.167969 166.183594 319.210938 166.207031 319.257812 166.230469 C 319.28125 166.246094 319.308594 166.261719 319.339844 166.261719 C 319.375 166.265625 319.410156 166.25 319.445312 166.234375 C 319.625 166.164062 319.835938 166.1875 319.996094 166.296875 L 319.996094 166.292969 C 320.050781 166.230469 320.109375 166.167969 320.179688 166.121094 C 320.246094 166.074219 320.332031 166.042969 320.414062 166.054688 C 320.464844 166.0625 320.511719 166.082031 320.554688 166.105469 C 320.625 166.148438 320.703125 166.214844 320.726562 166.296875 C 320.78125 166.285156 320.832031 166.269531 320.886719 166.257812 C 320.9375 166.246094 320.988281 166.234375 321.039062 166.230469 C 321.109375 166.230469 321.179688 166.25 321.25 166.269531 C 321.316406 166.289062 321.390625 166.308594 321.460938 166.304688 C 321.535156 166.300781 321.609375 166.269531 321.644531 166.207031 C 321.6875 166.300781 321.777344 166.382812 321.882812 166.402344 C 321.972656 166.417969 322.0625 166.402344 322.148438 166.417969 C 322.257812 166.441406 322.367188 166.523438 322.453125 166.59375 C 322.589844 166.503906 322.765625 166.476562 322.921875 166.519531 C 322.953125 166.527344 322.984375 166.539062 323.011719 166.5625 C 323.039062 166.582031 323.054688 166.613281 323.070312 166.640625 C 323.109375 166.726562 323.140625 166.816406 323.15625 166.90625 C 323.253906 166.914062 323.355469 166.917969 323.445312 166.957031 C 323.523438 166.992188 323.582031 167.050781 323.644531 167.105469 C 323.71875 167.167969 323.777344 167.234375 323.855469 167.289062 C 323.886719 167.308594 323.929688 167.320312 323.964844 167.332031 C 324 167.339844 324.039062 167.339844 324.070312 167.320312 C 324.039062 167.390625 324.046875 167.484375 324.078125 167.554688 C 324.109375 167.625 324.160156 167.679688 324.207031 167.738281 C 324.257812 167.796875 324.308594 167.851562 324.339844 167.921875 C 324.40625 168.058594 324.398438 168.21875 324.359375 168.367188 C 324.433594 168.421875 324.503906 168.492188 324.546875 168.574219 C 324.589844 168.652344 324.613281 168.75 324.59375 168.839844 C 324.578125 168.914062 324.539062 168.980469 324.484375 169.03125 C 324.433594 169.085938 324.367188 169.136719 324.300781 169.167969 C 324.316406 169.273438 324.296875 169.386719 324.253906 169.488281 C 324.214844 169.585938 324.15625 169.679688 324.089844 169.765625 C 324.042969 169.828125 323.996094 169.886719 323.96875 169.960938 C 323.941406 170.03125 323.953125 170.128906 324.003906 170.1875 C 324.015625 170.277344 324.03125 170.367188 324.003906 170.453125 C 323.996094 170.492188 323.980469 170.527344 323.96875 170.5625 C 323.949219 170.648438 323.972656 170.742188 324.023438 170.816406 C 324.0625 170.875 324.113281 170.921875 324.160156 170.976562 C 324.253906 171.09375 324.296875 171.273438 324.273438 171.421875 C 324.269531 171.453125 324.285156 171.480469 324.304688 171.5 C 324.324219 171.519531 324.347656 171.535156 324.371094 171.550781 C 324.4375 171.597656 324.5 171.652344 324.554688 171.714844 C 324.597656 171.773438 324.640625 171.839844 324.636719 171.910156 C 324.632812 171.972656 324.597656 172.023438 324.566406 172.074219 Z M 324.566406 172.074219 " fill-opacity="1" fill-rule="nonzero"/></g><g clip-path="url(#96532953b4)"><path fill="#121212" d="M 308.894531 165.945312 L 324.730469 165.945312 L 324.730469 174.6875 L 308.894531 174.6875 Z M 308.894531 165.945312 " fill-opacity="1" fill-rule="nonzero"/></g><g fill="#ffffff" fill-opacity="1"><g transform="translate(163.530493, 237.94631)"><g><path d="M 5.078125 0.078125 C 4.234375 0.078125 3.472656 -0.109375 2.796875 -0.484375 C 2.117188 -0.859375 1.585938 -1.375 1.203125 -2.03125 C 0.816406 -2.695312 0.625 -3.4375 0.625 -4.25 C 0.625 -5.070312 0.816406 -5.8125 1.203125 -6.46875 C 1.585938 -7.132812 2.117188 -7.648438 2.796875 -8.015625 C 3.484375 -8.390625 4.25 -8.578125 5.09375 -8.578125 C 5.726562 -8.578125 6.3125 -8.472656 6.84375 -8.265625 C 7.375 -8.054688 7.828125 -7.75 8.203125 -7.34375 L 7.640625 -6.765625 C 6.972656 -7.441406 6.132812 -7.78125 5.125 -7.78125 C 4.445312 -7.78125 3.832031 -7.625 3.28125 -7.3125 C 2.726562 -7.007812 2.296875 -6.585938 1.984375 -6.046875 C 1.671875 -5.515625 1.515625 -4.914062 1.515625 -4.25 C 1.515625 -3.59375 1.671875 -2.992188 1.984375 -2.453125 C 2.296875 -1.921875 2.726562 -1.5 3.28125 -1.1875 C 3.832031 -0.882812 4.445312 -0.734375 5.125 -0.734375 C 6.144531 -0.734375 6.984375 -1.070312 7.640625 -1.75 L 8.203125 -1.171875 C 7.828125 -0.773438 7.367188 -0.46875 6.828125 -0.25 C 6.296875 -0.03125 5.710938 0.078125 5.078125 0.078125 Z M 5.078125 0.078125 "/></g></g></g><g fill="#ffffff" fill-opacity="1"><g transform="translate(170.980478, 237.94631)"><g><path d="M 7.203125 0 L 5.25 -2.734375 C 5.03125 -2.710938 4.804688 -2.703125 4.578125 -2.703125 L 2.28125 -2.703125 L 2.28125 0 L 1.390625 0 L 1.390625 -8.515625 L 4.578125 -8.515625 C 5.660156 -8.515625 6.507812 -8.253906 7.125 -7.734375 C 7.738281 -7.210938 8.046875 -6.5 8.046875 -5.59375 C 8.046875 -4.925781 7.875 -4.363281 7.53125 -3.90625 C 7.195312 -3.445312 6.722656 -3.117188 6.109375 -2.921875 L 8.1875 0 Z M 4.546875 -3.46875 C 5.390625 -3.46875 6.03125 -3.648438 6.46875 -4.015625 C 6.914062 -4.390625 7.140625 -4.914062 7.140625 -5.59375 C 7.140625 -6.28125 6.914062 -6.804688 6.46875 -7.171875 C 6.03125 -7.546875 5.390625 -7.734375 4.546875 -7.734375 L 2.28125 -7.734375 L 2.28125 -3.46875 Z M 4.546875 -3.46875 "/></g></g></g><g fill="#ffffff" fill-opacity="1"><g transform="translate(178.479083, 237.94631)"><g><path d="M 7.40625 -0.78125 L 7.40625 0 L 1.390625 0 L 1.390625 -8.515625 L 7.21875 -8.515625 L 7.21875 -7.734375 L 2.28125 -7.734375 L 2.28125 -4.703125 L 6.6875 -4.703125 L 6.6875 -3.9375 L 2.28125 -3.9375 L 2.28125 -0.78125 Z M 7.40625 -0.78125 "/></g></g></g><g fill="#ffffff" fill-opacity="1"><g transform="translate(185.321339, 237.94631)"><g><path d="M 6.71875 -2.265625 L 1.984375 -2.265625 L 0.953125 0 L 0.03125 0 L 3.921875 -8.515625 L 4.796875 -8.515625 L 8.6875 0 L 7.75 0 Z M 6.390625 -3 L 4.359375 -7.578125 L 2.3125 -3 Z M 6.390625 -3 "/></g></g></g><g fill="#ffffff" fill-opacity="1"><g transform="translate(192.747019, 237.94631)"><g><path d="M 3.03125 -7.734375 L 0.046875 -7.734375 L 0.046875 -8.515625 L 6.921875 -8.515625 L 6.921875 -7.734375 L 3.9375 -7.734375 L 3.9375 0 L 3.03125 0 Z M 3.03125 -7.734375 "/></g></g></g><g fill="#ffffff" fill-opacity="1"><g transform="translate(198.434591, 237.94631)"><g><path d="M 1.390625 -8.515625 L 2.28125 -8.515625 L 2.28125 0 L 1.390625 0 Z M 1.390625 -8.515625 "/></g></g></g><g fill="#ffffff" fill-opacity="1"><g transform="translate(200.816104, 237.94631)"><g><path d="M 5.109375 0.078125 C 4.265625 0.078125 3.5 -0.109375 2.8125 -0.484375 C 2.125 -0.867188 1.585938 -1.390625 1.203125 -2.046875 C 0.816406 -2.703125 0.625 -3.4375 0.625 -4.25 C 0.625 -5.070312 0.816406 -5.8125 1.203125 -6.46875 C 1.585938 -7.125 2.125 -7.640625 2.8125 -8.015625 C 3.5 -8.390625 4.265625 -8.578125 5.109375 -8.578125 C 5.953125 -8.578125 6.710938 -8.390625 7.390625 -8.015625 C 8.066406 -7.648438 8.597656 -7.132812 8.984375 -6.46875 C 9.367188 -5.8125 9.5625 -5.070312 9.5625 -4.25 C 9.5625 -3.4375 9.367188 -2.695312 8.984375 -2.03125 C 8.597656 -1.375 8.066406 -0.859375 7.390625 -0.484375 C 6.710938 -0.109375 5.953125 0.078125 5.109375 0.078125 Z M 5.109375 -0.734375 C 5.773438 -0.734375 6.378906 -0.882812 6.921875 -1.1875 C 7.472656 -1.488281 7.898438 -1.910156 8.203125 -2.453125 C 8.515625 -2.992188 8.671875 -3.59375 8.671875 -4.25 C 8.671875 -4.914062 8.515625 -5.519531 8.203125 -6.0625 C 7.898438 -6.601562 7.472656 -7.023438 6.921875 -7.328125 C 6.378906 -7.628906 5.773438 -7.78125 5.109375 -7.78125 C 4.429688 -7.78125 3.816406 -7.628906 3.265625 -7.328125 C 2.722656 -7.023438 2.296875 -6.601562 1.984375 -6.0625 C 1.671875 -5.519531 1.515625 -4.914062 1.515625 -4.25 C 1.515625 -3.59375 1.671875 -2.992188 1.984375 -2.453125 C 2.296875 -1.910156 2.722656 -1.488281 3.265625 -1.1875 C 3.816406 -0.882812 4.429688 -0.734375 5.109375 -0.734375 Z M 5.109375 -0.734375 "/></g></g></g><g fill="#ffffff" fill-opacity="1"><g transform="translate(209.724636, 237.94631)"><g><path d="M 8.5 -8.515625 L 8.5 0 L 7.75 0 L 2.28125 -6.90625 L 2.28125 0 L 1.390625 0 L 1.390625 -8.515625 L 2.125 -8.515625 L 7.609375 -1.609375 L 7.609375 -8.515625 Z M 8.5 -8.515625 "/></g></g></g><g fill="#ffffff" fill-opacity="1"><g transform="translate(218.317152, 237.94631)"><g><path d="M 3.734375 0.078125 C 3.097656 0.078125 2.488281 -0.0195312 1.90625 -0.21875 C 1.332031 -0.425781 0.890625 -0.695312 0.578125 -1.03125 L 0.921875 -1.71875 C 1.234375 -1.414062 1.644531 -1.164062 2.15625 -0.96875 C 2.664062 -0.78125 3.191406 -0.6875 3.734375 -0.6875 C 4.492188 -0.6875 5.0625 -0.828125 5.4375 -1.109375 C 5.820312 -1.390625 6.015625 -1.753906 6.015625 -2.203125 C 6.015625 -2.535156 5.910156 -2.800781 5.703125 -3 C 5.492188 -3.207031 5.238281 -3.363281 4.9375 -3.46875 C 4.644531 -3.582031 4.234375 -3.707031 3.703125 -3.84375 C 3.054688 -4 2.539062 -4.148438 2.15625 -4.296875 C 1.78125 -4.453125 1.457031 -4.679688 1.1875 -4.984375 C 0.914062 -5.296875 0.78125 -5.71875 0.78125 -6.25 C 0.78125 -6.675781 0.890625 -7.066406 1.109375 -7.421875 C 1.335938 -7.773438 1.6875 -8.054688 2.15625 -8.265625 C 2.632812 -8.472656 3.222656 -8.578125 3.921875 -8.578125 C 4.398438 -8.578125 4.875 -8.507812 5.34375 -8.375 C 5.8125 -8.25 6.210938 -8.066406 6.546875 -7.828125 L 6.25 -7.109375 C 5.894531 -7.347656 5.515625 -7.523438 5.109375 -7.640625 C 4.703125 -7.753906 4.304688 -7.8125 3.921875 -7.8125 C 3.171875 -7.8125 2.609375 -7.664062 2.234375 -7.375 C 1.859375 -7.09375 1.671875 -6.722656 1.671875 -6.265625 C 1.671875 -5.929688 1.769531 -5.660156 1.96875 -5.453125 C 2.175781 -5.242188 2.4375 -5.082031 2.75 -4.96875 C 3.0625 -4.863281 3.484375 -4.75 4.015625 -4.625 C 4.640625 -4.46875 5.144531 -4.3125 5.53125 -4.15625 C 5.914062 -4.007812 6.238281 -3.785156 6.5 -3.484375 C 6.769531 -3.179688 6.90625 -2.769531 6.90625 -2.25 C 6.90625 -1.820312 6.789062 -1.429688 6.5625 -1.078125 C 6.332031 -0.722656 5.976562 -0.441406 5.5 -0.234375 C 5.019531 -0.0234375 4.429688 0.078125 3.734375 0.078125 Z M 3.734375 0.078125 "/></g></g></g></svg>