<svg version="1.0" preserveAspectRatio="xMidYMid meet" viewBox="11.948169385796545 2.7360071746666 86.8042226487524 25.055999768000003" zoomAndPan="magnify" xmlns:xlink="http://www.w3.org/1999/xlink" xmlns="http://www.w3.org/2000/svg" style="max-height: 500px" width="86.8042226487524" height="25.055999768000003"><defs><g/><clipPath id="2610e8d434"><path clip-rule="nonzero" d="M 0 0.238281 L 18 0.238281 L 18 18 L 0 18 Z M 0 0.238281"/></clipPath><clipPath id="3742abc5bb"><path clip-rule="nonzero" d="M -2.347656 -2.597656 L 18.15625 17.015625 L 17.125 18.09375 L -3.378906 -1.519531 Z M -2.347656 -2.597656"/></clipPath><clipPath id="7d40a648c5"><path clip-rule="nonzero" d="M -2.347656 -2.597656 L 18.15625 17.015625 L 17.125 18.09375 L -3.378906 -1.519531 Z M -2.347656 -2.597656"/></clipPath><clipPath id="77fb7e3c59"><path clip-rule="nonzero" d="M 28 12.472656 L 68 12.472656 L 68 15.457031 L 28 15.457031 Z M 28 12.472656"/></clipPath><clipPath id="855f9b73f2"><path clip-rule="nonzero" d="M 43 0.238281 L 69 0.238281 L 69 11 L 43 11 Z M 43 0.238281"/></clipPath><clipPath id="3c8e005d32"><path clip-rule="nonzero" d="M 69.476562 -21.078125 L 45.136719 11.066406 L 42.753906 9.261719 L 67.097656 -22.882812 Z M 69.476562 -21.078125"/></clipPath><clipPath id="6f4388d8d1"><path clip-rule="nonzero" d="M 69.476562 -21.078125 L 45.136719 11.066406 L 42.753906 9.261719 L 67.097656 -22.882812 Z M 69.476562 -21.078125"/></clipPath><clipPath id="1005579ca7"><path clip-rule="nonzero" d="M 68.058594 12.472656 L 108 12.472656 L 108 15.457031 L 68.058594 15.457031 Z M 68.058594 12.472656"/></clipPath><clipPath id="55cc72fbec"><path clip-rule="nonzero" d="M 62 0.238281 L 74 0.238281 L 74 36 L 62 36 Z M 62 0.238281"/></clipPath><clipPath id="ac8a617e32"><path clip-rule="nonzero" d="M 73.828125 -2.808594 L 65.074219 36.546875 L 62.15625 35.898438 L 70.914062 -3.460938 Z M 73.828125 -2.808594"/></clipPath><clipPath id="92db58f5c6"><path clip-rule="nonzero" d="M 73.828125 -2.808594 L 65.074219 36.546875 L 62.15625 35.898438 L 70.914062 -3.460938 Z M 73.828125 -2.808594"/></clipPath><clipPath id="62e544c8c0"><path clip-rule="nonzero" d="M 87.339844 7.203125 L 91.820312 7.203125 L 91.820312 9.441406 L 87.339844 9.441406 Z M 87.339844 7.203125"/></clipPath></defs><g fill-opacity="1" fill="#000000"><g transform="translate(12.55651, 17.268784)"><g><path d="M 4.25 -13.578125 L 7.515625 -4.859375 L 10.640625 -13.578125 L 12.5 -13.578125 L 14.46875 0 L 11.875 0 L 10.828125 -8.21875 L 10.796875 -8.21875 L 7.796875 0.171875 L 6.890625 0.171875 L 4 -8.21875 L 3.96875 -8.21875 L 2.796875 0 L 0.1875 0 L 2.421875 -13.578125 Z M 4.25 -13.578125"/></g></g></g><g fill-opacity="1" fill="#000000"><g transform="translate(25.372578, 17.268784)"><g/></g></g><g clip-path="url(#2610e8d434)"><g clip-path="url(#3742abc5bb)"><g clip-path="url(#7d40a648c5)"><path fill-rule="nonzero" fill-opacity="1" d="M 17.289062 16.1875 L -1.476562 -1.765625 C -1.847656 -2.121094 -2.4375 -2.109375 -2.789062 -1.738281 C -3.144531 -1.367188 -3.128906 -0.78125 -2.761719 -0.425781 L 16.007812 17.527344 C 16.375 17.878906 16.964844 17.867188 17.316406 17.496094 C 17.671875 17.128906 17.660156 16.539062 17.289062 16.1875 Z M 17.289062 16.1875" fill="#ffffff"/></g></g></g><g fill-opacity="1" fill="#000000"><g transform="translate(30.028714, 17.268784)"><g><path d="M 7 -13.578125 L 12.015625 0 L 9.265625 0 L 8.25 -2.796875 L 3.65625 -2.796875 L 2.5625 0 L -0.15625 0 L 5 -13.578125 Z M 4.390625 -4.890625 L 7.53125 -4.890625 L 5.875 -9.703125 L 5.84375 -9.703125 Z M 4.390625 -4.890625"/></g></g></g><g clip-path="url(#77fb7e3c59)"><path fill-rule="nonzero" fill-opacity="1" d="M 66.351562 12.472656 L 29.4375 12.472656 C 28.710938 12.472656 28.121094 13.0625 28.121094 13.789062 C 28.121094 14.519531 28.710938 15.109375 29.4375 15.109375 L 66.351562 15.109375 C 67.082031 15.109375 67.671875 14.519531 67.671875 13.789062 C 67.671875 13.0625 67.082031 12.472656 66.351562 12.472656 Z M 66.351562 12.472656" fill="#ffffff"/></g><g fill-opacity="1" fill="#000000"><g transform="translate(46.972376, 17.268784)"><g><path d="M 3.53125 -13.234375 L 3.53125 -7.65625 L 3.5625 -7.65625 L 7.65625 -13.234375 L 10.828125 -13.234375 L 5.8125 -7.125 L 11.109375 0 L 7.796875 0 L 3.5625 -5.953125 L 3.53125 -5.953125 L 3.53125 0 L 0.953125 0 L 0.953125 -13.234375 Z M 3.53125 -13.234375"/></g></g></g><g clip-path="url(#855f9b73f2)"><g clip-path="url(#3c8e005d32)"><g clip-path="url(#6f4388d8d1)"><path fill-rule="nonzero" fill-opacity="1" d="M 46.167969 9.703125 L 68.453125 -19.722656 C 68.890625 -20.304688 68.777344 -21.132812 68.199219 -21.570312 C 67.617188 -22.011719 66.789062 -21.898438 66.351562 -21.316406 L 44.066406 8.113281 C 43.625 8.691406 43.738281 9.519531 44.320312 9.957031 C 44.898438 10.398438 45.726562 10.285156 46.167969 9.703125 Z M 46.167969 9.703125" fill="#ffffff"/></g></g></g><g fill-opacity="1" fill="#000000"><g transform="translate(72.606086, 17.268784)"><g><path d="M 7 -13.578125 L 12.015625 0 L 9.265625 0 L 8.25 -2.796875 L 3.65625 -2.796875 L 2.5625 0 L -0.15625 0 L 5 -13.578125 Z M 4.390625 -4.890625 L 7.53125 -4.890625 L 5.875 -9.703125 L 5.84375 -9.703125 Z M 4.390625 -4.890625"/></g></g></g><g clip-path="url(#1005579ca7)"><path fill-rule="nonzero" fill-opacity="1" d="M 106.667969 12.472656 L 69.753906 12.472656 C 69.027344 12.472656 68.4375 13.0625 68.4375 13.789062 C 68.4375 14.519531 69.027344 15.109375 69.753906 15.109375 L 106.667969 15.109375 C 107.394531 15.109375 107.988281 14.519531 107.988281 13.789062 C 107.988281 13.0625 107.394531 12.472656 106.667969 12.472656 Z M 106.667969 12.472656" fill="#ffffff"/></g><g fill-opacity="1" fill="#000000"><g transform="translate(87.853715, 17.268784)"><g><path d="M 4.515625 -13.234375 C 5.898438 -13.234375 6.96875 -12.890625 7.71875 -12.203125 C 8.476562 -11.515625 8.859375 -10.53125 8.859375 -9.25 C 8.859375 -8.3125 8.601562 -7.492188 8.09375 -6.796875 C 7.582031 -6.097656 6.9375 -5.691406 6.15625 -5.578125 L 9.890625 0 L 6.765625 0 L 3.5625 -5.328125 L 3.53125 -5.328125 L 3.53125 0 L 0.953125 0 L 0.953125 -13.234375 Z M 3.53125 -7.140625 L 3.8125 -7.140625 C 4.695312 -7.140625 5.328125 -7.300781 5.703125 -7.625 C 6.085938 -7.957031 6.28125 -8.472656 6.28125 -9.171875 C 6.28125 -9.867188 6.09375 -10.367188 5.71875 -10.671875 C 5.34375 -10.972656 4.71875 -11.125 3.84375 -11.125 L 3.53125 -11.125 Z M 3.53125 -7.140625"/></g></g></g><g fill-opacity="1" fill="#000000"><g transform="translate(61.348977, 17.268784)"><g><path d="M 3.53125 -13.234375 L 3.53125 -2.25 L 7.171875 -2.25 L 7.171875 0 L 0.953125 0 L 0.953125 -13.234375 Z M 3.53125 -13.234375"/></g></g></g><g clip-path="url(#55cc72fbec)"><g clip-path="url(#ac8a617e32)"><g clip-path="url(#92db58f5c6)"><path fill-rule="nonzero" fill-opacity="1" d="M 65.445312 34.878906 L 73.460938 -1.152344 C 73.617188 -1.863281 73.171875 -2.570312 72.460938 -2.726562 C 71.75 -2.882812 71.042969 -2.4375 70.886719 -1.726562 L 62.871094 34.308594 C 62.710938 35.019531 63.160156 35.722656 63.871094 35.878906 C 64.582031 36.039062 65.285156 35.589844 65.445312 34.878906 Z M 65.445312 34.878906" fill="#ffffff"/></g></g></g><g clip-path="url(#62e544c8c0)"><path fill-rule="nonzero" fill-opacity="1" d="M 91.59375 8.863281 C 91.578125 8.882812 91.5625 8.90625 91.542969 8.921875 C 91.546875 8.960938 91.546875 9 91.53125 9.03125 C 91.511719 9.078125 91.46875 9.109375 91.457031 9.15625 C 91.453125 9.171875 91.453125 9.183594 91.457031 9.199219 C 91.449219 9.191406 91.441406 9.191406 91.429688 9.195312 C 91.421875 9.199219 91.410156 9.199219 91.402344 9.207031 C 91.378906 9.222656 91.363281 9.238281 91.34375 9.257812 C 91.328125 9.269531 91.308594 9.285156 91.289062 9.296875 C 91.265625 9.308594 91.238281 9.308594 91.210938 9.308594 C 91.207031 9.335938 91.199219 9.359375 91.1875 9.382812 C 91.183594 9.390625 91.179688 9.398438 91.171875 9.402344 C 91.164062 9.410156 91.15625 9.414062 91.148438 9.414062 C 91.105469 9.425781 91.058594 9.417969 91.019531 9.394531 C 90.996094 9.414062 90.96875 9.4375 90.9375 9.441406 C 90.914062 9.445312 90.890625 9.441406 90.867188 9.445312 C 90.839844 9.453125 90.8125 9.472656 90.800781 9.5 C 90.792969 9.484375 90.773438 9.472656 90.753906 9.472656 C 90.734375 9.472656 90.714844 9.476562 90.695312 9.484375 C 90.675781 9.488281 90.65625 9.492188 90.636719 9.492188 C 90.625 9.492188 90.609375 9.488281 90.597656 9.484375 C 90.582031 9.484375 90.566406 9.480469 90.554688 9.476562 C 90.546875 9.496094 90.527344 9.515625 90.507812 9.527344 C 90.496094 9.535156 90.480469 9.539062 90.46875 9.539062 C 90.445312 9.542969 90.421875 9.535156 90.40625 9.523438 C 90.386719 9.511719 90.371094 9.492188 90.355469 9.476562 C 90.3125 9.503906 90.253906 9.511719 90.207031 9.492188 C 90.195312 9.488281 90.1875 9.484375 90.175781 9.484375 C 90.167969 9.484375 90.160156 9.488281 90.15625 9.492188 C 90.144531 9.5 90.128906 9.507812 90.117188 9.511719 C 90.105469 9.492188 90.082031 9.484375 90.058594 9.480469 C 90.03125 9.476562 90.007812 9.476562 89.984375 9.476562 C 89.949219 9.46875 89.917969 9.457031 89.890625 9.433594 C 89.875 9.453125 89.855469 9.464844 89.832031 9.46875 C 89.816406 9.476562 89.800781 9.480469 89.78125 9.476562 C 89.761719 9.472656 89.746094 9.460938 89.734375 9.449219 C 89.722656 9.433594 89.710938 9.414062 89.703125 9.394531 C 89.644531 9.414062 89.578125 9.40625 89.527344 9.367188 C 89.523438 9.367188 89.515625 9.367188 89.507812 9.371094 C 89.503906 9.371094 89.503906 9.375 89.5 9.375 C 89.496094 9.378906 89.496094 9.386719 89.492188 9.390625 C 89.488281 9.386719 89.488281 9.378906 89.484375 9.375 C 89.484375 9.375 89.480469 9.371094 89.476562 9.371094 C 89.46875 9.367188 89.464844 9.367188 89.457031 9.367188 C 89.40625 9.40625 89.339844 9.414062 89.28125 9.394531 C 89.273438 9.414062 89.261719 9.433594 89.25 9.449219 C 89.238281 9.460938 89.222656 9.472656 89.203125 9.476562 C 89.1875 9.480469 89.167969 9.476562 89.152344 9.46875 C 89.128906 9.460938 89.109375 9.453125 89.09375 9.433594 C 89.070312 9.457031 89.035156 9.46875 89.003906 9.476562 C 88.976562 9.476562 88.953125 9.476562 88.929688 9.480469 C 88.902344 9.484375 88.878906 9.492188 88.867188 9.511719 C 88.855469 9.507812 88.84375 9.5 88.832031 9.492188 C 88.824219 9.488281 88.816406 9.484375 88.808594 9.484375 C 88.796875 9.484375 88.789062 9.488281 88.777344 9.492188 C 88.730469 9.511719 88.671875 9.503906 88.628906 9.476562 C 88.613281 9.492188 88.601562 9.511719 88.582031 9.523438 C 88.5625 9.535156 88.539062 9.542969 88.515625 9.539062 C 88.503906 9.539062 88.492188 9.535156 88.480469 9.527344 C 88.460938 9.515625 88.4375 9.496094 88.433594 9.476562 C 88.417969 9.480469 88.402344 9.484375 88.386719 9.484375 C 88.375 9.488281 88.363281 9.492188 88.347656 9.492188 C 88.328125 9.492188 88.308594 9.488281 88.289062 9.480469 C 88.273438 9.476562 88.253906 9.472656 88.234375 9.472656 C 88.214844 9.472656 88.195312 9.484375 88.183594 9.5 C 88.171875 9.472656 88.148438 9.453125 88.117188 9.445312 C 88.09375 9.441406 88.070312 9.445312 88.046875 9.441406 C 88.015625 9.4375 87.988281 9.414062 87.964844 9.394531 C 87.925781 9.417969 87.878906 9.425781 87.835938 9.414062 C 87.828125 9.414062 87.820312 9.410156 87.8125 9.402344 C 87.804688 9.398438 87.800781 9.390625 87.796875 9.382812 C 87.785156 9.359375 87.777344 9.335938 87.773438 9.308594 C 87.746094 9.308594 87.71875 9.308594 87.695312 9.296875 C 87.675781 9.285156 87.660156 9.269531 87.640625 9.257812 C 87.621094 9.238281 87.609375 9.222656 87.589844 9.207031 C 87.582031 9.203125 87.566406 9.199219 87.554688 9.195312 C 87.546875 9.191406 87.535156 9.191406 87.527344 9.199219 C 87.535156 9.183594 87.53125 9.171875 87.527344 9.15625 C 87.515625 9.109375 87.472656 9.078125 87.449219 9.03125 C 87.4375 8.996094 87.4375 8.960938 87.441406 8.921875 C 87.421875 8.90625 87.40625 8.882812 87.390625 8.863281 C 87.382812 8.847656 87.371094 8.835938 87.371094 8.816406 C 87.371094 8.796875 87.382812 8.78125 87.394531 8.765625 C 87.410156 8.746094 87.425781 8.734375 87.445312 8.71875 C 87.449219 8.714844 87.457031 8.710938 87.460938 8.707031 C 87.46875 8.699219 87.46875 8.695312 87.46875 8.6875 C 87.464844 8.644531 87.476562 8.597656 87.5 8.566406 C 87.511719 8.550781 87.527344 8.539062 87.539062 8.523438 C 87.550781 8.5 87.558594 8.476562 87.550781 8.453125 C 87.550781 8.441406 87.546875 8.433594 87.542969 8.421875 C 87.535156 8.398438 87.539062 8.375 87.542969 8.351562 C 87.558594 8.335938 87.558594 8.308594 87.554688 8.289062 C 87.546875 8.269531 87.53125 8.253906 87.519531 8.238281 C 87.503906 8.214844 87.484375 8.1875 87.476562 8.160156 C 87.464844 8.132812 87.457031 8.105469 87.464844 8.074219 C 87.445312 8.066406 87.425781 8.054688 87.414062 8.039062 C 87.398438 8.023438 87.386719 8.003906 87.382812 7.984375 C 87.378906 7.960938 87.382812 7.9375 87.394531 7.914062 C 87.40625 7.890625 87.425781 7.875 87.445312 7.859375 C 87.4375 7.816406 87.433594 7.773438 87.453125 7.738281 C 87.460938 7.71875 87.472656 7.703125 87.488281 7.6875 C 87.5 7.671875 87.515625 7.65625 87.523438 7.636719 C 87.53125 7.621094 87.535156 7.59375 87.527344 7.574219 C 87.535156 7.578125 87.546875 7.582031 87.554688 7.578125 C 87.566406 7.574219 87.574219 7.570312 87.582031 7.5625 C 87.601562 7.546875 87.621094 7.53125 87.640625 7.515625 C 87.660156 7.5 87.675781 7.484375 87.695312 7.476562 C 87.71875 7.464844 87.746094 7.464844 87.773438 7.460938 C 87.777344 7.4375 87.785156 7.414062 87.796875 7.390625 C 87.800781 7.382812 87.804688 7.375 87.8125 7.367188 C 87.820312 7.363281 87.828125 7.359375 87.835938 7.359375 C 87.878906 7.347656 87.925781 7.355469 87.964844 7.378906 C 87.988281 7.359375 88.019531 7.335938 88.046875 7.332031 C 88.070312 7.324219 88.09375 7.332031 88.117188 7.324219 C 88.148438 7.320312 88.171875 7.296875 88.183594 7.273438 C 88.195312 7.289062 88.214844 7.296875 88.234375 7.300781 C 88.253906 7.300781 88.273438 7.296875 88.289062 7.289062 C 88.308594 7.285156 88.328125 7.277344 88.347656 7.28125 C 88.363281 7.28125 88.375 7.28125 88.390625 7.285156 C 88.402344 7.289062 88.417969 7.292969 88.433594 7.296875 C 88.4375 7.273438 88.460938 7.257812 88.480469 7.246094 C 88.492188 7.238281 88.503906 7.234375 88.515625 7.230469 C 88.539062 7.230469 88.5625 7.238281 88.582031 7.25 C 88.601562 7.261719 88.613281 7.28125 88.628906 7.296875 C 88.671875 7.265625 88.730469 7.261719 88.78125 7.28125 C 88.789062 7.285156 88.796875 7.289062 88.808594 7.289062 C 88.816406 7.289062 88.824219 7.285156 88.832031 7.28125 C 88.84375 7.273438 88.855469 7.265625 88.867188 7.257812 C 88.878906 7.28125 88.902344 7.289062 88.929688 7.292969 C 88.953125 7.296875 88.976562 7.292969 89.003906 7.296875 C 89.035156 7.300781 89.070312 7.316406 89.09375 7.339844 C 89.109375 7.320312 89.128906 7.308594 89.152344 7.300781 C 89.167969 7.296875 89.1875 7.292969 89.203125 7.296875 C 89.222656 7.300781 89.238281 7.3125 89.25 7.324219 C 89.265625 7.339844 89.273438 7.359375 89.28125 7.375 C 89.339844 7.355469 89.40625 7.367188 89.457031 7.40625 C 89.464844 7.40625 89.46875 7.40625 89.476562 7.402344 C 89.480469 7.402344 89.484375 7.398438 89.484375 7.394531 C 89.488281 7.390625 89.488281 7.386719 89.492188 7.382812 C 89.496094 7.386719 89.496094 7.390625 89.5 7.394531 C 89.503906 7.398438 89.503906 7.402344 89.507812 7.402344 C 89.515625 7.40625 89.523438 7.40625 89.527344 7.40625 C 89.578125 7.367188 89.644531 7.355469 89.703125 7.375 C 89.710938 7.359375 89.722656 7.339844 89.734375 7.324219 C 89.746094 7.3125 89.761719 7.300781 89.78125 7.296875 C 89.800781 7.292969 89.816406 7.296875 89.835938 7.300781 C 89.855469 7.308594 89.875 7.320312 89.890625 7.339844 C 89.917969 7.316406 89.949219 7.300781 89.984375 7.296875 C 90.007812 7.292969 90.03125 7.296875 90.058594 7.292969 C 90.082031 7.289062 90.105469 7.28125 90.117188 7.257812 C 90.128906 7.265625 90.144531 7.273438 90.15625 7.28125 C 90.160156 7.285156 90.167969 7.289062 90.175781 7.289062 C 90.1875 7.289062 90.195312 7.285156 90.207031 7.28125 C 90.253906 7.261719 90.3125 7.265625 90.355469 7.296875 C 90.371094 7.28125 90.386719 7.261719 90.40625 7.25 C 90.421875 7.238281 90.445312 7.230469 90.46875 7.230469 C 90.480469 7.234375 90.496094 7.238281 90.507812 7.246094 C 90.527344 7.257812 90.546875 7.277344 90.554688 7.296875 C 90.566406 7.292969 90.582031 7.289062 90.597656 7.285156 C 90.609375 7.285156 90.625 7.28125 90.636719 7.28125 C 90.65625 7.28125 90.675781 7.285156 90.695312 7.289062 C 90.714844 7.296875 90.734375 7.300781 90.753906 7.300781 C 90.773438 7.296875 90.792969 7.289062 90.800781 7.273438 C 90.8125 7.300781 90.839844 7.320312 90.867188 7.324219 C 90.890625 7.332031 90.914062 7.324219 90.9375 7.332031 C 90.96875 7.335938 90.996094 7.359375 91.019531 7.378906 C 91.058594 7.355469 91.105469 7.347656 91.148438 7.359375 C 91.15625 7.359375 91.164062 7.363281 91.171875 7.367188 C 91.179688 7.375 91.183594 7.382812 91.1875 7.390625 C 91.199219 7.414062 91.207031 7.4375 91.210938 7.464844 C 91.238281 7.464844 91.265625 7.464844 91.289062 7.476562 C 91.308594 7.484375 91.328125 7.5 91.34375 7.515625 C 91.363281 7.53125 91.378906 7.550781 91.402344 7.566406 C 91.410156 7.570312 91.421875 7.574219 91.429688 7.578125 C 91.441406 7.582031 91.449219 7.582031 91.457031 7.574219 C 91.449219 7.59375 91.453125 7.621094 91.460938 7.636719 C 91.46875 7.65625 91.484375 7.671875 91.496094 7.6875 C 91.507812 7.703125 91.523438 7.71875 91.53125 7.738281 C 91.550781 7.773438 91.546875 7.820312 91.539062 7.859375 C 91.558594 7.875 91.574219 7.890625 91.589844 7.914062 C 91.601562 7.9375 91.605469 7.960938 91.601562 7.984375 C 91.597656 8.007812 91.585938 8.023438 91.570312 8.039062 C 91.558594 8.054688 91.539062 8.066406 91.519531 8.074219 C 91.527344 8.105469 91.519531 8.132812 91.507812 8.160156 C 91.5 8.1875 91.480469 8.214844 91.464844 8.238281 C 91.453125 8.253906 91.4375 8.269531 91.429688 8.289062 C 91.425781 8.308594 91.425781 8.335938 91.441406 8.351562 C 91.445312 8.375 91.449219 8.402344 91.441406 8.421875 C 91.4375 8.433594 91.433594 8.441406 91.433594 8.453125 C 91.425781 8.476562 91.433594 8.5 91.445312 8.523438 C 91.457031 8.539062 91.472656 8.550781 91.484375 8.566406 C 91.507812 8.597656 91.519531 8.644531 91.515625 8.6875 C 91.511719 8.695312 91.515625 8.703125 91.523438 8.707031 C 91.527344 8.710938 91.535156 8.714844 91.539062 8.71875 C 91.558594 8.734375 91.574219 8.75 91.589844 8.765625 C 91.601562 8.78125 91.613281 8.800781 91.613281 8.820312 C 91.609375 8.835938 91.601562 8.847656 91.59375 8.863281 Z M 91.59375 8.863281" fill="#ff0013"/><path fill-rule="nonzero" fill-opacity="1" d="M 87.347656 7.203125 L 91.636719 7.203125 L 91.636719 9.570312 L 87.347656 9.570312 Z M 87.347656 7.203125" fill="#ffffff"/></g><g fill-opacity="1" fill="#000000"><g transform="translate(47.788756, 26.793188)"><g><path d="M 1.390625 0.015625 C 1.160156 0.015625 0.953125 -0.03125 0.765625 -0.125 C 0.578125 -0.226562 0.429688 -0.367188 0.328125 -0.546875 C 0.222656 -0.734375 0.171875 -0.9375 0.171875 -1.15625 C 0.171875 -1.382812 0.222656 -1.585938 0.328125 -1.765625 C 0.429688 -1.941406 0.578125 -2.082031 0.765625 -2.1875 C 0.953125 -2.289062 1.160156 -2.34375 1.390625 -2.34375 C 1.554688 -2.34375 1.710938 -2.3125 1.859375 -2.25 C 2.003906 -2.195312 2.128906 -2.113281 2.234375 -2 L 2.078125 -1.84375 C 1.898438 -2.03125 1.671875 -2.125 1.390625 -2.125 C 1.210938 -2.125 1.046875 -2.082031 0.890625 -2 C 0.742188 -1.914062 0.628906 -1.800781 0.546875 -1.65625 C 0.460938 -1.507812 0.421875 -1.34375 0.421875 -1.15625 C 0.421875 -0.976562 0.460938 -0.816406 0.546875 -0.671875 C 0.628906 -0.523438 0.742188 -0.410156 0.890625 -0.328125 C 1.046875 -0.242188 1.210938 -0.203125 1.390625 -0.203125 C 1.671875 -0.203125 1.898438 -0.296875 2.078125 -0.484375 L 2.234375 -0.328125 C 2.128906 -0.210938 2.003906 -0.125 1.859375 -0.0625 C 1.710938 -0.0078125 1.554688 0.015625 1.390625 0.015625 Z M 1.390625 0.015625"/></g></g></g><g fill-opacity="1" fill="#000000"><g transform="translate(49.815843, 26.793188)"><g><path d="M 1.96875 0 L 1.4375 -0.75 C 1.375 -0.738281 1.3125 -0.734375 1.25 -0.734375 L 0.625 -0.734375 L 0.625 0 L 0.375 0 L 0.375 -2.3125 L 1.25 -2.3125 C 1.539062 -2.3125 1.769531 -2.238281 1.9375 -2.09375 C 2.101562 -1.957031 2.1875 -1.769531 2.1875 -1.53125 C 2.1875 -1.34375 2.140625 -1.1875 2.046875 -1.0625 C 1.960938 -0.9375 1.832031 -0.847656 1.65625 -0.796875 L 2.234375 0 Z M 1.234375 -0.9375 C 1.460938 -0.9375 1.640625 -0.988281 1.765625 -1.09375 C 1.890625 -1.195312 1.953125 -1.34375 1.953125 -1.53125 C 1.953125 -1.71875 1.890625 -1.859375 1.765625 -1.953125 C 1.640625 -2.054688 1.460938 -2.109375 1.234375 -2.109375 L 0.625 -2.109375 L 0.625 -0.9375 Z M 1.234375 -0.9375"/></g></g></g><g fill-opacity="1" fill="#000000"><g transform="translate(51.856159, 26.793188)"><g><path d="M 2.015625 -0.21875 L 2.015625 0 L 0.375 0 L 0.375 -2.3125 L 1.96875 -2.3125 L 1.96875 -2.109375 L 0.625 -2.109375 L 0.625 -1.28125 L 1.828125 -1.28125 L 1.828125 -1.078125 L 0.625 -1.078125 L 0.625 -0.21875 Z M 2.015625 -0.21875"/></g></g></g><g fill-opacity="1" fill="#000000"><g transform="translate(53.717887, 26.793188)"><g><path d="M 1.828125 -0.625 L 0.546875 -0.625 L 0.265625 0 L 0 0 L 1.0625 -2.3125 L 1.3125 -2.3125 L 2.375 0 L 2.109375 0 Z M 1.75 -0.8125 L 1.1875 -2.0625 L 0.625 -0.8125 Z M 1.75 -0.8125"/></g></g></g><g fill-opacity="1" fill="#000000"><g transform="translate(55.738361, 26.793188)"><g><path d="M 0.828125 -2.109375 L 0.015625 -2.109375 L 0.015625 -2.3125 L 1.890625 -2.3125 L 1.890625 -2.109375 L 1.078125 -2.109375 L 1.078125 0 L 0.828125 0 Z M 0.828125 -2.109375"/></g></g></g><g fill-opacity="1" fill="#000000"><g transform="translate(57.285908, 26.793188)"><g><path d="M 0.375 -2.3125 L 0.625 -2.3125 L 0.625 0 L 0.375 0 Z M 0.375 -2.3125"/></g></g></g><g fill-opacity="1" fill="#000000"><g transform="translate(57.9339, 26.793188)"><g><path d="M 1.390625 0.015625 C 1.160156 0.015625 0.953125 -0.03125 0.765625 -0.125 C 0.578125 -0.226562 0.429688 -0.367188 0.328125 -0.546875 C 0.222656 -0.734375 0.171875 -0.9375 0.171875 -1.15625 C 0.171875 -1.382812 0.222656 -1.585938 0.328125 -1.765625 C 0.429688 -1.941406 0.578125 -2.082031 0.765625 -2.1875 C 0.953125 -2.289062 1.160156 -2.34375 1.390625 -2.34375 C 1.617188 -2.34375 1.820312 -2.289062 2 -2.1875 C 2.1875 -2.082031 2.332031 -1.941406 2.4375 -1.765625 C 2.550781 -1.585938 2.609375 -1.382812 2.609375 -1.15625 C 2.609375 -0.9375 2.550781 -0.734375 2.4375 -0.546875 C 2.332031 -0.367188 2.1875 -0.226562 2 -0.125 C 1.820312 -0.03125 1.617188 0.015625 1.390625 0.015625 Z M 1.390625 -0.203125 C 1.578125 -0.203125 1.742188 -0.242188 1.890625 -0.328125 C 2.035156 -0.410156 2.148438 -0.523438 2.234375 -0.671875 C 2.316406 -0.816406 2.359375 -0.976562 2.359375 -1.15625 C 2.359375 -1.34375 2.316406 -1.507812 2.234375 -1.65625 C 2.148438 -1.800781 2.035156 -1.914062 1.890625 -2 C 1.742188 -2.082031 1.578125 -2.125 1.390625 -2.125 C 1.203125 -2.125 1.035156 -2.082031 0.890625 -2 C 0.742188 -1.914062 0.628906 -1.800781 0.546875 -1.65625 C 0.460938 -1.507812 0.421875 -1.34375 0.421875 -1.15625 C 0.421875 -0.976562 0.460938 -0.816406 0.546875 -0.671875 C 0.628906 -0.523438 0.742188 -0.410156 0.890625 -0.328125 C 1.035156 -0.242188 1.203125 -0.203125 1.390625 -0.203125 Z M 1.390625 -0.203125"/></g></g></g><g fill-opacity="1" fill="#000000"><g transform="translate(60.357847, 26.793188)"><g><path d="M 2.3125 -2.3125 L 2.3125 0 L 2.109375 0 L 0.625 -1.875 L 0.625 0 L 0.375 0 L 0.375 -2.3125 L 0.578125 -2.3125 L 2.078125 -0.4375 L 2.078125 -2.3125 Z M 2.3125 -2.3125"/></g></g></g><g fill-opacity="1" fill="#000000"><g transform="translate(62.695809, 26.793188)"><g><path d="M 1.015625 0.015625 C 0.847656 0.015625 0.679688 -0.0078125 0.515625 -0.0625 C 0.359375 -0.113281 0.238281 -0.1875 0.15625 -0.28125 L 0.25 -0.46875 C 0.332031 -0.382812 0.441406 -0.316406 0.578125 -0.265625 C 0.722656 -0.210938 0.867188 -0.1875 1.015625 -0.1875 C 1.222656 -0.1875 1.378906 -0.222656 1.484375 -0.296875 C 1.585938 -0.378906 1.640625 -0.476562 1.640625 -0.59375 C 1.640625 -0.6875 1.609375 -0.757812 1.546875 -0.8125 C 1.492188 -0.875 1.425781 -0.921875 1.34375 -0.953125 C 1.257812 -0.984375 1.144531 -1.015625 1 -1.046875 C 0.832031 -1.085938 0.695312 -1.128906 0.59375 -1.171875 C 0.488281 -1.210938 0.398438 -1.273438 0.328125 -1.359375 C 0.253906 -1.441406 0.21875 -1.554688 0.21875 -1.703125 C 0.21875 -1.816406 0.242188 -1.921875 0.296875 -2.015625 C 0.359375 -2.117188 0.453125 -2.195312 0.578125 -2.25 C 0.710938 -2.3125 0.875 -2.34375 1.0625 -2.34375 C 1.195312 -2.34375 1.328125 -2.320312 1.453125 -2.28125 C 1.578125 -2.25 1.6875 -2.203125 1.78125 -2.140625 L 1.703125 -1.9375 C 1.609375 -2 1.503906 -2.046875 1.390625 -2.078125 C 1.273438 -2.109375 1.164062 -2.125 1.0625 -2.125 C 0.863281 -2.125 0.710938 -2.082031 0.609375 -2 C 0.503906 -1.925781 0.453125 -1.828125 0.453125 -1.703125 C 0.453125 -1.609375 0.476562 -1.535156 0.53125 -1.484375 C 0.59375 -1.429688 0.664062 -1.390625 0.75 -1.359375 C 0.832031 -1.328125 0.945312 -1.296875 1.09375 -1.265625 C 1.257812 -1.222656 1.394531 -1.179688 1.5 -1.140625 C 1.601562 -1.097656 1.691406 -1.035156 1.765625 -0.953125 C 1.835938 -0.867188 1.875 -0.753906 1.875 -0.609375 C 1.875 -0.492188 1.84375 -0.390625 1.78125 -0.296875 C 1.71875 -0.203125 1.617188 -0.125 1.484375 -0.0625 C 1.359375 -0.0078125 1.203125 0.015625 1.015625 0.015625 Z M 1.015625 0.015625"/></g></g></g></svg>